<?xml version="1.0" encoding="UTF-8" standalone="no"?>
<!-- Generator: Adobe Illustrator 13.0.0, SVG Export Plug-In . SVG Version: 6.00 Build 14948)  -->

<svg
   xmlns:dc="http://purl.org/dc/elements/1.1/"
   xmlns:cc="http://creativecommons.org/ns#"
   xmlns:rdf="http://www.w3.org/1999/02/22-rdf-syntax-ns#"
   xmlns:svg="http://www.w3.org/2000/svg"
   xmlns="http://www.w3.org/2000/svg"
   xmlns:xlink="http://www.w3.org/1999/xlink"
   xmlns:sodipodi="http://sodipodi.sourceforge.net/DTD/sodipodi-0.dtd"
   xmlns:inkscape="http://www.inkscape.org/namespaces/inkscape"
   version="1.1"
   id="Layer_2_1_"
   x="0px"
   y="0px"
   width="566.929px"
   height="129.21px"
   viewBox="0 0 566.929 129.21"
   enable-background="new 0 0 566.929 129.21"
   xml:space="preserve"
   sodipodi:docname="Favorites_udb_text_only.svg"
   inkscape:version="0.92.0 r15299"><metadata
     id="metadata58"><rdf:RDF><cc:Work
         rdf:about=""><dc:format>image/svg+xml</dc:format><dc:type
           rdf:resource="http://purl.org/dc/dcmitype/StillImage" /><dc:title></dc:title></cc:Work></rdf:RDF></metadata><defs
     id="defs56"><linearGradient
       inkscape:collect="always"
       xlink:href="#red_shadow-0"
       id="linearGradient6914"
       gradientUnits="userSpaceOnUse"
       x1="34.010048"
       y1="274.68298"
       x2="35.122318"
       y2="300.81601" /><linearGradient
       inkscape:collect="always"
       id="red_shadow-0"><stop
         style="stop-color:#830505;stop-opacity:1"
         offset="0"
         id="stop6706" /><stop
         id="stop6714"
         offset="0.03801362"
         style="stop-color:#ff0000;stop-opacity:1" /><stop
         style="stop-color:#ff0000;stop-opacity:1"
         offset="0.97301853"
         id="stop6716" /><stop
         style="stop-color:#cc0202;stop-opacity:1"
         offset="1"
         id="stop6708" /></linearGradient><linearGradient
       inkscape:collect="always"
       xlink:href="#red_shadow-0"
       id="linearGradient6916"
       gradientUnits="userSpaceOnUse"
       x1="49.82795"
       y1="274.51959"
       x2="49.844654"
       y2="300.68921" /><linearGradient
       inkscape:collect="always"
       xlink:href="#linearGradient6761"
       id="linearGradient6920"
       gradientUnits="userSpaceOnUse"
       x1="145.1463"
       y1="1080.1564"
       x2="145.36726"
       y2="1086.0911" /><linearGradient
       inkscape:collect="always"
       id="linearGradient6761"><stop
         style="stop-color:#bd0303;stop-opacity:1"
         offset="0"
         id="stop6757" /><stop
         id="stop6765"
         offset="0.21786626"
         style="stop-color:#ff0000;stop-opacity:1" /><stop
         style="stop-color:#ff0000;stop-opacity:1"
         offset="1"
         id="stop6759" /></linearGradient><linearGradient
       inkscape:collect="always"
       xlink:href="#linearGradient6776"
       id="linearGradient6922"
       gradientUnits="userSpaceOnUse"
       x1="110.48544"
       y1="1098.2761"
       x2="129.4258"
       y2="1097.4553" /><linearGradient
       inkscape:collect="always"
       id="linearGradient6776"><stop
         style="stop-color:#cb0202;stop-opacity:1"
         offset="0"
         id="stop6772" /><stop
         id="stop6780"
         offset="0.12904035"
         style="stop-color:#ff0000;stop-opacity:1" /><stop
         style="stop-color:#ff0000;stop-opacity:1"
         offset="1"
         id="stop6774" /></linearGradient><linearGradient
       inkscape:collect="always"
       xlink:href="#red_shadow-0"
       id="linearGradient4596"
       gradientUnits="userSpaceOnUse"
       x1="34.010048"
       y1="274.68298"
       x2="35.122318"
       y2="300.81601" /></defs><sodipodi:namedview
     pagecolor="#ffffff"
     bordercolor="#666666"
     borderopacity="1"
     objecttolerance="10"
     gridtolerance="10"
     guidetolerance="10"
     inkscape:pageopacity="0"
     inkscape:pageshadow="2"
     inkscape:window-width="1773"
     inkscape:window-height="957"
     id="namedview54"
     showgrid="false"
     inkscape:zoom="1.5665561"
     inkscape:cx="217.68612"
     inkscape:cy="32.868554"
     inkscape:window-x="1996"
     inkscape:window-y="88"
     inkscape:window-maximized="0"
     inkscape:current-layer="Layer_2_1_" /><g
     id="g6912"
     transform="matrix(3.9840387,0,0,3.9840387,-71.20864,-1082.0007)"><g
       id="g6852"
       transform="rotate(6.3312875,151.04447,108.07838)"><path
         inkscape:connector-curvature="0"
         style="font-style:normal;font-variant:normal;font-weight:normal;font-stretch:normal;font-size:medium;line-height:25.27969551px;font-family:Jumpman;-inkscape-font-specification:Jumpman;letter-spacing:0px;word-spacing:0px;fill:#fad60b;fill-opacity:1;stroke:none;stroke-width:1.01118779px;stroke-linecap:butt;stroke-linejoin:miter;stroke-opacity:1"
         d="m 160.98438,274.22266 c -2.34943,0 -4.43002,0.80713 -6.09766,2.375 -1.66673,1.56701 -2.54297,3.5445 -2.54297,5.77148 0,2.22698 0.876,4.2062 2.54297,5.77344 1.66789,1.56809 3.74867,2.37304 6.09766,2.37304 0.64116,0 1.11392,0.19596 1.57031,0.65235 0.4564,0.4564 0.65234,0.92915 0.65234,1.57031 0,0.64117 -0.19594,1.11391 -0.65234,1.57031 -0.45639,0.45639 -0.92915,0.65235 -1.57031,0.65235 h -5.92579 c -0.45206,0 -0.92464,0.12385 -1.26367,0.46289 -0.33903,0.33903 -0.46289,0.8116 -0.46289,1.26367 v 2.96289 c 0,0.45207 0.12438,0.92415 0.46289,1.26367 0.33852,0.33952 0.81087,0.46485 1.26367,0.46485 h 5.92579 c 2.34941,0 4.42828,-0.80734 6.0957,-2.375 1.6665,-1.5668 2.54492,-3.54404 2.54492,-5.77149 0,-2.22744 -0.87818,-4.20641 -2.54492,-5.77344 -1.66766,-1.56789 -3.74673,-2.37304 -6.0957,-2.37304 -0.64117,0 -1.11392,-0.19595 -1.57032,-0.65235 -0.45639,-0.4564 -0.65234,-0.92914 -0.65234,-1.57031 0,-0.64116 0.19595,-1.11391 0.65234,-1.57031 0.4564,-0.45639 0.92915,-0.65235 1.57032,-0.65235 h 5.92382 c 0.45207,0 0.92415,-0.12437 1.26368,-0.46289 0.33952,-0.33851 0.46484,-0.81087 0.46484,-1.26367 v -2.96289 c 0,-0.4528 -0.12584,-0.92467 -0.46484,-1.26367 -0.33901,-0.339 -0.81087,-0.46484 -1.26368,-0.46484 z"
         id="path6848" /><path
         id="path6850"
         style="font-style:normal;font-variant:normal;font-weight:normal;font-stretch:normal;font-size:medium;line-height:25.27969551px;font-family:Jumpman;-inkscape-font-specification:Jumpman;letter-spacing:0px;word-spacing:0px;fill:#ff0000;fill-opacity:1;stroke:none;stroke-width:1.01118779px;stroke-linecap:butt;stroke-linejoin:miter;stroke-opacity:1"
         d="m 160.98392,295.70054 q 1.22449,0 2.09348,-0.86899 0.86899,-0.86899 0.86899,-2.09348 0,-1.22448 -0.86899,-2.09347 -0.86899,-0.86899 -2.09348,-0.86899 -3.27846,0 -5.58918,-2.17247 -2.31072,-2.17248 -2.31072,-5.23369 0,-3.06121 2.31072,-5.23369 2.31072,-2.17247 5.58918,-2.17247 h 5.92493 q 0.98749,0 0.98749,0.98749 v 2.96246 q 0,0.98749 -0.98749,0.98749 h -5.92493 q -1.22448,0 -2.09347,0.86899 -0.86899,0.86899 -0.86899,2.09347 0,1.22449 0.86899,2.09348 0.86899,0.86899 2.09347,0.86899 3.27847,0 5.58919,2.17247 2.31072,2.17248 2.31072,5.23369 0,3.06121 -2.31072,5.23368 -2.31072,2.17248 -5.58919,2.17248 H 155.059 q -0.98749,0 -0.98749,-0.98749 v -2.96246 q 0,-0.98749 0.98749,-0.98749 z"
         inkscape:connector-curvature="0" /></g><g
       id="g6858"
       transform="rotate(-5.8631575,136.27872,423.13082)"><path
         inkscape:connector-curvature="0"
         style="font-style:normal;font-variant:normal;font-weight:normal;font-stretch:normal;font-size:medium;line-height:25.27969551px;font-family:Jumpman;-inkscape-font-specification:Jumpman;letter-spacing:0px;word-spacing:0px;fill:#fad60b;fill-opacity:1;stroke:none;stroke-width:1.01118779px;stroke-linecap:butt;stroke-linejoin:miter;stroke-opacity:1"
         d="m 136.29688,274.20117 c -0.45656,0 -0.93501,0.12641 -1.2793,0.47071 -0.34429,0.34429 -0.4707,0.82274 -0.4707,1.27929 v 23.69922 c 0,0.45656 0.1264,0.93501 0.4707,1.2793 0.34429,0.34429 0.82274,0.4707 1.2793,0.4707 h 13.82421 c 0.45656,0 0.93501,-0.12641 1.2793,-0.4707 0.34429,-0.34429 0.4707,-0.82275 0.4707,-1.2793 v -2.96289 c 0,-0.45655 -0.12587,-0.93549 -0.4707,-1.2793 -0.34482,-0.3438 -0.82349,-0.46875 -1.2793,-0.46875 h -9.11328 v -4.40234 h 7.13867 c 0.45581,0 0.93447,-0.12495 1.2793,-0.46875 0.34483,-0.3438 0.4707,-0.82274 0.4707,-1.2793 v -1.97656 c 0,-0.45656 -0.12587,-0.93549 -0.4707,-1.2793 -0.34483,-0.3438 -0.82349,-0.46875 -1.2793,-0.46875 h -7.13867 v -4.40234 h 9.11328 c 0.45581,0 0.93448,-0.12495 1.2793,-0.46875 0.34483,-0.3438 0.4707,-0.82274 0.4707,-1.2793 v -2.96289 c 0,-0.45655 -0.12641,-0.935 -0.4707,-1.27929 -0.34429,-0.3443 -0.82274,-0.47071 -1.2793,-0.47071 z"
         id="path6854" /><path
         id="path6856"
         style="font-style:normal;font-variant:normal;font-weight:normal;font-stretch:normal;font-size:medium;line-height:25.27969551px;font-family:Jumpman;-inkscape-font-specification:Jumpman;letter-spacing:0px;word-spacing:0px;fill:#ff0000;fill-opacity:1;stroke:none;stroke-width:1.01118779px;stroke-linecap:butt;stroke-linejoin:miter;stroke-opacity:1"
         d="m 140.24667,289.77561 v 5.92493 h 9.87488 q 0.98749,0 0.98749,0.98749 v 2.96246 q 0,0.98749 -0.98749,0.98749 h -13.82483 q -0.98749,0 -0.98749,-0.98749 v -23.69971 q 0,-0.98749 0.98749,-0.98749 h 13.82483 q 0.98749,0 0.98749,0.98749 v 2.96246 q 0,0.98749 -0.98749,0.98749 h -9.87488 v 5.92493 h 7.89991 q 0.98749,0 0.98749,0.98749 v 1.97497 q 0,0.98749 -0.98749,0.98749 z"
         inkscape:connector-curvature="0" /></g><g
       id="g6864"
       transform="rotate(2.1146116,120.61704,26.766566)"><path
         inkscape:connector-curvature="0"
         style="font-style:normal;font-variant:normal;font-weight:normal;font-stretch:normal;font-size:medium;line-height:25.27969551px;font-family:Jumpman;-inkscape-font-specification:Jumpman;letter-spacing:0px;word-spacing:0px;fill:#fad60b;fill-opacity:1;stroke:none;stroke-width:1.01118779px;stroke-linecap:butt;stroke-linejoin:miter;stroke-opacity:1"
         d="m 118.52148,274.15039 c -0.46494,0 -0.96078,0.12965 -1.3164,0.48633 -0.35562,0.35668 -0.48242,0.85031 -0.48242,1.31445 v 2.96289 c 0,0.46414 0.12818,0.95826 0.48437,1.31446 0.35619,0.35619 0.85032,0.48437 1.31445,0.48437 h 3.63086 v 18.9375 c 0,0.46495 0.12826,0.9603 0.48438,1.31641 0.35611,0.35611 0.85146,0.48437 1.3164,0.48437 h 2.9629 c 0.46494,0 0.96078,-0.12964 1.3164,-0.48633 0.35563,-0.35668 0.48242,-0.85031 0.48242,-1.31445 v -18.9375 h 3.63282 c 0.46414,0 0.95826,-0.12818 1.31445,-0.48437 0.35619,-0.3562 0.48437,-0.85032 0.48437,-1.31446 v -2.96289 c 0,-0.46414 -0.1268,-0.95777 -0.48242,-1.31445 -0.35562,-0.35668 -0.85146,-0.48633 -1.3164,-0.48633 z"
         id="path6860" /><path
         id="path6862"
         style="font-style:normal;font-variant:normal;font-weight:normal;font-stretch:normal;font-size:medium;line-height:25.27969551px;font-family:Jumpman;-inkscape-font-specification:Jumpman;letter-spacing:0px;word-spacing:0px;fill:#ff0000;fill-opacity:1;stroke:none;stroke-width:1.01118779px;stroke-linecap:butt;stroke-linejoin:miter;stroke-opacity:1"
         d="m 127.90308,299.65049 q 0,0.98749 -0.98749,0.98749 h -2.96247 q -0.98748,0 -0.98748,-0.98749 v -19.74976 h -4.4437 q -0.98749,0 -0.98749,-0.98749 v -2.96246 q 0,-0.98749 0.98749,-0.98749 h 13.82483 q 0.98749,0 0.98749,0.98749 v 2.96246 q 0,0.98749 -0.98749,0.98749 h -4.44369 z"
         inkscape:connector-curvature="0" /></g><g
       id="g6870"
       transform="rotate(-2.7143811,109.92255,419.83878)"><path
         inkscape:connector-curvature="0"
         style="font-style:normal;font-variant:normal;font-weight:normal;font-stretch:normal;font-size:medium;line-height:25.27969551px;font-family:Jumpman;-inkscape-font-specification:Jumpman;letter-spacing:0px;word-spacing:0px;fill:#fad60b;fill-opacity:1;stroke:none;stroke-width:1.01118779px;stroke-linecap:butt;stroke-linejoin:miter;stroke-opacity:1"
         d="m 111.57031,274.03711 c -0.48398,0 -1.01354,0.13464 -1.39648,0.51758 -0.38294,0.38294 -0.51758,0.91249 -0.51758,1.39648 v 23.69922 c 0,0.48399 0.13463,1.01354 0.51758,1.39649 0.38294,0.38294 0.9125,0.51757 1.39648,0.51757 h 2.98242 c 0.48056,0 1.01173,-0.13973 1.38868,-0.52539 0.37694,-0.38566 0.5039,-0.90858 0.5039,-1.38867 v -23.69922 c 0,-0.48307 -0.13317,-1.01094 -0.51562,-1.39453 -0.38246,-0.38359 -0.9125,-0.51953 -1.39649,-0.51953 z"
         id="path6866" /><path
         id="path6868"
         style="font-style:normal;font-variant:normal;font-weight:normal;font-stretch:normal;font-size:medium;line-height:25.27969551px;font-family:Jumpman;-inkscape-font-specification:Jumpman;letter-spacing:0px;word-spacing:0px;fill:#ff0000;fill-opacity:1;stroke:none;stroke-width:1.01118779px;stroke-linecap:butt;stroke-linejoin:miter;stroke-opacity:1"
         d="m 115.51997,299.65049 q 0,0.98749 -0.96774,0.98749 h -2.98221 q -0.98749,0 -0.98749,-0.98749 v -23.69971 q 0,-0.98749 0.98749,-0.98749 h 2.96247 q 0.98748,0 0.98748,0.98749 z"
         inkscape:connector-curvature="0" /></g><g
       id="g6876"
       transform="rotate(1.6842771,98.326761,125.80161)"><path
         inkscape:connector-curvature="0"
         style="font-style:normal;font-variant:normal;font-weight:normal;font-stretch:normal;font-size:medium;line-height:25.27969551px;font-family:Jumpman;-inkscape-font-specification:Jumpman;letter-spacing:0px;word-spacing:0px;fill:#fad60b;fill-opacity:1;stroke:none;stroke-width:1.01118779px;stroke-linecap:butt;stroke-linejoin:miter;stroke-opacity:1"
         d="m 93.794922,274.06055 c -0.479969,0 -1.002116,0.1338 -1.378906,0.51172 -0.376791,0.37791 -0.509766,0.89983 -0.509766,1.3789 v 23.69922 c 0,0.47908 0.132972,1.001 0.509766,1.37891 0.376793,0.37791 0.898941,0.51172 1.378906,0.51172 h 2.96289 c 0.479965,0 1.001624,-0.13444 1.378907,-0.51172 0.377283,-0.37728 0.511719,-0.89894 0.511719,-1.37891 v -8.97266 h 2.058592 c 0.60268,0 1.02569,0.17609 1.45508,0.60547 0.42939,0.42939 0.60547,0.8524 0.60547,1.45508 0,0.12642 -0.01,0.24166 -0.0273,0.3457 a 0.90274402,0.90274402 0 0 0 0.0273,0.40625 v 6.16016 c 0,0.47997 0.13443,1.00163 0.51172,1.37891 0.37728,0.37728 0.89894,0.51172 1.3789,0.51172 h 2.96094 c 0.47997,0 1.00162,-0.13444 1.37891,-0.51172 0.37728,-0.37729 0.51172,-0.89894 0.51172,-1.37891 v -6.41797 c 0,-2.07391 -0.83887,-3.90746 -2.26368,-5.43164 1.42481,-1.52417 2.26368,-3.35772 2.26368,-5.43164 0,-2.26788 -0.8993,-4.29753 -2.59375,-5.89062 -1.6956,-1.59414 -3.82359,-2.41797 -6.20899,-2.41797 z m 4.853516,6.74218 h 2.058592 c 0.60268,0 1.02569,0.17609 1.45508,0.60547 0.42939,0.42939 0.60547,0.8524 0.60547,1.45508 0,0.60269 -0.17608,1.02569 -0.60547,1.45508 -0.42939,0.42939 -0.8524,0.60547 -1.45508,0.60547 h -2.058592 z"
         id="path6872" /><path
         id="path6874"
         style="font-style:normal;font-variant:normal;font-weight:normal;font-stretch:normal;font-size:medium;line-height:25.27969551px;font-family:Jumpman;-inkscape-font-specification:Jumpman;letter-spacing:0px;word-spacing:0px;fill:#ff0000;fill-opacity:1;stroke:none;stroke-width:1.01118779px;stroke-linecap:butt;stroke-linejoin:miter;stroke-opacity:1"
         d="m 100.70766,279.90073 h -2.962467 v 5.92493 h 2.962467 q 1.22448,0 2.09347,-0.86899 0.86899,-0.86899 0.86899,-2.09348 0,-1.22448 -0.86899,-2.09347 -0.86899,-0.86899 -2.09347,-0.86899 z m 2.96246,13.33109 h -0.0395 q 0.0395,-0.237 0.0395,-0.49375 0,-1.22448 -0.86899,-2.09347 -0.86899,-0.86899 -2.09347,-0.86899 h -2.962467 v 9.87488 q 0,0.98749 -0.987488,0.98749 h -2.962464 q -0.987488,0 -0.987488,-0.98749 v -23.69971 q 0,-0.98749 0.987488,-0.98749 h 6.912419 q 3.27846,0 5.58918,2.17247 2.31072,2.17248 2.31072,5.23369 0,3.06121 -2.31072,5.23369 -0.0988,0.0988 -0.21725,0.19749 0.1185,0.0987 0.21725,0.1975 2.31072,2.17248 2.31072,5.23369 v 6.41867 q 0,0.98749 -0.98749,0.98749 h -2.96246 q -0.98749,0 -0.98749,-0.98749 z"
         inkscape:connector-curvature="0" /></g><g
       id="g6882"
       transform="translate(-2.1166667)"><path
         inkscape:connector-curvature="0"
         style="font-style:normal;font-variant:normal;font-weight:normal;font-stretch:normal;font-size:medium;line-height:25.27969551px;font-family:Jumpman;-inkscape-font-specification:Jumpman;letter-spacing:0px;word-spacing:0px;fill:#fad60b;fill-opacity:1;stroke:none;stroke-width:1.01118779px;stroke-linecap:butt;stroke-linejoin:miter;stroke-opacity:1"
         d="m 79.931641,273.42578 c -3.304478,0 -6.222227,1.50284 -8.494141,4.29688 -2.271937,2.78095 -3.412109,6.19243 -3.412109,10.07812 0,3.88667 1.140443,7.30394 3.412109,10.09766 a 1.0438253,1.0438253 0 0 0 0.002,0.002 c 2.272676,2.78085 5.189636,4.27344 8.492188,4.27344 3.30255,0 6.217756,-1.49283 8.490234,-4.27344 a 1.0438253,1.0438253 0 0 0 0.002,-0.002 c 2.271667,-2.79372 3.41211,-6.21099 3.41211,-10.09766 -10e-7,-3.88666 -1.140986,-7.29874 -3.414063,-10.08008 -2.271455,-2.79236 -5.186637,-4.29492 -8.490234,-4.29492 z m -0.002,7.84375 1.101562,3.39649 a 1.0438253,1.0438253 0 0 0 0.992188,0.7207 h 2.970703 l -2.320313,1.68945 a 1.0438253,1.0438253 0 0 0 -0.376953,1.16992 l 1.333984,4.05664 -3.02539,-2.55468 a 1.0438253,1.0438253 0 0 0 -1.347657,0 l -3.046874,2.57031 1.353515,-4.06836 A 1.0438253,1.0438253 0 0 0 77.1855,287.07422 l -2.332031,-1.6875 h 2.984375 a 1.0438253,1.0438253 0 0 0 0.992187,-0.7207 z"
         id="path6878" /><path
         id="path6880"
         style="font-style:normal;font-variant:normal;font-weight:normal;font-stretch:normal;font-size:medium;line-height:25.27969551px;font-family:Jumpman;-inkscape-font-specification:Jumpman;letter-spacing:0px;word-spacing:0px;fill:#ff0000;fill-opacity:1;stroke:none;stroke-width:1.01118779px;stroke-linecap:butt;stroke-linejoin:miter;stroke-opacity:1"
         d="m 79.930909,274.46955 q 4.502945,0 7.682657,3.91045 3.179711,3.8907 3.179711,9.42063 0,5.52994 -3.179711,9.44039 -3.179712,3.8907 -7.682657,3.8907 -4.502946,0 -7.682657,-3.8907 -3.179711,-3.91045 -3.179711,-9.44039 0,-5.52993 3.179711,-9.42063 3.179711,-3.91045 7.682657,-3.91045 z m 4.93744,20.2435 q 0.335746,0.158 0.493744,0.158 0.157998,0 0.157998,-0.158 0,-0.158 -0.157998,-0.49374 l -2.073725,-6.30018 3.554957,-2.58722 q 0.493744,-0.49374 0.493744,-0.75049 0,-0.23699 -0.493744,-0.23699 h -4.818941 l -1.599731,-4.93744 q -0.236997,-0.49375 -0.493744,-0.49375 -0.236997,0 -0.493744,0.49375 l -1.599731,4.93744 h -4.818941 q -0.493744,0 -0.493744,0.25674 0,0.237 0.473994,0.73074 l 3.574707,2.58722 -2.093475,6.30018 q -0.157998,0.31599 -0.157998,0.49374 0,0.158 0.177748,0.158 0.157998,0 0.493744,-0.158 l 4.93744,-4.1672 z"
         inkscape:connector-curvature="0" /></g><g
       id="g6888"><path
         inkscape:connector-curvature="0"
         transform="translate(0,37.150464)"
         style="font-style:normal;font-variant:normal;font-weight:normal;font-stretch:normal;font-size:medium;line-height:25.27969551px;font-family:Jumpman;-inkscape-font-specification:Jumpman;letter-spacing:0px;word-spacing:0px;fill:#fad60b;fill-opacity:1;stroke:none;stroke-width:1.01118779px;stroke-linecap:butt;stroke-linejoin:miter;stroke-opacity:1"
         d="m 43.486328,236.81445 -13.814453,0.54297 c -0.452178,0.0178 -0.918284,0.16197 -1.242187,0.51367 -0.323905,0.35171 -0.429869,0.828 -0.41211,1.2793 l 0.931641,23.67969 c 0.01777,0.45142 0.160976,0.91725 0.511719,1.24219 0.350741,0.32494 0.827299,0.43183 1.279296,0.41406 l 2.960938,-0.11719 c 0.451452,-0.0178 0.917771,-0.16046 1.242187,-0.51172 0.324417,-0.35126 0.429868,-0.82802 0.41211,-1.2793 l -0.359375,-9.13085 7.158203,-0.28125 c 0.451449,-0.0178 0.917769,-0.16047 1.242187,-0.51172 0.324419,-0.35126 0.429873,-0.82802 0.41211,-1.2793 l -0.07813,-1.97461 c -0.01777,-0.45145 -0.160465,-0.91778 -0.511719,-1.24219 -0.351254,-0.32441 -0.828031,-0.42985 -1.279297,-0.41211 l -7.15625,0.28321 -0.175781,-4.44922 9.130859,-0.35938 c 0.451422,-0.0178 0.917245,-0.16097 1.242188,-0.51172 0.324942,-0.35074 0.43185,-0.82729 0.414062,-1.27929 l -0.117187,-2.96094 c -0.01777,-0.45145 -0.160465,-0.91778 -0.511719,-1.24219 -0.351254,-0.32441 -0.828026,-0.42985 -1.279297,-0.41211 z"
         id="path6884" /><path
         id="path6886"
         style="font-style:normal;font-variant:normal;font-weight:normal;font-stretch:normal;font-size:medium;line-height:25.27969551px;font-family:Jumpman;-inkscape-font-specification:Jumpman;letter-spacing:0px;word-spacing:0px;fill:url(#linearGradient4596);fill-opacity:1;stroke:none;stroke-width:1.01118779px;stroke-linecap:butt;stroke-linejoin:miter;stroke-opacity:1"
         d="m 34.230924,289.89059 0.388352,9.86724 q 0.03883,0.98672 -0.947889,1.02556 l -2.960172,0.11651 q -0.986724,0.0388 -1.025559,-0.9479 l -0.932045,-23.68137 q -0.03883,-0.98673 0.947889,-1.02556 l 13.814137,-0.5437 q 0.986724,-0.0388 1.025559,0.9479 l 0.116506,2.96016 q 0.03883,0.98673 -0.947889,1.02557 l -9.867241,0.38835 0.233011,5.92034 7.893793,-0.31068 q 0.986724,-0.0388 1.025559,0.94789 l 0.07767,1.97344 q 0.03884,0.98673 -0.947888,1.02557 z"
         inkscape:connector-curvature="0" /></g><g
       id="g6894"
       transform="rotate(0.94306474,48.910352,191.3448)"><path
         inkscape:connector-curvature="0"
         style="font-style:normal;font-variant:normal;font-weight:normal;font-stretch:normal;font-size:medium;line-height:25.27969551px;font-family:Jumpman;-inkscape-font-specification:Jumpman;letter-spacing:0px;word-spacing:0px;fill:#fad60b;fill-opacity:1;stroke:none;stroke-width:1.01118779px;stroke-linecap:butt;stroke-linejoin:miter;stroke-opacity:1"
         d="m 47.935547,273.98633 c -0.967521,0.0197 -1.857364,0.65809 -2.296875,1.53711 a 0.95649955,0.95649955 0 0 0 -0.08398,0.25195 l -4.44336,23.69922 a 0.95649955,0.95649955 0 0 0 -0.01758,0.17578 c 0,0.40906 0.0283,0.77535 0.224609,1.16797 0.196313,0.39262 0.742418,0.77734 1.226563,0.77734 h 3.949219 c 0.490877,0 0.8873,-0.25449 1.160156,-0.52734 0.272856,-0.27286 0.476763,-0.59383 0.675781,-0.97656 a 0.95649955,0.95649955 0 0 0 0.08984,-0.25391 l 0.04492,-0.21875 h 2.478515 l 0.04492,0.21875 a 0.95649955,0.95649955 0 0 0 0.08203,0.24023 c 0.193166,0.38634 0.39647,0.71288 0.673829,0.99024 0.277358,0.27736 0.685776,0.52734 1.169921,0.52734 h 3.791016 c 0.459341,0 1.017042,-0.26861 1.28711,-0.67773 0.270067,-0.40912 0.322265,-0.83292 0.322265,-1.26758 a 0.95649955,0.95649955 0 0 0 -0.01758,-0.17578 l -4.443359,-23.69922 a 0.95649955,0.95649955 0 0 0 -0.08398,-0.25195 c -0.446797,-0.89365 -1.370746,-1.51815 -2.359375,-1.53711 a 0.95649955,0.95649955 0 0 0 -0.01758,0 h -3.4375 a 0.95649955,0.95649955 0 0 0 -0.01953,0 z"
         id="path6890" /><path
         id="path6892"
         style="font-style:normal;font-variant:normal;font-weight:normal;font-stretch:normal;font-size:medium;line-height:25.27969551px;font-family:Jumpman;-inkscape-font-specification:Jumpman;letter-spacing:0px;word-spacing:0px;fill:url(#linearGradient6916);fill-opacity:1;stroke:none;stroke-width:1.01118779px;stroke-linecap:butt;stroke-linejoin:miter;stroke-opacity:1"
         d="m 47.679548,298.663 -0.197498,0.98749 q -0.513493,0.98749 -0.987488,0.98749 H 42.54461 q -0.493744,0 -0.493744,-0.98749 l 4.443696,-23.69971 q 0.493744,-0.98749 1.461483,-1.00724 h 3.436458 q 1.026987,0.0197 1.520731,1.00724 l 4.443697,23.69971 q 0,0.98749 -0.651742,0.98749 h -3.791955 q -0.493744,0 -0.987488,-0.98749 L 51.728249,298.663 Z m 3.120462,-4.93744 -1.066487,-5.52993 -1.086237,5.52993 z"
         inkscape:connector-curvature="0" /></g><g
       id="g6902"
       transform="rotate(-3.6135909,61.723698,296.17844)"><g
         id="g6900"><path
           inkscape:connector-curvature="0"
           style="font-style:normal;font-variant:normal;font-weight:normal;font-stretch:normal;font-size:medium;line-height:25.27969551px;font-family:Jumpman;-inkscape-font-specification:Jumpman;letter-spacing:0px;word-spacing:0px;fill:#fad60b;fill-opacity:1;stroke:none;stroke-width:1.01118779px;stroke-linecap:butt;stroke-linejoin:miter;stroke-opacity:1"
           d="m 54.791016,274.01758 c -0.46729,0.0187 -0.972634,0.39027 -1.16211,0.77148 -0.189476,0.38121 -0.21875,0.74197 -0.21875,1.14258 a 0.92654343,0.92654343 0 0 0 0.01563,0.16992 l 4.44336,23.69922 a 0.92654343,0.92654343 0 0 0 0.08203,0.24414 c 0.43606,0.87207 1.312129,1.49994 2.269531,1.51953 a 0.92654343,0.92654343 0 0 0 0.01953,0 h 3.4375 a 0.92654343,0.92654343 0 0 0 0.01758,0 c 0.979123,-0.0188 1.887615,-0.6346 2.330079,-1.51953 a 0.92654343,0.92654343 0 0 0 0.08203,-0.24414 l 4.443359,-23.69922 a 0.92654343,0.92654343 0 0 0 0.01563,-0.16992 c 0,-0.42593 -0.05344,-0.84305 -0.314453,-1.24023 -0.261008,-0.39718 -0.78756,-0.66033 -1.234375,-0.67383 a 0.92654343,0.92654343 0 0 0 -0.02734,0 h -3.792968 c -0.474137,0 -0.875255,0.24554 -1.148438,0.51953 -0.273183,0.27399 -0.474074,0.59658 -0.666016,0.98047 a 0.92654343,0.92654343 0 0 0 -0.08203,0.24023 l -1.294922,6.76758 -1.332031,-6.77148 a 0.92654343,0.92654343 0 0 0 -0.08594,-0.25 c -0.197813,-0.38042 -0.401108,-0.69719 -0.669922,-0.9668 -0.268814,-0.26961 -0.65822,-0.51953 -1.138672,-0.51953 h -3.951172 a 0.92654343,0.92654343 0 0 0 -0.03711,0 z"
           id="path6896" /><path
           inkscape:connector-curvature="0"
           d="m 65.197587,299.63074 q -0.493744,0.98749 -1.520732,1.00724 h -3.436458 q -0.967738,-0.0198 -1.461482,-1.00724 l -4.443697,-23.69971 q 0,-0.96774 0.493744,-0.98749 h 3.949953 q 0.473994,0 0.987488,0.98749 l 2.251472,11.45486 2.192224,-11.45486 q 0.493744,-0.98749 0.987488,-0.98749 h 3.791954 q 0.651742,0.0197 0.651742,0.98749 z"
           style="font-style:normal;font-variant:normal;font-weight:normal;font-stretch:normal;font-size:medium;line-height:25.27969551px;font-family:Jumpman;-inkscape-font-specification:Jumpman;letter-spacing:0px;word-spacing:0px;fill:#ff0000;fill-opacity:1;stroke:none;stroke-width:1.01118779px;stroke-linecap:butt;stroke-linejoin:miter;stroke-opacity:1"
           id="path6898" /></g></g><path
       inkscape:connector-curvature="0"
       transform="translate(0,37.150464)"
       style="font-style:normal;font-variant:normal;font-weight:normal;font-stretch:normal;font-size:medium;line-height:25.27969551px;font-family:Jumpman;-inkscape-font-specification:Jumpman;letter-spacing:0px;word-spacing:0px;fill:#fad60b;fill-opacity:1;stroke:none;stroke-width:1.01118779px;stroke-linecap:butt;stroke-linejoin:miter;stroke-opacity:1"
       d="m 43.486328,236.81445 -13.814453,0.54297 c -0.452178,0.0178 -0.918284,0.16197 -1.242187,0.51367 -0.323905,0.35171 -0.429869,0.828 -0.41211,1.2793 l 0.931641,23.67969 c 0.01777,0.45142 0.160976,0.91725 0.511719,1.24219 0.350741,0.32494 0.827299,0.43183 1.279296,0.41406 l 2.960938,-0.11719 c 0.451452,-0.0178 0.917771,-0.16046 1.242187,-0.51172 0.324417,-0.35126 0.429868,-0.82802 0.41211,-1.2793 l -0.359375,-9.13085 7.158203,-0.28125 c 0.451449,-0.0178 0.917769,-0.16047 1.242187,-0.51172 0.324419,-0.35126 0.429873,-0.82802 0.41211,-1.2793 l -0.07813,-1.97461 c -0.01777,-0.45145 -0.160465,-0.91778 -0.511719,-1.24219 -0.351254,-0.32441 -0.828031,-0.42985 -1.279297,-0.41211 l -7.15625,0.28321 -0.175781,-4.44922 9.130859,-0.35938 c 0.451422,-0.0178 0.917245,-0.16097 1.242188,-0.51172 0.324942,-0.35074 0.43185,-0.82729 0.414062,-1.27929 l -0.117187,-2.96094 c -0.01777,-0.45145 -0.160465,-0.91778 -0.511719,-1.24219 -0.351254,-0.32441 -0.828026,-0.42985 -1.279297,-0.41211 z"
       id="path6904" /><path
       id="path6906"
       style="font-style:normal;font-variant:normal;font-weight:normal;font-stretch:normal;font-size:medium;line-height:25.27969551px;font-family:Jumpman;-inkscape-font-specification:Jumpman;letter-spacing:0px;word-spacing:0px;fill:url(#linearGradient6914);fill-opacity:1;stroke:none;stroke-width:1.01118779px;stroke-linecap:butt;stroke-linejoin:miter;stroke-opacity:1"
       d="m 34.230924,289.89059 0.388352,9.86724 q 0.03883,0.98672 -0.947889,1.02556 l -2.960172,0.11651 q -0.986724,0.0388 -1.025559,-0.9479 l -0.932045,-23.68137 q -0.03883,-0.98673 0.947889,-1.02556 l 13.814137,-0.5437 q 0.986724,-0.0388 1.025559,0.9479 l 0.116506,2.96016 q 0.03883,0.98673 -0.947889,1.02557 l -9.867241,0.38835 0.233011,5.92034 7.893793,-0.31068 q 0.986724,-0.0388 1.025559,0.94789 l 0.07767,1.97344 q 0.03884,0.98673 -0.947888,1.02557 z"
       inkscape:connector-curvature="0" /><path
       style="font-style:normal;font-variant:normal;font-weight:normal;font-stretch:normal;font-size:medium;line-height:25.27969551px;font-family:Jumpman;-inkscape-font-specification:Jumpman;letter-spacing:0px;word-spacing:0px;fill:url(#linearGradient6920);fill-opacity:1;stroke:none;stroke-width:3.82181215px;stroke-linecap:butt;stroke-linejoin:miter;stroke-opacity:1"
       d="m 158.625,1079.5586 -29.83594,1.1738 0.14258,5.3418 33.64648,-0.9746 -0.0781,-1.959 c -0.0978,-2.4861 -1.38877,-3.6798 -3.875,-3.582 z"
       transform="scale(0.26458333)"
       id="path6908"
       inkscape:connector-curvature="0"
       sodipodi:nodetypes="cccccc" /><path
       style="font-style:normal;font-variant:normal;font-weight:normal;font-stretch:normal;font-size:medium;line-height:25.27969551px;font-family:Jumpman;-inkscape-font-specification:Jumpman;letter-spacing:0px;word-spacing:0px;fill:url(#linearGradient6922);fill-opacity:1;stroke:none;stroke-width:3.82181215px;stroke-linecap:butt;stroke-linejoin:miter;stroke-opacity:1"
       d="m 109.29769,1041.9946 h -0.2207 l -0.13388,0.2472 c -0.2079,0.5342 -0.297,1.1782 -0.26733,1.9322 l 3.52149,89.5058 c 0.0352,0.895 0.22529,1.6225 0.57017,2.1825 l 0.73415,-0.3274 3.08283,-1.0825 -5.75938,-91.7561 z"
       transform="scale(0.26458333)"
       id="path6910"
       inkscape:connector-curvature="0"
       sodipodi:nodetypes="cccccccccc" /></g></svg>