<?xml version="1.0" encoding="UTF-8" standalone="no"?>
<!-- Created with Inkscape (http://www.inkscape.org/) -->

<svg
   xmlns:dc="http://purl.org/dc/elements/1.1/"
   xmlns:cc="http://creativecommons.org/ns#"
   xmlns:rdf="http://www.w3.org/1999/02/22-rdf-syntax-ns#"
   xmlns:svg="http://www.w3.org/2000/svg"
   xmlns="http://www.w3.org/2000/svg"
   xmlns:xlink="http://www.w3.org/1999/xlink"
   xmlns:sodipodi="http://sodipodi.sourceforge.net/DTD/sodipodi-0.dtd"
   xmlns:inkscape="http://www.inkscape.org/namespaces/inkscape"
   width="287.04803"
   height="197.42957"
   viewBox="0 0 75.948123 52.236574"
   version="1.1"
   id="svg9136"
   inkscape:version="0.92.0 r15299"
   sodipodi:docname="All_games_udb.svg">
  <defs
     id="defs9130">
    <linearGradient
       inkscape:collect="always"
       xlink:href="#linearGradient5016"
       id="linearGradient7595"
       gradientUnits="userSpaceOnUse"
       x1="-938.11603"
       y1="-200.34273"
       x2="-938.11603"
       y2="48.2178"
       gradientTransform="translate(-1011.3479,-237.33533)" />
    <linearGradient
       inkscape:collect="always"
       id="linearGradient5016">
      <stop
         style="stop-color:#78c9f2;stop-opacity:1"
         offset="0"
         id="stop5012" />
      <stop
         id="stop5065"
         offset="0.88341808"
         style="stop-color:#71c2eb;stop-opacity:1" />
      <stop
         id="stop5059"
         offset="0.95896375"
         style="stop-color:#7dcef7;stop-opacity:1" />
      <stop
         style="stop-color:#6cbde6;stop-opacity:1"
         offset="1"
         id="stop5014" />
    </linearGradient>
    <linearGradient
       inkscape:collect="always"
       xlink:href="#linearGradient5024"
       id="linearGradient7597"
       gradientUnits="userSpaceOnUse"
       x1="-919.54083"
       y1="19.240137"
       x2="-919.54083"
       y2="28.327301"
       gradientTransform="translate(-1011.3479,-237.33533)" />
    <linearGradient
       inkscape:collect="always"
       id="linearGradient5024">
      <stop
         style="stop-color:#7fd0f9;stop-opacity:1"
         offset="0"
         id="stop5020" />
      <stop
         id="stop5063"
         offset="0.0441185"
         style="stop-color:#7ecff8;stop-opacity:1" />
      <stop
         style="stop-color:#6bbce5;stop-opacity:1"
         offset="1"
         id="stop5022" />
    </linearGradient>
    <linearGradient
       inkscape:collect="always"
       xlink:href="#linearGradient5055"
       id="linearGradient7599"
       gradientUnits="userSpaceOnUse"
       x1="-920.60986"
       y1="29.129118"
       x2="-920.60986"
       y2="37.149174"
       gradientTransform="translate(-1011.3479,-237.33533)" />
    <linearGradient
       inkscape:collect="always"
       id="linearGradient5055">
      <stop
         style="stop-color:#7ecff8;stop-opacity:1"
         offset="0"
         id="stop5051" />
      <stop
         style="stop-color:#6bbce5;stop-opacity:1"
         offset="1"
         id="stop5053" />
    </linearGradient>
  </defs>
  <sodipodi:namedview
     id="base"
     pagecolor="#ffffff"
     bordercolor="#666666"
     borderopacity="1.0"
     inkscape:pageopacity="0.0"
     inkscape:pageshadow="2"
     inkscape:zoom="0.35"
     inkscape:cx="-182.19028"
     inkscape:cy="593.00052"
     inkscape:document-units="px"
     inkscape:current-layer="layer1"
     showgrid="false"
     units="px"
     inkscape:window-width="1920"
     inkscape:window-height="1137"
     inkscape:window-x="1912"
     inkscape:window-y="-8"
     inkscape:window-maximized="1"
     fit-margin-top="0"
     fit-margin-left="0"
     fit-margin-right="0"
     fit-margin-bottom="0" />
  <metadata
     id="metadata9133">
    <rdf:RDF>
      <cc:Work
         rdf:about="">
        <dc:format>image/svg+xml</dc:format>
        <dc:type
           rdf:resource="http://purl.org/dc/dcmitype/StillImage" />
        <dc:title></dc:title>
      </cc:Work>
    </rdf:RDF>
  </metadata>
  <g
     inkscape:label="Layer 1"
     inkscape:groupmode="layer"
     id="layer1"
     transform="translate(-15.69856,-253.49479)">
    <g
       transform="translate(125.22229,189.00041)"
       id="g8379">
      <g
         transform="translate(-238.125,2.2678571)"
         id="g8266">
        <g
           id="g7835"
           transform="matrix(0.12498628,0,0,0.12498628,431.04864,122.5993)">
          <path
             inkscape:connector-curvature="0"
             id="path7545"
             d="m -2285.8346,-483.03498 c -10.3069,0 -18.6045,8.29755 -18.6045,18.60454 v 25.0238 7.29309 226.95979 c 0,8.88404 7.1522,16.03623 16.0362,16.03623 h 344.7774 c 8.8841,0 16.0363,-7.15219 16.0363,-16.03623 v -234.25288 c 0,-8.88404 -7.1522,-16.03623 -16.0363,-16.03623 h -213.773 -4.6271 c -5.7326,0 -14.4514,-3.8991 -17.6165,-14.57431 -3.165,-10.67521 -15.4227,-13.00902 -18.1017,-13.00902 h 35.7182 v -0.009 z"
             style="color:#000000;clip-rule:nonzero;display:inline;overflow:visible;visibility:visible;opacity:1;isolation:auto;mix-blend-mode:normal;color-interpolation:sRGB;color-interpolation-filters:linearRGB;solid-color:#000000;solid-opacity:1;vector-effect:none;fill:#9bdcfc;fill-opacity:1;fill-rule:nonzero;stroke:none;stroke-width:0.28771281;stroke-linecap:butt;stroke-linejoin:miter;stroke-miterlimit:4;stroke-dasharray:none;stroke-dashoffset:0;stroke-opacity:1;color-rendering:auto;image-rendering:auto;shape-rendering:auto;text-rendering:auto;enable-background:accumulate" />
          <path
             inkscape:connector-curvature="0"
             id="path7547"
             d="m -2285.0985,-437.67806 c -10.7147,0 -19.3409,8.62619 -19.3409,19.34094 v 32.0337 138.82408 48.20584 c 0,5.62656 4.5299,10.15597 10.1565,10.15597 h 356.5374 c 5.6265,0 10.1564,-4.52941 10.1564,-10.15597 v -48.20584 -138.82408 -32.0337 c 0,-10.71475 -8.6261,-19.34094 -19.3409,-19.34094 z"
             style="color:#000000;clip-rule:nonzero;display:inline;overflow:visible;visibility:visible;opacity:1;isolation:auto;mix-blend-mode:normal;color-interpolation:sRGB;color-interpolation-filters:linearRGB;solid-color:#000000;solid-opacity:1;vector-effect:none;fill:url(#linearGradient7595);fill-opacity:1;fill-rule:nonzero;stroke:none;stroke-width:0.24292879;stroke-linecap:butt;stroke-linejoin:miter;stroke-miterlimit:4;stroke-dasharray:none;stroke-dashoffset:0;stroke-opacity:1;color-rendering:auto;image-rendering:auto;shape-rendering:auto;text-rendering:auto;enable-background:accumulate" />
          <rect
             style="color:#000000;clip-rule:nonzero;display:inline;overflow:visible;visibility:visible;opacity:1;isolation:auto;mix-blend-mode:normal;color-interpolation:sRGB;color-interpolation-filters:linearRGB;solid-color:#000000;solid-opacity:1;vector-effect:none;fill:url(#linearGradient7597);fill-opacity:1;fill-rule:nonzero;stroke:none;stroke-width:0.56795168;stroke-linecap:butt;stroke-linejoin:miter;stroke-miterlimit:4;stroke-dasharray:none;stroke-dashoffset:0;stroke-opacity:1;color-rendering:auto;image-rendering:auto;shape-rendering:auto;text-rendering:auto;enable-background:accumulate"
             id="rect7549"
             width="376.85016"
             height="9.0871639"
             x="-2304.4395"
             y="-218.0952"
             rx="0"
             ry="0" />
          <rect
             ry="0"
             rx="0"
             y="-208.13939"
             x="-2304.4395"
             height="7.9532351"
             width="376.85016"
             id="rect7551"
             style="color:#000000;clip-rule:nonzero;display:inline;overflow:visible;visibility:visible;opacity:1;isolation:auto;mix-blend-mode:normal;color-interpolation:sRGB;color-interpolation-filters:linearRGB;solid-color:#000000;solid-opacity:1;vector-effect:none;fill:url(#linearGradient7599);fill-opacity:1;fill-rule:nonzero;stroke:none;stroke-width:0.53133583;stroke-linecap:butt;stroke-linejoin:miter;stroke-miterlimit:4;stroke-dasharray:none;stroke-dashoffset:0;stroke-opacity:1;color-rendering:auto;image-rendering:auto;shape-rendering:auto;text-rendering:auto;enable-background:accumulate" />
          <rect
             ry="0"
             rx="0"
             y="-209.00803"
             x="-2304.4395"
             height="0.86863708"
             width="376.85016"
             id="rect7553"
             style="color:#000000;clip-rule:nonzero;display:inline;overflow:visible;visibility:visible;opacity:1;isolation:auto;mix-blend-mode:normal;color-interpolation:sRGB;color-interpolation-filters:linearRGB;solid-color:#000000;solid-opacity:1;vector-effect:none;fill:#65b5de;fill-opacity:1;fill-rule:nonzero;stroke:none;stroke-width:0.17559671;stroke-linecap:butt;stroke-linejoin:miter;stroke-miterlimit:4;stroke-dasharray:none;stroke-dashoffset:0;stroke-opacity:1;color-rendering:auto;image-rendering:auto;shape-rendering:auto;text-rendering:auto;enable-background:accumulate" />
          <rect
             style="color:#000000;clip-rule:nonzero;display:inline;overflow:visible;visibility:visible;opacity:1;isolation:auto;mix-blend-mode:normal;color-interpolation:sRGB;color-interpolation-filters:linearRGB;solid-color:#000000;solid-opacity:1;vector-effect:none;fill:#65b5de;fill-opacity:1;fill-rule:nonzero;stroke:none;stroke-width:0.17559671;stroke-linecap:butt;stroke-linejoin:miter;stroke-miterlimit:4;stroke-dasharray:none;stroke-dashoffset:0;stroke-opacity:1;color-rendering:auto;image-rendering:auto;shape-rendering:auto;text-rendering:auto;enable-background:accumulate"
             id="rect7555"
             width="376.85016"
             height="0.86863708"
             x="-2304.4395"
             y="-200.18616"
             rx="0"
             ry="0" />
          <g
             style="fill:none;fill-opacity:1"
             id="g7591"
             transform="matrix(0.35277777,0,0,-0.35277777,-1690.1846,-530.78142)">
            <path
               sodipodi:nodetypes="ccccccszcccc"
               id="path7557"
               d="m -1138.8925,-755.01323 c -14.3586,-0.24237 -60.0793,2.95326 -102.6372,14.66719 -49.7428,13.68642 -111.5302,13.63132 -161.295,0 -42.8886,-11.74695 -82.8789,-14.92065 -102.6372,-14.66719 -75.3085,0.96974 -131.9716,76.59773 -131.9716,153.96688 v 0 c 0,84.67514 69.2807,153.96687 153.9669,153.96687 0,0 116.4403,-8.77723 170.282,-8.61692 53.8416,0.1603 152.3078,8.61692 152.3078,8.61692 84.6752,-0.01 151.5646,-69.29173 151.5646,-153.96687 v 0 c 0,-77.36915 -54.2719,-152.68859 -129.5803,-153.96688 z"
               style="fill:#5ba8cf;fill-opacity:1;stroke-width:11.01967144"
               inkscape:connector-curvature="0" />
            <path
               d="m -1505.4395,-753.4082 c -74.2446,0.95604 -130.3886,75.77576 -130.3886,152.36132 0,83.79317 68.54,152.34857 152.3418,152.35938 0.1818,-0.0137 116.3239,-8.77596 170.3047,-8.61523 53.9548,0.16063 152.1614,8.5999 152.3398,8.61523 83.783,-0.0293 149.9238,-68.54129 149.9238,-152.35938 0,-38.30932 -13.456,-76.15496 -36.1953,-104.51367 -22.7393,-28.35871 -54.6807,-47.21747 -91.8066,-47.84765 -14.0631,-0.23738 -59.8372,2.95366 -102.1836,14.60937 -50.0716,13.77689 -112.0544,13.72045 -162.1445,0 -42.7146,-11.69927 -82.6328,-14.86027 -102.1915,-14.60937 z"
               id="path7559"
               style="fill:#64b4dd;fill-opacity:1;stroke-width:11.01967144"
               inkscape:original="M -1505.4609 -755.01367 C -1580.7694 -754.04393 -1637.4336 -678.41602 -1637.4336 -601.04688 C -1637.4336 -516.37173 -1568.153 -447.08008 -1483.4668 -447.08008 C -1483.4668 -447.08008 -1367.0272 -455.85758 -1313.1855 -455.69727 C -1259.3439 -455.53697 -1160.877 -447.08008 -1160.877 -447.08008 C -1076.2018 -447.09008 -1009.3125 -516.37174 -1009.3125 -601.04688 C -1009.3125 -678.41602 -1063.5842 -753.73538 -1138.8926 -755.01367 C -1153.2512 -755.25604 -1198.9714 -752.05963 -1241.5293 -740.3457 C -1291.2721 -726.65928 -1353.0594 -726.71438 -1402.8242 -740.3457 C -1445.7128 -752.09265 -1485.7026 -755.26713 -1505.4609 -755.01367 z "
               inkscape:radius="-1.6048466"
               sodipodi:type="inkscape:offset" />
            <g
               id="g7565"
               transform="matrix(1.6931476,0,0,1.6931476,-1918.742,-1216.5428)"
               style="fill:#7acbf4;fill-opacity:1">
              <rect
                 ry="6.0609155"
                 rx="6.0609155"
                 transform="scale(1,-1)"
                 y="-435.7717"
                 x="312.80682"
                 height="12.121831"
                 width="36.744305"
                 id="rect7561"
                 style="color:#000000;clip-rule:nonzero;display:inline;overflow:visible;visibility:visible;opacity:1;isolation:auto;mix-blend-mode:normal;color-interpolation:sRGB;color-interpolation-filters:linearRGB;solid-color:#000000;solid-opacity:1;vector-effect:none;fill:#7acbf4;fill-opacity:1;fill-rule:nonzero;stroke:none;stroke-width:1.35964835;stroke-linecap:butt;stroke-linejoin:miter;stroke-miterlimit:4;stroke-dasharray:none;stroke-dashoffset:0;stroke-opacity:1;color-rendering:auto;image-rendering:auto;shape-rendering:auto;text-rendering:auto;enable-background:accumulate" />
              <rect
                 style="color:#000000;clip-rule:nonzero;display:inline;overflow:visible;visibility:visible;opacity:1;isolation:auto;mix-blend-mode:normal;color-interpolation:sRGB;color-interpolation-filters:linearRGB;solid-color:#000000;solid-opacity:1;vector-effect:none;fill:#7acbf4;fill-opacity:1;fill-rule:nonzero;stroke:none;stroke-width:1.35964835;stroke-linecap:butt;stroke-linejoin:miter;stroke-miterlimit:4;stroke-dasharray:none;stroke-dashoffset:0;stroke-opacity:1;color-rendering:auto;image-rendering:auto;shape-rendering:auto;text-rendering:auto;enable-background:accumulate"
                 id="rect7563"
                 width="36.744305"
                 height="12.121831"
                 x="353.71808"
                 y="-435.7717"
                 transform="scale(1,-1)"
                 rx="6.0609155"
                 ry="6.0609155" />
            </g>
            <g
               style="fill:#7acbf4;fill-opacity:1"
               transform="matrix(4.7994737,0,0,-4.7994737,2379.2987,-2153.1563)"
               id="g7583">
              <g
                 style="fill:#7acbf4;fill-opacity:1"
                 id="g7569"
                 transform="matrix(0.35277777,0,0,-0.35277777,-729.79649,-334.45074)">
                <path
                   d="m 0,0 c 0,-8.98 -7.281,-16.261 -16.261,-16.261 -8.98,0 -16.26,7.281 -16.26,16.261 0,8.979 7.28,16.261 16.26,16.261 C -7.281,16.261 0,8.979 0,0"
                   style="fill:#7acbf4;fill-opacity:1;fill-rule:nonzero;stroke:none"
                   id="path7567"
                   inkscape:connector-curvature="0" />
              </g>
              <g
                 style="fill:#7acbf4;fill-opacity:1"
                 id="g7573"
                 transform="matrix(0.35277777,0,0,-0.35277777,-729.79649,-312.33013)">
                <path
                   d="m 0,0 c 0,-8.98 -7.281,-16.262 -16.261,-16.262 -8.98,0 -16.26,7.282 -16.26,16.262 0,8.98 7.28,16.262 16.26,16.262 C -7.281,16.262 0,8.98 0,0"
                   style="fill:#7acbf4;fill-opacity:1;fill-rule:nonzero;stroke:none"
                   id="path7571"
                   inkscape:connector-curvature="0" />
              </g>
              <g
                 style="fill:#7acbf4;fill-opacity:1"
                 id="g7577"
                 transform="matrix(0.35277777,0,0,-0.35277777,-715.21202,-323.80299)">
                <path
                   d="m 0,0 c 0,-8.98 -7.281,-16.26 -16.261,-16.26 -8.981,0 -16.26,7.28 -16.26,16.26 0,8.981 7.279,16.262 16.26,16.262 C -7.281,16.262 0,8.981 0,0"
                   style="fill:#7acbf4;fill-opacity:1;fill-rule:nonzero;stroke:none"
                   id="path7575"
                   inkscape:connector-curvature="0" />
              </g>
              <g
                 style="fill:#7acbf4;fill-opacity:1"
                 id="g7581"
                 transform="matrix(0.35277777,0,0,-0.35277777,-743.79736,-323.36682)">
                <path
                   d="m 0,0 c 0,-8.981 -7.281,-16.262 -16.262,-16.262 -8.98,0 -16.26,7.281 -16.26,16.262 0,8.979 7.28,16.26 16.26,16.26 C -7.281,16.26 0,8.979 0,0"
                   style="fill:#7acbf4;fill-opacity:1;fill-rule:nonzero;stroke:none"
                   id="path7579"
                   inkscape:connector-curvature="0" />
              </g>
            </g>
            <g
               style="fill:#5e829b;fill-opacity:1"
               id="g7587"
               transform="matrix(1.6931476,0,0,1.6931476,-1427.7788,-589.0378)">
              <path
                 d="M 0,0 C -0.024,3.652 -3.007,6.594 -6.66,6.568 L -23.379,6.451 v 17.597 c 0,3.653 -2.961,6.614 -6.614,6.614 h -13.23 c -3.653,0 -6.614,-2.961 -6.614,-6.614 V 6.266 L -68.946,6.132 c -3.653,-0.025 -6.595,-3.007 -6.569,-6.661 l 0.094,-13.229 c 0.025,-3.652 3.007,-6.594 6.66,-6.568 l 18.924,0.133 V -38.24 c 0,-3.653 2.961,-6.615 6.614,-6.615 h 13.23 c 3.653,0 6.614,2.962 6.614,6.615 v 18.232 l 16.904,0.118 c 3.653,0.025 6.594,3.007 6.569,6.661 z"
                 style="fill:#7acbf4;fill-opacity:1;fill-rule:nonzero;stroke:none"
                 id="path7585"
                 inkscape:connector-curvature="0" />
            </g>
            <path
               d="m -1411.4788,-601.05327 c 0,-44.26734 -35.8829,-80.15022 -80.1502,-80.15022 -44.264,0 -80.1485,35.88288 -80.1485,80.15022 0,44.26734 35.8845,80.15022 80.1485,80.15022 44.2673,0 80.1502,-35.88288 80.1502,-80.15022 z"
               style="fill:none;stroke:#7acbf4;stroke-width:5.07944298;stroke-linecap:butt;stroke-linejoin:miter;stroke-miterlimit:4;stroke-dasharray:none;stroke-opacity:1"
               id="path7589"
               inkscape:connector-curvature="0" />
          </g>
        </g>
        <g
           id="g4734"
           transform="matrix(0.0386097,0,0,0.0386097,177.38292,74.023511)"
           style="fill:#f4c401;fill-opacity:1">
          <g
             id="g4678"
             style="fill:#f4c401;fill-opacity:1">
            <path
               id="path4676"
               d="m 421.833,285.36 c -2.573,-9.801 -8.233,-17.179 -16.991,-22.128 l -75.944,-43.966 75.944,-43.968 c 8.758,-4.949 14.421,-12.322 16.991,-22.126 2.566,-9.803 1.379,-19.082 -3.572,-27.836 L 399.99,93.932 c -4.948,-8.757 -12.319,-14.419 -22.127,-16.989 -9.802,-2.565 -19.072,-1.376 -27.833,3.576 l -75.944,43.677 v -87.65 c 0,-9.899 -3.621,-18.464 -10.855,-25.697 C 256,3.616 247.433,0 237.537,0 h -36.54 c -9.9,0 -18.464,3.619 -25.697,10.849 -7.232,7.232 -10.85,15.798 -10.85,25.697 v 87.65 L 88.505,80.516 C 79.748,75.564 70.469,74.371 60.668,76.94 50.865,79.513 43.489,85.172 38.54,93.929 l -18.271,31.405 c -4.952,8.754 -6.14,18.033 -3.571,27.836 2.574,9.801 8.232,17.178 16.989,22.126 l 75.945,43.972 -75.945,43.966 c -8.757,4.949 -14.419,12.323 -16.989,22.128 -2.568,9.801 -1.377,19.075 3.571,27.829 l 18.272,31.408 c 4.947,8.761 12.32,14.421 22.126,16.995 9.805,2.562 19.08,1.375 27.837,-3.58 l 75.945,-43.681 v 87.655 c 0,9.891 3.617,18.466 10.85,25.694 7.233,7.234 15.8,10.848 25.697,10.848 h 36.54 c 9.896,0 18.466,-3.613 25.693,-10.848 7.238,-7.229 10.855,-15.804 10.855,-25.694 V 314.34 l 75.944,43.681 c 8.761,4.948 18.031,6.143 27.833,3.573 9.804,-2.574 17.179,-8.23 22.127,-16.991 l 18.271,-31.405 c 4.953,-8.76 6.141,-18.037 3.574,-27.838 z"
               inkscape:connector-curvature="0"
               style="fill:#f4c401;fill-opacity:1" />
          </g>
          <g
             id="g4680"
             style="fill:#f4c401;fill-opacity:1" />
          <g
             id="g4682"
             style="fill:#f4c401;fill-opacity:1" />
          <g
             id="g4684"
             style="fill:#f4c401;fill-opacity:1" />
          <g
             id="g4686"
             style="fill:#f4c401;fill-opacity:1" />
          <g
             id="g4688"
             style="fill:#f4c401;fill-opacity:1" />
          <g
             id="g4690"
             style="fill:#f4c401;fill-opacity:1" />
          <g
             id="g4692"
             style="fill:#f4c401;fill-opacity:1" />
          <g
             id="g4694"
             style="fill:#f4c401;fill-opacity:1" />
          <g
             id="g4696"
             style="fill:#f4c401;fill-opacity:1" />
          <g
             id="g4698"
             style="fill:#f4c401;fill-opacity:1" />
          <g
             id="g4700"
             style="fill:#f4c401;fill-opacity:1" />
          <g
             id="g4702"
             style="fill:#f4c401;fill-opacity:1" />
          <g
             id="g4704"
             style="fill:#f4c401;fill-opacity:1" />
          <g
             id="g4706"
             style="fill:#f4c401;fill-opacity:1" />
          <g
             id="g4708"
             style="fill:#f4c401;fill-opacity:1" />
        </g>
      </g>
      <g
         transform="translate(0,0.41702702)"
         id="g8328">
        <path
           inkscape:connector-curvature="0"
           id="path7753"
           d="m -92.191878,97.325008 c -2.0108,0.88256 -1.86233,1.6592 -2.27565,2.45003 -0.41928,0.869752 -0.96427,2.148922 -1.65068,3.864912 v 4.7e-4 c -0.32622,0.80316 -0.58968,1.50117 -0.81452,2.13594 -0.19509,-0.11585 -0.39621,-0.16088 -0.53453,-0.18079 -0.3323,-0.0497 -0.68216,-0.082 -1.05054,-0.098 0,0 0,1e-5 0,0 0,-1e-5 0,-7e-5 -0.001,-7e-5 h -10e-4 c -0.1073,-0.005 -0.22568,-0.01 -0.33631,-0.0147 -0.0133,-0.18952 -0.0237,-0.37235 -0.0304,-0.54674 0,-2.5e-4 1e-5,-3.7e-4 0,-4.6e-4 -10e-6,-2.6e-4 0,-4.7e-4 0,-9.4e-4 -0.0149,-0.40291 -0.0299,-0.76205 -0.0449,-1.07772 -0.0144,-0.30236 -0.0212,-0.54345 -0.0212,-0.71215 v -0.15153 c 0.097,-0.10463 0.18969,-0.21096 0.27282,-0.32119 l -0.0613,0.0716 c 0.20383,-0.20978 0.43423,-0.54292 0.43423,-0.97936 0,-0.31756 -0.10205,-0.60884 -0.251,-0.84946 -0.13991,-0.2311 -0.31969,-0.43592 -0.52949,-0.60487 -0.28286,-0.2446 -0.65513,-0.402262 -1.053892,-0.402262 -0.29046,0 -0.53663,0.0746 -0.77196,0.163152 -0.4812,0.15694 -0.80162,0.48975 -1.0971,0.85476 -0.001,0.001 -0.002,0.003 -0.004,0.004 -0.2452,0.3065 -0.69715,0.88475 -1.36294,1.74286 -0.65687,0.83201 -1.52502,1.92064 -2.58801,3.24589 -0.16309,0.0499 -0.32113,0.11198 -0.47633,0.18957 v 2.4e-4 c -0.0112,0.006 -0.0225,0.0115 -0.0335,0.0176 -10e-4,4.7e-4 -0.002,9.3e-4 -0.003,0.001 -0.35085,0.1949 -0.56918,0.47161 -0.78023,0.7706 -0.001,9.4e-4 -0.001,0.002 -0.002,0.003 -0.13582,0.19402 -0.26051,0.40133 -0.3345,0.66002 -2e-5,10e-5 0,1.3e-4 0,2.5e-4 -2e-5,7e-5 0,1.3e-4 0,2.6e-4 -0.01,0.0341 -0.0176,0.0687 -0.0234,0.10372 v 3.8e-4 c -0.0152,0.0913 -0.0241,0.18397 -0.0294,0.2776 -0.0967,0.1315 -0.19322,0.25957 -0.28877,0.379 l 0.0247,-0.0293 c -0.13718,0.15465 -0.32821,0.38316 -0.59285,0.70654 -0.56805,0.64783 -1.0192,1.20761 -1.0192,1.98312 0,0.41499 0.15645,0.78763 0.36808,1.09342 v 3.8e-4 c 0.008,0.012 0.0169,0.0238 0.0257,0.0355 10e-4,9.3e-4 10e-4,0.002 0.002,0.003 0.30225,0.39294 0.78411,0.65783 1.30468,0.65783 0.26929,0 0.52726,-0.0526 0.77474,-0.13389 0.20876,-0.0554 0.41318,-0.12582 0.61037,-0.21495 0.19514,-0.082 0.37585,-0.16699 0.54273,-0.25971 0.001,-4.6e-4 0.002,-9.3e-4 0.003,-0.001 0.008,-0.005 0.0164,-0.009 0.0244,-0.0142 0,-1.3e-4 0,-2.5e-4 0.001,-4.7e-4 0.1751,-0.10509 0.3309,-0.20938 0.47382,-0.32843 0.008,-0.006 0.0154,-0.013 0.0229,-0.0197 v -3.8e-4 c 0.20329,-0.1807 0.4417,-0.45625 0.51716,-0.84372 0.0394,-0.15386 0.0668,-0.31493 0.0668,-0.48499 v -0.35627 c 0,-0.0404 0.005,-0.0616 0.008,-0.0747 v -9.3e-4 c 0.003,-0.01 0.005,-0.0196 0.008,-0.0294 0.006,-0.0241 0.0522,-0.14616 0.15914,-0.30661 0.14979,-0.22467 0.26271,-0.39766 0.34581,-0.53046 l -0.0119,0.0184 c 0.0268,-0.0402 0.0342,-0.0458 0.0654,-0.0607 0.10651,-0.0444 0.31603,-0.10681 0.60249,-0.15662 l -0.003,4.6e-4 c 0.0104,-0.002 0.0206,-0.004 0.0309,-0.006 10e-4,-1.3e-4 10e-4,-3.8e-4 0.002,-4.7e-4 0.32442,-0.0676 0.63039,-0.11375 0.91722,-0.13983 0.10401,-0.009 0.21368,-0.0189 0.31926,-0.0284 0.0116,0.16293 0.0232,0.34524 0.0349,0.49682 0.0321,0.41702 0.0885,0.82755 0.16846,1.23099 0.0934,0.5369 0.27221,1.05375 0.68909,1.43858 l 0.001,9.3e-4 c 0.008,0.008 0.0167,0.015 0.0252,0.0224 0.35747,0.30639 0.82106,0.49442 1.30437,0.49442 0.311292,0 0.617192,-0.0601 0.909472,-0.16347 0.31477,-0.10613 0.61064,-0.26219 0.86819,-0.47292 0.22865,-0.18708 0.41898,-0.41482 0.57019,-0.66675 0.0767,0.19093 0.17591,0.3729 0.29963,0.5408 0,3.8e-4 10e-4,9.3e-4 10e-4,0.001 0.006,0.008 0.0122,0.0162 0.0186,0.0242 0.37182,0.47066 0.94867,0.78146 1.56401,0.78146 0.69876,0 1.39317,-0.21449 2.07284,-0.58046 0.4179,-0.22503 0.81683,-0.4813 1.19953,-0.7624 0.0764,0.18913 0.17484,0.36949 0.29751,0.53595 0,3.8e-4 0.001,9.3e-4 0.001,10e-4 0.006,0.008 0.0122,0.0163 0.0186,0.0242 0.37187,0.47069 0.94874,0.78146 1.56407,0.78146 0.69878,0 1.39319,-0.21449 2.07284,-0.58046 0.63664,-0.34281 1.23343,-0.75165 1.78723,-1.22363 0.5577,-0.46282 1.05145,-0.95537 1.47734,-1.47882 0.42443,-0.50377 0.74458,-0.9458 0.96184,-1.38032 0.24117,-0.48236 0.44804,-1.07927 0.16903,-1.68491 -3e-5,-7e-5 0,-1.3e-4 0,-2.5e-4 -0.0142,-0.0308 -0.0299,-0.0607 -0.0473,-0.0898 v -9.3e-4 c -0.2277,-0.37944 -0.57905,-0.56954 -1.00959,-0.56954 -0.48298,0 -0.82823,0.32986 -0.97742,0.50036 0,2.5e-4 -10e-4,4.7e-4 -10e-4,9.4e-4 -0.005,0.005 -0.01,0.0109 -0.0141,0.0164 -0.35396,0.42474 -0.71337,0.81923 -1.07792,1.18377 -0.34801,0.34802 -0.68444,0.64956 -1.00706,0.90514 -0.0864,0.0676 -0.16287,0.12073 -0.24356,0.17989 0.11718,-0.36799 0.24064,-0.75933 0.3874,-1.2361 0.18796,-0.56376 0.40601,-1.18151 0.65343,-1.8513 0.26206,-0.66942 0.55362,-1.37685 0.87518,-2.12231 0,-10e-4 0.001,-0.003 0.002,-0.004 0,-9.3e-4 0.001,-0.001 0.001,-0.002 0.31624,-0.74746 0.67674,-1.51197 1.08186,-2.29327 2e-5,-7e-5 0,-1.3e-4 0,-2.6e-4 0,-4.6e-4 10e-4,-9.3e-4 10e-4,-0.001 0.26336,-0.51025 0.45286,-0.950192 0.48204,-1.446202 v -0.004 c 0.0386,-0.69945 -0.39026,-1.23594 -0.85826,-1.63208 l 0.0432,0.0395 c -0.29127,-0.28813 -0.68179,-0.42706 -1.06235,-0.42706 -0.55723,0 -1.01796,0.31584 -1.3158,0.68813 -0.001,0.001 -0.002,0.003 -0.004,0.004 0,9.3e-4 -10e-4,10e-4 -0.002,0.002 -0.29994,0.38174 -0.54852,0.89789 -0.95475,1.75539 0,-4.7e-4 -0.006,0.0119 0,3.7e-4 v 9.3e-4 2.6e-4 4.6e-4 4.7e-4 c -0.41914,0.869702 -0.96373,2.147962 -1.64958,3.862582 v 4.7e-4 c -0.38993,0.96001 -0.70719,1.79756 -0.95242,2.51791 -10e-4,0.002 -10e-4,0.004 -0.002,0.006 -0.002,0.006 -0.004,0.0113 -0.005,0.0171 -0.065,0.20376 -0.12144,0.3873 -0.17788,0.57089 -0.14823,0.1605 -0.29644,0.31983 -0.44463,0.46801 -0.34796,0.34798 -0.68445,0.64952 -1.00713,0.90514 -0.0863,0.0675 -0.16286,0.12073 -0.24355,0.17988 0.11717,-0.36793 0.24068,-0.75924 0.38746,-1.23609 0.18799,-0.56384 0.40597,-1.18157 0.65337,-1.8513 0.26205,-0.66937 0.55367,-1.37681 0.87524,-2.12231 0,-9.4e-4 0.001,-0.001 0.001,-0.002 0,-0.001 10e-4,-0.002 10e-4,-0.004 0.31627,-0.74754 0.67676,-1.5121 1.08192,-2.29348 0,-4.6e-4 10e-4,-9.3e-4 10e-4,-10e-4 0.2634,-0.51033 0.45278,-0.950372 0.48196,-1.446202 v -0.004 c 0.0385,-0.69934 -0.39008,-1.23589 -0.85813,-1.63209 l 0.0431,0.0395 c -0.29134,-0.2882 -0.68191,-0.42706 -1.06241,-0.42706 z m -9.818612,3.600812 c 0.0355,-0.0423 -0.01,0.0115 0,0 z m 11.697172,-1.623702 -0.001,0.0315 c 0,-0.009 0.001,-0.0188 0.001,-0.0282 v -0.003 z m 5.15345,0 -10e-4,0.0315 c 0,-0.009 10e-4,-0.0188 10e-4,-0.0282 v -0.003 z m 11.27623,0.740322 c -1.13406,-0.0505 -2.32627,0.47545 -3.19098,0.87621 -1.04778,0.50164 -1.91281,1.20849 -2.70317,1.97305 v 1.2e-4 c -1e-5,2e-5 0,3e-5 0,7e-5 -0.5936,0.57758 -1.10589,1.19417 -1.53203,1.84884 -0.42603,0.6397 -0.7606,1.30615 -0.99615,1.99598 v 9.3e-4 c -0.002,0.006 -0.004,0.0126 -0.006,0.019 v 3.8e-4 c -3e-5,1e-4 0,1.2e-4 0,2.5e-4 -0.21959,0.69275 -0.33341,1.39218 -0.33341,2.08814 0,0.60205 0.13578,1.21094 0.37907,1.81939 v 9.4e-4 c 0.004,0.01 0.008,0.0195 0.0122,0.0292 0,10e-4 0.001,0.002 0.001,0.004 0.0894,0.20108 0.20231,0.39247 0.33366,0.5802 v 2.4e-4 c 0.0115,0.0164 0.0234,0.0325 0.036,0.0482 v 9.3e-4 c 0.15235,0.19043 0.32183,0.36878 0.50644,0.53492 v 3.8e-4 c 0.0242,0.0218 0.0496,0.0423 0.0759,0.0614 2e-5,2e-5 0,4e-5 0,7e-5 v 1.2e-4 c 0.11861,0.0863 0.24258,0.16308 0.36977,0.23336 -0.022,0.009 -0.0448,0.0157 -0.0665,0.0248 -0.001,4.7e-4 -0.002,9.3e-4 -0.004,0.001 -0.008,0.004 -0.0166,0.007 -0.0248,0.011 -0.3232,0.14712 -0.57853,0.36793 -0.81555,0.62043 -0.31439,0.31716 -0.52896,0.77406 -0.49095,1.26794 0.0352,0.45796 0.27234,0.87114 0.61056,1.14786 0.003,0.002 0.005,0.004 0.008,0.007 0.22912,0.1833 0.48738,0.3264 0.77016,0.4516 0.28663,0.14145 0.58818,0.25674 0.90281,0.34413 0.29846,0.0829 0.59825,0.14958 0.89902,0.19971 0.30884,0.0515 0.60434,0.0797 0.88988,0.0797 0.33576,0 0.66299,-0.071 0.97787,-0.18679 0.31058,-0.0999 0.61047,-0.24241 0.89818,-0.42176 0.58285,-0.35431 1.11083,-0.81667 1.58228,-1.37231 0.47342,-0.55795 0.83047,-1.13795 1.04123,-1.75112 l -0.002,0.005 c 0.001,-0.003 0.002,-0.006 0.003,-0.008 0,-0.002 0.001,-0.003 0.002,-0.005 0.0782,-0.23461 0.16928,-0.52314 0.27476,-0.86975 0.1056,-0.34696 0.2105,-0.71508 0.31506,-1.10278 0.038,-0.12828 0.0652,-0.2469 0.10031,-0.37262 0,0.0142 -0.002,0.0286 -0.002,0.0428 0,0.34516 0.078,0.69515 0.24873,1.00823 0.01,0.0184 0.0206,0.0365 0.0319,0.0542 v 9.3e-4 c 0.1355,0.21293 0.28826,0.40905 0.46245,0.5833 v 2.5e-4 1.2e-4 c 0.0147,0.0147 0.0298,0.0289 0.0454,0.0426 v 3.8e-4 c 0.1689,0.14779 0.35274,0.2772 0.55534,0.37855 v 2.5e-4 c 0.0123,0.006 0.0246,0.012 0.0371,0.0176 0,2.5e-4 0.001,4.6e-4 0.002,9.3e-4 0.17689,0.0786 0.40604,0.17038 0.69496,0.17038 0.74091,0 1.42432,-0.332 2.09196,-0.82712 0.17614,-0.12421 0.36383,-0.27383 0.57296,-0.45237 0.15498,-0.1241 0.29485,-0.24995 0.43798,-0.37546 0.1166,0.31148 0.28154,0.60217 0.49914,0.85638 0.004,0.005 0.009,0.0102 0.0131,0.0151 0.001,0.002 0.003,0.004 0.005,0.005 0.44413,0.49087 1.08355,0.77816 1.74627,0.77816 0.56343,0 1.10618,-0.18474 1.62079,-0.47795 0.3251,-0.17992 0.6399,-0.3956 0.94687,-0.63872 0.001,0.003 0.003,0.006 0.005,0.01 0.008,0.0199 0.0179,0.0395 0.0281,0.0586 0.13249,0.24291 0.30766,0.48523 0.56902,0.67205 0.0155,0.0111 0.0313,0.0217 0.0475,0.0318 l 10e-4,9.4e-4 c 0.20157,0.12597 0.47628,0.2548 0.81194,0.2548 0.31367,0 0.60061,-0.1001 0.83869,-0.24525 0.27578,-0.15849 0.48855,-0.36382 0.71899,-0.61068 0.006,-0.007 0.0123,-0.0132 0.0182,-0.0199 0.001,-9.3e-4 0.002,-0.002 0.003,-0.003 0.13178,-0.15062 0.32284,-0.38732 0.60616,-0.74516 0,-9.3e-4 10e-4,-0.001 0.002,-0.002 0,-3.8e-4 10e-4,-9.3e-4 10e-4,-9.3e-4 0.16714,-0.20891 0.34993,-0.43355 0.52665,-0.65209 -0.0155,0.30062 -10e-4,0.5951 0.0579,0.88131 0,0.002 10e-4,0.004 10e-4,0.007 0.0637,0.29737 0.17231,0.61064 0.40658,0.88402 0.26127,0.30487 0.64062,0.48544 1.05054,0.48544 0.70622,0 1.24505,-0.40409 1.74653,-0.88828 0.003,-0.003 0.006,-0.006 0.009,-0.009 10e-4,-9.3e-4 0.002,-0.002 0.003,-0.003 0.14328,-0.14329 0.33741,-0.35388 0.60048,-0.64594 0.25687,-0.27054 0.52032,-0.56386 0.78688,-0.8675 0.0488,0.54351 0.19189,1.03649 0.48138,1.46403 v 2.5e-4 3.8e-4 c 0.004,0.005 0.007,0.0109 0.0112,0.0163 v 4.6e-4 c 0.4829,0.68046 1.27109,1.0878 2.10553,1.0878 0.43917,0 0.86582,-0.11512 1.29809,-0.29523 0.46647,-0.19436 0.91645,-0.48349 1.36876,-0.85206 0.12054,-0.0982 0.23977,-0.20382 0.3584,-0.3135 0.12632,0.20264 0.27147,0.39224 0.44011,0.56088 v 6e-5 c 0.27652,0.27653 0.60532,0.49555 0.97025,0.63439 0.35033,0.142 0.72254,0.22096 1.09974,0.22096 0.75328,0 1.50541,-0.12077 2.2451,-0.35608 0.002,-4.6e-4 0.004,-0.001 0.006,-0.002 0.002,-9.3e-4 0.004,-0.001 0.006,-0.002 0.60468,-0.20156 1.18253,-0.45704 1.7342,-0.75988 0.0775,0.26468 0.22395,0.49102 0.39818,0.66532 0.0148,0.0148 0.0301,0.0291 0.0458,0.0429 v 2.5e-4 c 0.18192,0.15918 0.38422,0.293 0.60029,0.40103 v 7e-5 c 0.2219,0.11095 0.45787,0.18898 0.69981,0.23497 0.2237,0.0534 0.44937,0.0873 0.67966,0.0873 0.40171,0 0.78059,-0.10608 1.18017,-0.26171 0.1736,-0.0653 0.33974,-0.15061 0.50714,-0.24867 0.15965,-0.0743 0.31707,-0.15612 0.47124,-0.2466 0.003,-10e-4 0.005,-0.003 0.008,-0.004 0.16512,-0.0901 0.31559,-0.17281 0.45167,-0.24841 10e-4,-3.7e-4 10e-4,-9.3e-4 0.002,-9.3e-4 0.0219,-0.0123 0.0433,-0.0255 0.0642,-0.0395 0.15818,-0.10552 0.30174,-0.21472 0.43421,-0.34394 0.2483,-0.22699 0.42674,-0.49999 0.57563,-0.79773 0.15508,-0.31019 0.27779,-0.64183 0.27779,-1.02321 0,-0.46667 -0.13009,-0.92061 -0.34704,-1.33866 -0.18108,-0.37602 -0.41423,-0.74396 -0.69542,-1.10795 l 0.002,0.002 c -0.15956,-0.20871 -0.28919,-0.40482 -0.39463,-0.58821 -0.0204,-0.0461 -0.032,-0.0816 -0.043,-0.11632 0.0841,-0.0533 0.18491,-0.10988 0.32185,-0.16754 0.20825,-0.0877 0.4506,-0.15843 0.73068,-0.20714 0.01,-0.002 0.0189,-0.003 0.0284,-0.005 0.001,-1.2e-4 0.001,-3.8e-4 0.002,-4.6e-4 0.29737,-0.0619 0.58097,-0.0915 0.85406,-0.0915 0.34223,0 0.70193,-0.0847 1.01313,-0.29207 0.005,-0.003 0.009,-0.006 0.0135,-0.009 10e-4,-9.3e-4 0.003,-0.002 0.004,-0.003 0.41781,-0.29245 0.62522,-0.77609 0.62522,-1.24068 0,-0.25523 -0.059,-0.51513 -0.17955,-0.75323 -0.1363,-0.31415 -0.36529,-0.54479 -0.60151,-0.71015 -0.23382,-0.16367 -0.49534,-0.28253 -0.76932,-0.35511 -0.30404,-0.0957 -0.61812,-0.12717 -0.95197,-0.12717 -0.2559,0 -0.51827,0.0306 -0.79735,0.0829 -0.001,2.5e-4 -0.003,4.7e-4 -0.005,9.3e-4 -0.002,3.8e-4 -0.005,9.3e-4 -0.007,0.001 -0.27795,0.0556 -0.55661,0.13719 -0.83648,0.24214 -0.27581,0.10343 -0.54381,0.22442 -0.80302,0.36266 -10e-4,4.7e-4 -0.003,10e-4 -0.004,0.002 -0.007,0.004 -0.0136,0.007 -0.0203,0.0113 -0.24926,0.14244 -0.48337,0.30449 -0.70117,0.48468 -0.40805,0.31784 -0.77075,0.71238 -1.0942,1.17202 -0.13394,0.19035 -0.24856,0.3908 -0.34096,0.59854 0,-0.0261 0.005,-0.0516 0.005,-0.0777 0,-0.60576 -0.18847,-1.22334 -0.64439,-1.65753 -0.34727,-0.34224 -0.79646,-0.55088 -1.27065,-0.63206 -0.11262,-0.14203 -0.24581,-0.26889 -0.39954,-0.3719 -0.32356,-0.23372 -0.69744,-0.30841 -1.03388,-0.30841 -0.43523,0 -0.84826,0.13822 -1.21322,0.35291 -0.30598,0.17998 -0.59794,0.39311 -0.8757,0.63594 v 2.4e-4 c -0.26465,0.22955 -0.50995,0.48408 -0.73534,0.76137 -10e-4,9.3e-4 -10e-4,10e-4 -0.002,0.002 0.0374,-0.0464 0.0123,-0.0151 0.002,-0.002 -0.19632,0.22744 -0.35725,0.42643 -0.48674,0.6114 -10e-4,0.002 -0.003,0.004 -0.005,0.007 -0.36927,0.53713 -0.68076,1.08755 -0.93756,1.64946 -0.37401,0.46091 -0.71611,0.8601 -1.01507,1.18119 -10e-4,9.3e-4 -0.002,0.002 -0.003,0.003 -0.003,0.003 -0.006,0.007 -0.009,0.01 -0.37036,0.41309 -0.69237,0.74052 -0.95295,0.97502 -0.11323,0.10192 -0.2131,0.18122 -0.30497,0.25119 0.006,-0.0496 0.01,-0.0968 0.0191,-0.15166 10e-4,-0.007 0.002,-0.015 0.004,-0.0225 v -0.002 c 0.0829,-0.59405 0.19326,-1.06568 0.30995,-1.39278 v -9.3e-4 c 10e-4,-0.003 0.002,-0.007 0.004,-0.0101 0.13801,-0.40024 0.26649,-0.68941 0.32791,-0.79689 v -7e-5 c 0.009,-0.0151 0.0169,-0.0305 0.0247,-0.0461 v -2.5e-4 c 10e-6,-3e-5 0,-3e-5 0,-6e-5 0.0687,-0.13723 0.15292,-0.21171 0.0816,-0.15056 l -10e-4,0.001 c 0.0183,-0.0157 0.0361,-0.032 0.0532,-0.049 0,-4.7e-4 10e-4,-9.3e-4 10e-4,-10e-4 0.1039,-0.10391 0.19294,-0.19295 0.26713,-0.26714 0.004,-0.004 0.008,-0.008 0.0114,-0.0127 0.12092,-0.10968 0.23956,-0.23313 0.33929,-0.39347 0.17309,-0.268 0.23756,-0.56702 0.23756,-0.8401 0,-0.53522 -0.25264,-1.0171 -0.60242,-1.37051 -0.34443,-0.3622 -0.82992,-0.61972 -1.36553,-0.61972 -0.68532,0 -1.19209,0.4003 -1.64706,0.85528 -0.11908,0.11907 -0.32493,0.33281 -0.63575,0.65841 0,3.8e-4 -10e-4,9.3e-4 -10e-4,9.3e-4 -10e-4,9.4e-4 -10e-4,9.4e-4 -0.002,0.002 -0.004,0.005 -0.009,0.009 -0.0129,0.0136 -0.001,9.4e-4 -0.002,0.002 -0.003,0.003 -0.10846,0.11931 -0.24189,0.26358 -0.35847,0.39102 0.007,-0.12707 0.006,-0.25516 -0.0119,-0.3856 -0.0272,-0.31584 -0.10841,-0.64418 -0.30601,-0.9406 v -7e-5 c -0.17523,-0.26286 -0.42315,-0.48587 -0.72501,-0.62276 -0.17123,-0.0837 -0.39992,-0.176 -0.6836,-0.176 -0.62724,0 -1.10497,0.33262 -1.5494,0.72171 -0.004,0.003 -0.008,0.006 -0.0121,0.009 -0.0892,0.0743 -0.17832,0.14858 -0.26727,0.22271 -0.0192,0.016 -0.0376,0.0329 -0.055,0.0508 v 3.8e-4 c -0.0879,0.076 -0.17514,0.1554 -0.26295,0.24208 -0.12684,0.11039 -0.24859,0.23312 -0.37009,0.36744 -0.11863,0.11864 -0.26614,0.26621 -0.44346,0.44353 -10e-4,9.3e-4 -0.002,0.002 -0.003,0.003 v 3.8e-4 c 0.0244,-0.3246 -0.0338,-0.65856 -0.21277,-0.95682 -0.19856,-0.33095 -0.46232,-0.61974 -0.77054,-0.87019 -0.003,-0.002 -0.005,-0.004 -0.008,-0.007 -10e-4,-9.3e-4 -0.003,-0.002 -0.004,-0.003 -0.33121,-0.26024 -0.7476,-0.44656 -1.2065,-0.44656 -0.0975,-1e-5 -0.19411,0.0189 -0.28444,0.0556 -1.21394,0.4939 -1.63832,1.73638 -1.86035,2.59374 -0.11101,0.42868 -0.1609,0.77792 -0.17956,0.98672 -0.005,0.0522 -0.008,0.0873 -0.008,0.15501 0,0.0169 0,0.0359 0.003,0.0703 0.003,0.0344 -0.0207,0.0535 0.0601,0.24059 0.0102,0.0237 0.024,0.0584 0.0449,0.0981 -0.0103,0.037 -0.022,0.0802 -0.0324,0.11768 -0.18181,0.2292 -0.36304,0.45188 -0.5415,0.65266 -0.002,0.002 -0.004,0.004 -0.005,0.006 -0.002,0.003 -0.005,0.006 -0.008,0.009 -0.32105,0.37688 -0.62359,0.699 -0.9043,0.96695 -0.12375,0.1117 -0.23655,0.20749 -0.3433,0.29537 0.0169,-0.51151 0.0897,-1.02373 0.22793,-1.54231 v -4.7e-4 -9.3e-4 c 0,-0.001 10e-4,-0.003 10e-4,-0.004 0.16477,-0.63164 0.38491,-1.25832 0.66178,-1.88127 v -9.3e-4 c 0.0177,-0.04 0.0326,-0.0812 0.0446,-0.12324 v -1.2e-4 c 0.0666,-0.23325 0.0736,-0.46036 0.0546,-0.67108 -0.0193,-0.38135 -0.2285,-0.66779 -0.38927,-0.8286 -0.15739,-0.15742 -0.32776,-0.27078 -0.50709,-0.37571 -0.24315,-0.15869 -0.55256,-0.25918 -0.89513,-0.21637 -0.0394,0.005 -0.0746,0.0166 -0.11213,0.0248 -0.27584,-0.26189 -0.64293,-0.40504 -1.01771,-0.40504 -0.1884,0 -0.3334,0.0302 -0.49689,0.0629 -0.0109,0.002 -0.0217,0.005 -0.0325,0.008 -0.21272,0.0324 -0.4209,0.0858 -0.6342,0.16192 -0.28832,0.10298 -0.57315,0.24947 -0.87264,0.43158 -0.33385,0.18762 -0.66408,0.42824 -1.00455,0.72003 v 3.8e-4 c -0.005,0.005 -0.0104,0.009 -0.0155,0.0135 l -0.004,0.004 c -0.51251,0.46447 -0.99749,0.98187 -1.45557,1.55006 -0.18208,0.22008 -0.35046,0.44865 -0.51141,0.6816 0.0271,-0.0641 0.0527,-0.12958 0.0707,-0.20139 0.0968,-0.38723 0.008,-0.76548 -0.20074,-1.06661 -0.002,-0.003 -0.004,-0.006 -0.006,-0.008 -0.36462,-0.51477 -0.9336,-0.93259 -1.61613,-0.93259 -0.0369,0 -0.0716,0.004 -0.10728,0.007 0.0247,-0.005 0.05,-0.008 0.0745,-0.0138 0.003,-9.3e-4 0.007,-10e-4 0.0101,-0.002 0.002,-4.7e-4 0.004,-9.3e-4 0.006,-0.001 v -1.2e-4 c 0.18271,-0.0458 0.32317,-0.12285 0.44269,-0.19771 0.006,-0.003 0.0127,-0.006 0.0189,-0.01 0.10374,-0.0593 0.20733,-0.11851 0.31087,-0.17768 v -3.8e-4 c 0.0274,-0.0157 0.054,-0.0327 0.0798,-0.051 l 0.001,-4.6e-4 c 0.12132,-0.0866 0.23629,-0.17504 0.34504,-0.26565 0.11322,-0.0944 0.22148,-0.19859 0.32029,-0.32288 0.30838,-0.3579 0.46523,-0.87452 0.31415,-1.37528 -0.11125,-0.40757 -0.37876,-0.7407 -0.70368,-0.96095 -0.25973,-0.18472 -0.55114,-0.3098 -0.85567,-0.39127 -0.31082,-0.10146 -0.63684,-0.15126 -0.96721,-0.15373 z m 2.32518,4.85053 c -0.005,-0.007 0.0205,0.0278 0,0 z m 24.21628,-0.10044 c -0.004,0.006 0.0176,-0.0267 0,0 z m 1.22673,-1.37941 c 0,2.5e-4 -0.021,0.0192 -0.0309,0.0284 z m -35.60574,11.81807 c -0.0192,-0.0161 -0.0101,-0.008 0,0 z m 6.7245,-11.6163 c 0.0843,0.0235 0.31207,0.14648 0.23323,0.11161 0.17104,0.0969 0.35037,0.1768 0.53763,0.23303 0.0335,0.0101 0.0674,0.0184 0.10179,0.0247 l 0.001,2.5e-4 c 0.18781,0.0341 0.37549,0.0377 0.56024,0.0222 -0.12069,0.0284 -0.23382,0.0675 -0.34071,0.11019 v 1.2e-4 c -0.01,0.004 -0.0194,0.008 -0.0289,0.0121 -0.001,4.7e-4 -0.003,9.3e-4 -0.004,0.002 -0.17394,0.0773 -0.3459,0.16887 -0.51909,0.27249 l 0.0478,-0.0264 c -0.19261,0.0971 -0.37564,0.21312 -0.54811,0.34509 -0.13789,0.0931 -0.26569,0.18433 -0.38158,0.2809 -0.022,0.0183 -0.043,0.0376 -0.0632,0.0577 -0.17395,0.17395 -0.32884,0.37121 -0.44399,0.60151 v 7e-5 c -0.12863,0.25727 -0.18573,0.52588 -0.20766,0.78888 0,0.007 -10e-4,0.0148 -10e-4,0.0221 l 10e-4,-0.019 c -0.0109,0.13546 -0.0823,0.35281 -0.31635,0.65369 -10e-4,0.001 -0.002,0.003 -0.003,0.004 -0.26159,0.34007 -0.53782,0.6346 -0.82867,0.88751 -10e-4,9.3e-4 -0.002,0.002 -0.003,0.003 -0.006,0.005 -0.0117,0.0105 -0.0176,0.0158 -0.1465,0.13523 -0.30173,0.2515 -0.46891,0.35182 l -0.001,4.6e-4 c -0.008,0.005 -0.0159,0.01 -0.0238,0.0149 -0.18107,0.1164 -0.35952,0.21818 -0.53518,0.30602 -0.13296,0.0665 -0.25401,0.11525 -0.36784,0.15501 -0.0137,-0.0746 -0.0254,-0.1616 -0.0254,-0.26843 0,-0.20231 0.0313,-0.45472 0.10534,-0.75084 0.0718,-0.28728 0.18239,-0.59125 0.33613,-0.91154 v -7e-5 c 0.15839,-0.32999 0.34503,-0.66347 0.55979,-1.00008 0.22116,-0.32414 0.46714,-0.62876 0.74011,-0.9149 0.001,-9.3e-4 0.001,-0.001 0.002,-0.002 0.54844,-0.57586 1.02651,-0.95154 1.35894,-1.12894 0.22493,-0.11564 0.40613,-0.20021 0.51612,-0.24472 0.012,-0.005 0.0173,-0.006 0.0282,-0.01 z m 8.62585,1.48321 c 0.0129,0.0117 0.0129,0.0117 0,0 z m 22.72667,0.7562 v 2.5e-4 z m -28.07666,0.77422 c -0.13967,0.2289 -0.27295,0.4614 -0.39295,0.70124 -0.001,0.002 -0.002,0.003 -0.003,0.005 -0.1718,0.32992 -0.31684,0.62816 -0.43824,0.90533 0.0723,-0.29331 0.16412,-0.57712 0.28342,-0.85024 0.13713,-0.28185 0.29013,-0.49681 0.45431,-0.661 0.005,-0.006 0.0109,-0.012 0.0162,-0.0181 0.0268,-0.0263 0.0535,-0.0536 0.08,-0.0825 z m 30.78744,0.0338 c 0.002,0.0971 0.008,0.19363 0.0203,0.28968 -0.10132,0.0887 -0.20197,0.17587 -0.30066,0.25636 0.0543,-0.0901 0.10625,-0.18212 0.15566,-0.27599 0.0475,-0.0875 0.0862,-0.17875 0.12471,-0.27005 z m -55.46973,0.24706 c -0.002,0.0113 -0.005,0.0221 -0.004,0.0164 10e-4,-0.006 0.003,-0.0107 0.004,-0.0164 z m 52.37194,0.31345 c -0.0255,0.0369 -0.0439,0.0522 -0.055,0.0639 0.0195,-0.0203 0.0378,-0.0416 0.055,-0.0639 z m 3.18795,0.10676 c 0,0.002 0.001,0.005 0.002,0.007 v 9.3e-4 z m -66.740782,0.52103 c 0.025,0.0114 0.0474,0.0479 -0.021,0.0364 0.009,-0.0175 0.0179,-0.0385 0.021,-0.0364 z m 9.955012,0.17103 c 0,0.001 0,0.002 -0.001,0.003 0,0.001 -0.001,0.003 -0.001,0.004 z m -0.0344,0.15243 c -0.0557,0.23668 -0.10364,0.45647 -0.14267,0.65706 -0.10764,-0.10428 -0.23885,-0.18683 -0.40362,-0.2457 -0.1354,-0.0484 -0.2674,-0.0666 -0.38681,-0.0695 -0.001,-0.0155 -0.004,-0.0388 -0.005,-0.0549 0.0898,-0.0174 0.1821,-0.0338 0.26792,-0.0529 v -6e-5 c 0.016,-0.004 0.0319,-0.008 0.0477,-0.0119 v 6e-5 c 0.2102,-0.0584 0.41706,-0.13603 0.6223,-0.22212 z m -1.61503,0.40019 v 7e-5 l -0.0171,0.003 c 0.006,-9.3e-4 0.0112,-0.002 0.0172,-0.003 z m 34.2904,0.36053 c -0.003,0.002 -0.003,0.002 0,0 z m 6.29996,0.12886 v 9.3e-4 c -10e-4,0.002 -10e-4,0.005 -0.002,0.008 z m 18.08354,0.0583 c -0.008,0.004 -0.0151,0.009 -0.0231,0.0123 -0.008,0.004 -0.0175,0.007 -0.0259,0.0114 z m -56.94615,0.11115 c 0.007,0.019 0.0187,0.0524 0.0178,0.0501 -0.006,-0.0166 -0.011,-0.0337 -0.0178,-0.0501 z m -0.33994,0.0771 v 4.7e-4 z m 0,0.002 c -0.002,0.0155 0.001,-0.003 0,0 z m 56.79249,0.10857 c -0.003,0.002 -0.006,0.005 -0.009,0.007 -0.0106,0.008 -0.022,0.0148 -0.0326,0.0229 z m -0.58801,0.51858 c -0.003,0.003 -0.006,0.006 -0.008,0.01 -0.004,0.004 -0.008,0.008 -0.0123,0.0124 z m -25.96371,0.73741 c -0.007,0.006 -0.0136,0.0118 -0.0101,0.009 0.003,-0.003 0.007,-0.006 0.0101,-0.009 z m -24.37575,0.0451 c -0.003,0.002 -0.005,0.004 -0.004,0.003 10e-4,-9.3e-4 0.002,-0.002 0.004,-0.003 z m -5.68385,0.35608 c -0.003,0.005 -0.006,0.0113 -0.006,0.01 0.002,-0.003 0.004,-0.006 0.006,-0.01 z m 55.9717,0.13557 c -0.002,10e-4 -0.004,0.002 -0.002,10e-4 10e-4,-4.7e-4 0.002,-9.4e-4 0.002,-10e-4 z m -35.8533,0.84992 c -0.003,0.001 -0.005,0.002 -0.004,0.001 0.001,-4.7e-4 0.002,-9.4e-4 0.004,-0.001 z m -0.10005,0.04 c -0.15246,0.30653 -0.98268,0.93393 -0.65157,0.79076 -0.016,-0.0125 -0.0419,-0.0341 -0.0749,-0.0706 v -4.7e-4 c -0.0249,-0.0277 -0.0515,-0.0539 -0.0795,-0.0785 v -4.5e-4 c -0.11603,-0.10153 -0.24607,-0.19556 -0.383,-0.28807 0.40479,-0.0675 0.80319,-0.18431 1.1899,-0.35265 z m -2.9325,0.20571 c 0.004,0.002 0.009,0.003 0.0136,0.005 0.004,0.001 0.007,0.004 0.0101,0.005 z"
           style="font-style:italic;font-variant:normal;font-weight:bold;font-stretch:normal;font-size:medium;line-height:111.34337616px;font-family:'Caflisch Script';-inkscape-font-specification:'Caflisch Script Bold Italic';letter-spacing:0px;word-spacing:0px;fill:#333333;fill-opacity:1;stroke:none;stroke-width:0.55665582px;stroke-linecap:butt;stroke-linejoin:miter;stroke-opacity:1"
           sodipodi:nodetypes="cccccccsscccsccscccsccsccccccccccccccccccccsccccsccccccccccssccccccccccccccccccsccccccscccccscccccccccccccccccccccccccccsccccccccccccccccccccccccccccccccccccccccccccccccccccccscccccccccccsccccccccccccsccccccccccsccccccccccccsccccccscccccccsccccccccccccccccccccccsccccccsccccccccccscccccccccscccccccccscccscccsccccccccccscccsccccccccccccccccccccccccccccccccscsccccccccccccccccccccccccccccsccccccccccccccccccccccccccccccccccccccscccccccccccccccccccccccccccccccccccccccccccccccccccccccccscccccccccccccccccccccccccccccccccccccccccccccccccccccccccccccccccccccccccccccccccccccccccccccccccccccccccccccccccccc" />
        <path
           inkscape:connector-curvature="0"
           id="path7724"
           d="m -92.191878,98.079728 c -1.63443,1.18393 -0.86271,0.59059 -1.59578,2.023042 -0.40448,0.83904 -0.94674,2.10979 -1.63009,3.81814 -0.38675,0.95204 -0.6996,1.77862 -0.93866,2.48084 0,9.4e-4 -0.001,0.002 -0.001,0.003 -0.22322,0.69945 -0.40212,1.2955 -0.53673,1.7891 0,0.002 -0.001,0.003 -0.001,0.005 -0.11951,0.49294 -0.20221,0.89774 -0.24815,1.21884 0,2.5e-4 -2e-5,4.7e-4 0,9.3e-4 -3e-5,1.3e-4 0,3.8e-4 0,4.7e-4 -0.0452,0.30122 -0.0687,0.53683 -0.0687,0.717 0,0.43344 0.1154,0.81991 0.34859,1.13637 0.001,0.002 0.002,0.003 0.004,0.005 0.2505,0.3173 0.59115,0.49494 0.97212,0.49494 0.54362,0 1.11592,-0.16763 1.71501,-0.49023 0.59035,-0.31787 1.1431,-0.69646 1.65754,-1.13514 0.16962,-0.14058 0.33136,-0.28399 0.48713,-0.42951 -0.0182,0.16027 -0.0308,0.30496 -0.0308,0.4186 0,0.43344 0.1154,0.81991 0.34858,1.13637 0.001,0.002 0.002,0.003 0.004,0.005 0.25051,0.31731 0.59122,0.49494 0.97218,0.49494 0.54362,0 1.11592,-0.16763 1.71501,-0.49022 0.59042,-0.31791 1.14319,-0.69655 1.65767,-1.13527 0,-2.6e-4 0,-3.8e-4 10e-4,-4.7e-4 0.5268,-0.43671 0.98746,-0.89717 1.38122,-1.38161 0.40572,-0.48099 0.69512,-0.88956 0.86949,-1.23829 0.2038,-0.40762 0.28929,-0.74841 0.15837,-1.03206 -0.003,-0.006 -0.006,-0.0122 -0.01,-0.018 -0.0731,-0.12182 -0.22083,-0.20313 -0.36241,-0.20313 -0.17502,0 -0.29084,0.10712 -0.40943,0.24266 -10e-4,9.3e-4 -0.002,0.002 -0.003,0.003 -0.36767,0.4412 -0.74237,0.85262 -1.12404,1.23428 -0.36656,0.36657 -0.72482,0.68817 -1.07442,0.96495 v 2.5e-4 c -0.33468,0.26188 -0.63848,0.47126 -0.90948,0.62838 -0.26572,0.13939 -0.47359,0.19919 -0.59865,0.19919 -0.055,0 -0.0801,-0.011 -0.10355,-0.03 -0.0232,-0.0188 -0.0495,-0.0545 -0.0712,-0.12362 -0.0325,-0.11627 0.003,-0.50553 0.17717,-1.07139 0.13344,-0.41513 0.28887,-0.9111 0.46626,-1.4876 0.19186,-0.57559 0.41355,-1.20369 0.66476,-1.88353 v -9.3e-4 c 0.26623,-0.68034 0.56209,-1.39801 0.88776,-2.15299 0,-3.8e-4 0,-9.3e-4 0,-0.001 0.3245,-0.76702 0.69351,-1.54928 1.10704,-2.34682 v -3.7e-4 c 0.24323,-0.471252 0.38138,-0.839762 0.39928,-1.144382 0,-2.5e-4 0,-3.8e-4 0,-4.7e-4 0.0198,-0.3552 -0.20615,-0.68798 -0.59227,-1.01481 -0.1387,-0.1372 -0.32948,-0.20888 -0.53156,-0.20888 -0.2753,0 -0.52597,0.15425 -0.7265,0.4049 0,3.8e-4 -0.001,9.4e-4 -0.001,10e-4 -0.19374,0.24657 -0.46565,0.76682 -0.86774,1.615622 v 9.3e-4 3.7e-4 c -0.40448,0.83905 -0.94675,2.1098 -1.63008,3.81815 -0.38676,0.95205 -0.69962,1.77861 -0.93868,2.48084 0,9.3e-4 -0.001,0.002 -0.001,0.003 -0.0841,0.26355 -0.15905,0.50581 -0.23026,0.73922 -0.19144,0.21065 -0.38439,0.41475 -0.57935,0.60971 -0.36656,0.36656 -0.72489,0.68816 -1.07449,0.96495 v 2.5e-4 c -0.33469,0.26188 -0.63849,0.47126 -0.90947,0.62838 -0.26573,0.13939 -0.4736,0.19919 -0.59866,0.19919 -0.055,0 -0.0801,-0.011 -0.10354,-0.03 -0.0232,-0.0188 -0.0495,-0.0545 -0.0712,-0.12362 -0.0325,-0.11627 0.003,-0.50553 0.17716,-1.07139 0.13341,-0.41511 0.28894,-0.91109 0.46633,-1.48761 0.19188,-0.57559 0.41348,-1.20369 0.66469,-1.88352 v -9.3e-4 c 0.26622,-0.68033 0.56215,-1.398 0.88783,-2.15299 0,-3.8e-4 0,-9.3e-4 0,-0.001 0.32451,-0.76702 0.69351,-1.54928 1.10704,-2.34682 v -3.7e-4 c 0.24323,-0.471272 0.38131,-0.839802 0.39923,-1.144382 0,-2.6e-4 0,-3.8e-4 0,-4.7e-4 0.0197,-0.35517 -0.20611,-0.68797 -0.59221,-1.01482 -0.13872,-0.13722 -0.32955,-0.20887 -0.53163,-0.20887 z m -7.949552,2.582892 c -0.15533,0 -0.32499,0.0444 -0.52529,0.12072 -0.25883,0.0804 -0.49444,0.29277 -0.75717,0.61733 0,2.5e-4 -0.001,4.7e-4 -0.001,9.3e-4 -0.23919,0.29899 -0.69178,0.87783 -1.35998,1.73905 -0.6674,0.84536 -1.54244,1.94286 -2.62544,3.29291 v 2.5e-4 c -0.0495,0.0618 -0.0893,0.10597 -0.12421,0.14228 -0.0133,0.007 -0.0481,0.0231 -0.11554,0.0344 -0.005,9.3e-4 -0.01,0.002 -0.0148,0.003 -0.13671,0.0342 -0.28194,0.0914 -0.43939,0.17013 -0.002,0.001 -0.005,0.002 -0.007,0.004 -0.18189,0.10105 -0.34428,0.28268 -0.5302,0.54609 0,2.6e-4 0,3.8e-4 0,4.7e-4 -0.11094,0.15848 -0.18814,0.29794 -0.22729,0.435 -0.002,0.007 -0.004,0.0138 -0.005,0.0209 -0.0163,0.0975 -0.0248,0.18926 -0.0248,0.27598 0,0.0436 -0.005,0.0873 -0.0166,0.13235 -0.005,0.0198 -0.0268,0.067 -0.0756,0.12808 -0.002,0.002 -0.004,0.005 -0.005,0.007 -0.11715,0.1611 -0.2342,0.31468 -0.35103,0.46071 -0.12209,0.13764 -0.31133,0.3635 -0.57336,0.68367 -0.54494,0.62063 -0.84855,1.08545 -0.84855,1.50517 0,0.22539 0.085,0.44883 0.23406,0.66416 0.002,0.003 0.004,0.005 0.006,0.008 0.17627,0.22917 0.42919,0.36325 0.70646,0.36325 0.17256,0 0.35435,-0.0343 0.5461,-0.0979 0.18422,-0.0467 0.36168,-0.10827 0.53156,-0.18531 0.18188,-0.0759 0.34312,-0.15239 0.48363,-0.23045 0.002,-9.3e-4 0.004,-0.002 0.005,-0.003 0.15403,-0.0924 0.2799,-0.17839 0.38004,-0.26184 10e-4,-10e-4 0.003,-0.003 0.005,-0.004 0.15143,-0.13461 0.25953,-0.27596 0.28419,-0.4485 l -0.005,0.0252 c 0.0336,-0.11764 0.0518,-0.23134 0.0518,-0.34135 v -0.35627 c 0,-0.10297 0.0128,-0.19639 0.0373,-0.28206 0,-0.002 10e-4,-0.004 10e-4,-0.006 0.037,-0.14819 0.12296,-0.33166 0.26333,-0.54222 0.14763,-0.22146 0.25794,-0.39059 0.33399,-0.51212 0.10002,-0.15005 0.22546,-0.2576 0.38695,-0.33269 0.18722,-0.08 0.44858,-0.15189 0.77965,-0.20947 0.002,-3.7e-4 0.004,-9.3e-4 0.006,-9.3e-4 0.34989,-0.0729 0.68419,-0.12365 1.00279,-0.15262 0.32232,-0.0293 0.65216,-0.0586 0.98899,-0.0879 0.0415,3.8e-4 0.0759,0.006 0.0989,0.009 0.029,0.44803 0.0581,0.8634 0.0871,1.241 0.0302,0.39205 0.083,0.77694 0.15831,1.15445 0.0782,0.45257 0.21905,0.79726 0.45865,1.01843 0.001,10e-4 0.003,0.003 0.005,0.005 0.23651,0.20272 0.51641,0.31274 0.81323,0.31274 0.216592,0 0.438282,-0.0418 0.662942,-0.12182 0.24094,-0.0806 0.4548,-0.19505 0.63685,-0.34399 0.18174,-0.14872 0.33112,-0.33158 0.44577,-0.54365 0.13558,-0.23781 0.20243,-0.51029 0.20243,-0.80496 0,-0.13725 -0.0267,-0.27014 -0.0776,-0.39412 -0.0316,-0.0989 -0.1183,-0.18914 -0.21477,-0.22361 -0.0992,-0.0355 -0.1986,-0.0319 -0.30615,-0.014 -0.002,3.7e-4 -0.004,9.3e-4 -0.006,9.3e-4 -0.20575,0.0411 -0.34821,0.0386 -0.39632,0.0261 -0.0247,-0.009 -0.0487,-0.0269 -0.0785,-0.10464 -0.0207,-0.0633 -0.0513,-0.21342 -0.0799,-0.4277 -0.0148,-0.21948 -0.044,-0.53735 -0.0858,-0.94409 0.008,-0.001 0.01,-0.002 0.0184,-0.004 0.3286,-0.045 0.62881,-0.0974 0.90057,-0.15779 0.003,-9.3e-4 0.006,-0.001 0.01,-0.002 0.27972,-0.0777 0.55832,-0.18622 0.83552,-0.32482 0.004,-0.002 0.008,-0.004 0.0112,-0.006 0.26715,-0.15713 0.45736,-0.29803 0.49036,-0.53343 0.0209,-0.11216 -0.0149,-0.25086 -0.10224,-0.33095 -0.09,-0.0825 -0.19924,-0.11343 -0.32326,-0.13118 -0.30397,-0.0456 -0.62921,-0.0758 -0.97593,-0.0909 v 0 c -0.31848,-0.0145 -0.65209,-0.029 -0.99874,-0.0435 -0.001,-0.005 0,1.2e-4 -0.002,-0.012 -0.044,-0.44082 -0.0733,-0.85169 -0.088,-1.23228 v -2.5e-4 c -0.0149,-0.40118 -0.0298,-0.75803 -0.0446,-1.07055 -0.0148,-0.30988 -0.022,-0.55994 -0.022,-0.74806 v -0.35627 c 0,-0.0637 0.022,-0.1219 0.10049,-0.20036 0.12232,-0.12232 0.23036,-0.24572 0.32444,-0.37047 0.13079,-0.13462 0.22082,-0.28338 0.22082,-0.45342 0,-0.15765 -0.0507,-0.31269 -0.13945,-0.45509 -0.0995,-0.16528 -0.22551,-0.30807 -0.37513,-0.42525 -0.16116,-0.14112 -0.35835,-0.22153 -0.565072,-0.22153 z m 26.232082,0.13357 c -1.63371,-0.0777 -2.72586,0.72491 -3.3956,1.11983 -0.66974,0.39492 -1.37224,0.95746 -1.9465,1.5166 -0.5582,0.54311 -1.03478,1.11787 -1.42883,1.72393 -0.39388,0.591 -0.69833,1.19928 -0.91166,1.82405 0,0.001 -0.001,0.003 -0.001,0.004 -0.19832,0.62549 -0.29833,1.24643 -0.29833,1.86067 0,0.48863 0.11037,1.00239 0.32533,1.53979 0.001,0.002 0.002,0.004 0.003,0.007 0.0654,0.14724 0.15333,0.29829 0.2628,0.4547 0.002,0.003 0.005,0.007 0.007,0.01 0.12548,0.15683 0.26627,0.30534 0.42196,0.44546 0.005,0.004 0.01,0.008 0.0152,0.0123 0.17359,0.12625 0.35637,0.2296 0.54739,0.30951 0.21369,0.0981 0.43386,0.14971 0.65479,0.14971 0.59194,0 1.17667,-0.13311 1.7479,-0.39541 0.13923,-0.0619 0.29153,-0.13814 0.45793,-0.2289 0.001,-9.3e-4 0.003,-0.002 0.005,-0.003 0.17673,-0.10309 0.3459,-0.19874 0.50741,-0.28683 0.1675,-0.0914 0.3207,-0.18321 0.45967,-0.27586 0.0514,-0.0343 0.0727,-0.0507 0.11355,-0.0787 -0.0395,0.12729 -0.0783,0.25174 -0.13331,0.4498 -0.0727,0.26163 -0.1755,0.58508 -0.30822,0.9685 -0.24628,0.70982 -0.52968,1.16884 -0.80535,1.38187 -0.002,0.002 -0.005,0.004 -0.007,0.006 -0.29259,0.2508 -0.53745,0.35524 -0.72313,0.35524 -0.0873,0 -0.18713,-0.0219 -0.30176,-0.0728 -0.10157,-0.0452 -0.21607,-0.13094 -0.33708,-0.26539 -0.005,-0.006 -0.0104,-0.0109 -0.016,-0.0158 -0.13006,-0.11381 -0.29381,-0.23014 -0.493,-0.35272 -0.21509,-0.13236 -0.43558,-0.20616 -0.6557,-0.20616 -0.17996,0 -0.36719,0.0445 -0.5625,0.12588 -0.002,9.3e-4 -0.004,0.001 -0.005,0.002 -0.19725,0.0897 -0.3894,0.24624 -0.5917,0.46361 -0.1903,0.19128 -0.29469,0.43131 -0.27553,0.68024 0.0186,0.24249 0.14027,0.4616 0.33592,0.62167 0,4.5e-4 0.001,9.3e-4 0.001,0.001 0.16488,0.13191 0.37071,0.24937 0.61727,0.35756 0.24744,0.12332 0.50961,0.22351 0.78618,0.30034 0.27345,0.076 0.5472,0.13681 0.82111,0.18246 0.27557,0.0459 0.53054,0.0694 0.76583,0.0694 0.23359,0 0.47734,-0.0501 0.73037,-0.14455 0.25213,-0.0794 0.5019,-0.19678 0.74903,-0.3511 0.5086,-0.30841 0.97657,-0.71569 1.40344,-1.21879 0.42723,-0.50352 0.7302,-1.00539 0.903,-1.50814 0,-4.6e-4 0,-9.3e-4 0,-0.002 0.075,-0.22505 0.16447,-0.50836 0.26868,-0.85082 0.10417,-0.34221 0.20816,-0.70653 0.3121,-1.09245 0.11956,-0.40352 0.22433,-0.79242 0.31422,-1.16692 0.10369,-0.38542 0.18563,-0.72771 0.24577,-1.0278 0.0862,-0.38798 0.20821,-0.76109 0.36589,-1.11996 0.17,-0.35345 0.37285,-0.6458 0.60753,-0.88047 l -0.004,0.004 c 0.13514,-0.12669 0.23258,-0.26061 0.27114,-0.41485 0.0385,-0.15423 0.002,-0.32198 -0.0891,-0.45399 0,-4.7e-4 -0.001,-9.3e-4 -0.001,-0.002 -0.27357,-0.38621 -0.61659,-0.6141 -1.00029,-0.6141 -0.1399,0 -0.28619,0.0376 -0.44875,0.10263 -0.002,9.3e-4 -0.004,0.002 -0.006,0.003 -0.14018,0.0623 -0.28619,0.13951 -0.43818,0.23045 -0.1555,0.0784 -0.30346,0.17182 -0.4432,0.28012 -0.13397,0.0896 -0.24873,0.17317 -0.34297,0.2517 -0.004,0.004 -0.009,0.008 -0.0127,0.0116 -0.12988,0.12989 -0.23194,0.26413 -0.30259,0.40542 -0.0735,0.14696 -0.11431,0.31871 -0.13059,0.51412 0,2.6e-4 0,3.8e-4 0,4.7e-4 -0.0259,0.32409 -0.17676,0.67608 -0.47293,1.05686 0,2.5e-4 -10e-4,4.7e-4 -10e-4,9.4e-4 -0.2898,0.37676 -0.60039,0.70878 -0.93168,0.99685 -0.001,0.001 -0.003,0.002 -0.004,0.004 -0.18366,0.16953 -0.381,0.31751 -0.59254,0.44444 -0.002,9.3e-4 -0.003,0.002 -0.005,0.003 -0.20245,0.13016 -0.40439,0.2455 -0.60577,0.34619 -0.19811,0.0991 -0.38737,0.17591 -0.5676,0.23168 -0.16696,0.0414 -0.29611,0.0601 -0.37216,0.0601 -0.13359,0 -0.24234,-0.0516 -0.36364,-0.19577 -0.1021,-0.13444 -0.18214,-0.4311 -0.18214,-0.88441 0,-0.278 0.0418,-0.58962 0.12789,-0.93388 0.0856,-0.34247 0.21467,-0.69419 0.38792,-1.05512 0.1742,-0.36291 0.37769,-0.72652 0.61068,-1.09077 0.24616,-0.36176 0.52105,-0.70182 0.82512,-1.02036 v -1.3e-4 c 0.58493,-0.61417 1.10764,-1.03931 1.55439,-1.27678 0.24098,-0.1241 0.4373,-0.21659 0.58408,-0.27599 0.14716,-0.0596 0.25575,-0.0808 0.26307,-0.0808 0.16285,0 0.36166,0.0596 0.59447,0.19654 l -0.004,-0.003 c 0.13435,0.084 0.2838,0.15001 0.44663,0.19886 0.007,0.002 0.0136,0.004 0.0205,0.005 0.19254,0.035 0.39737,0.0251 0.61068,-0.0241 0.001,-2.5e-4 0.002,-4.7e-4 0.003,-9.3e-4 0.0952,-0.0238 0.18252,-0.0713 0.28168,-0.13739 l -0.011,0.007 c 0.10392,-0.0594 0.20781,-0.11876 0.3117,-0.17813 0.006,-0.003 0.0109,-0.007 0.0161,-0.0102 0.10739,-0.0767 0.20758,-0.15378 0.30059,-0.23129 0.0923,-0.0769 0.16521,-0.14863 0.22244,-0.22283 0.17583,-0.19589 0.24721,-0.45286 0.17084,-0.6891 -0.0579,-0.22143 -0.20282,-0.40961 -0.4073,-0.54661 -0.18241,-0.13175 -0.40048,-0.22755 -0.64956,-0.29123 -0.24263,-0.0807 -0.50059,-0.12078 -0.77106,-0.12078 z m 13.5041,2.27119 c -1.6077,0.65411 -1.6492,3.96866 -1.54257,2.8023 0.0465,0.0828 0.2719,0.21195 0.22296,0.16624 -0.003,0.0285 -0.009,0.0652 -0.0209,0.1109 -0.09,0.32776 -0.15442,0.55985 -0.23169,0.83991 -0.22097,0.28323 -0.44167,0.54991 -0.66196,0.79773 -10e-4,9.3e-4 -0.002,0.002 -0.003,0.003 -0.33739,0.39606 -0.65917,0.73947 -0.96463,1.03051 -0.3066,0.27728 -0.5752,0.49478 -0.80213,0.6508 -0.22387,0.15392 -0.39298,0.21165 -0.4496,0.21165 -0.0992,0 -0.16028,-0.032 -0.23878,-0.15385 -0.0733,-0.12753 -0.12891,-0.38136 -0.12891,-0.74825 0,-0.65119 0.0867,-1.30239 0.26079,-1.95523 0,-3.7e-4 0,-4.6e-4 0,-9.3e-4 0.17545,-0.67258 0.40952,-1.3383 0.7024,-1.99727 0.004,-0.008 0.007,-0.0163 0.009,-0.0248 0.0365,-0.1279 0.0436,-0.26682 0.0288,-0.41356 -0.002,-0.13766 -0.0758,-0.24957 -0.17155,-0.34529 -0.095,-0.095 -0.22147,-0.18317 -0.38126,-0.27514 -0.11743,-0.0778 -0.25656,-0.1188 -0.39367,-0.10167 -0.13733,0.0172 -0.2615,0.0871 -0.37029,0.18653 v -6e-5 l 0.0182,-0.0146 c -0.0101,0.007 -0.0127,0.007 -0.0205,0.011 -0.005,-0.008 -0.01,-0.0148 -0.0153,-0.0217 -0.0828,-0.0994 -0.18601,-0.20205 -0.31022,-0.31073 l 0.0178,0.0178 c -0.1362,-0.15566 -0.33389,-0.24266 -0.54299,-0.24266 -0.0909,0 -0.19567,0.0176 -0.34884,0.0482 l 0.0183,-0.003 c -0.17076,0.0171 -0.36167,0.066 -0.57916,0.14364 -0.22383,0.0799 -0.47019,0.20401 -0.74336,0.37067 -0.28125,0.15655 -0.57904,0.37109 -0.89694,0.64356 -10e-4,9.3e-4 -0.003,0.002 -0.004,0.003 -0.48278,0.43754 -0.94221,0.92728 -1.37845,1.46881 -0.43851,0.52955 -0.80962,1.09758 -1.11254,1.70326 v 9.3e-4 c -0.35864,0.68763 -0.59313,1.22788 -0.70369,1.63855 -0.10628,0.39474 -0.16245,0.70996 -0.16245,0.96204 0,0.23483 0.0516,0.45432 0.15677,0.64718 0.002,0.004 0.004,0.007 0.006,0.011 0.11028,0.17329 0.22986,0.32533 0.35976,0.45522 0.003,0.003 0.006,0.006 0.009,0.009 0.12883,0.11272 0.26061,0.2039 0.39625,0.27172 0.002,10e-4 0.005,0.002 0.008,0.004 0.14546,0.0647 0.26382,0.10534 0.38844,0.10534 0.50576,0 1.05062,-0.23845 1.64752,-0.68198 0.15482,-0.10856 0.33512,-0.25155 0.54376,-0.43029 0.22394,-0.17923 0.4334,-0.35879 0.62845,-0.53873 0.2098,-0.17994 0.39817,-0.35309 0.56476,-0.51968 0.10726,-0.10726 0.16523,-0.16519 0.23407,-0.234 v 0.16721 c 0,0.13447 0.0164,0.28559 0.0475,0.45684 l -0.002,-0.0156 c 0.0476,0.49218 0.21854,0.91992 0.51225,1.26257 10e-4,0.001 0.002,0.002 0.003,0.004 0.31301,0.34597 0.72373,0.52983 1.18662,0.52983 0.39795,0 0.81519,-0.13206 1.25068,-0.38076 0.44532,-0.24588 0.88015,-0.56674 1.30494,-0.9612 0.15365,-0.14267 0.30345,-0.29257 0.45083,-0.44709 10e-4,0.16199 0.0125,0.31234 0.0356,0.45096 0,4.7e-4 0,0.001 0,0.002 0.0471,0.26671 0.11832,0.4935 0.22064,0.68108 v 0 c 0.0981,0.17983 0.20906,0.32208 0.34555,0.41957 0.003,0.002 0.006,0.004 0.01,0.006 0.13676,0.0855 0.27036,0.1401 0.41194,0.1401 0.15727,0 0.31188,-0.0507 0.45399,-0.139 0.16563,-0.0934 0.34061,-0.25067 0.55255,-0.47776 10e-4,-0.001 0.003,-0.003 0.004,-0.005 0.10966,-0.12532 0.30205,-0.36238 0.58426,-0.71886 v -9.4e-4 c 0.29635,-0.3704 0.60748,-0.75569 0.9335,-1.15581 0.32683,-0.40111 0.62407,-0.78013 0.89229,-1.13766 0.28079,-0.35467 0.47162,-0.58111 0.54215,-0.65163 0.003,-0.003 0.007,-0.007 0.01,-0.0107 0.12284,-0.14332 0.22584,-0.23802 0.29613,-0.28587 -0.0144,0.0621 -0.0286,0.12474 -0.0598,0.20791 -10e-4,0.002 -10e-4,0.004 -0.002,0.007 -0.2237,0.67114 -0.41775,1.32034 -0.58212,1.94779 -0.16847,0.61307 -0.21102,1.15424 -0.11388,1.62376 0,4.6e-4 0,9.3e-4 0,10e-4 0.0486,0.22673 0.12226,0.41164 0.2417,0.551 0.11942,0.13936 0.29485,0.22186 0.47744,0.22186 0.38508,0 0.77624,-0.24578 1.22234,-0.6765 0.001,-9.3e-4 0.001,-0.001 0.002,-0.002 0.12356,-0.12357 0.31662,-0.3318 0.58226,-0.6269 0.28402,-0.29896 0.57524,-0.62001 0.87363,-0.96314 v -4.6e-4 c 0.31097,-0.3554 0.60697,-0.68855 0.88809,-0.99925 0.23136,-0.25572 0.38069,-0.42958 0.51451,-0.58814 -0.02,0.0952 -0.037,0.1644 -0.0611,0.29297 -10e-4,0.004 -10e-4,0.008 -0.002,0.0114 -0.0295,0.23606 -0.059,0.44958 -0.0884,0.6404 0,0.002 -10e-4,0.004 -10e-4,0.006 -0.12157,1.00283 -0.0323,1.76761 0.32061,2.28856 10e-4,9.3e-4 10e-4,0.002 0.002,0.003 0.35629,0.50204 0.8746,0.7699 1.49006,0.7699 0.30218,0 0.63608,-0.0823 1.00784,-0.23717 0.37845,-0.15769 0.77112,-0.40547 1.18229,-0.74051 0.37818,-0.30814 0.75944,-0.69374 1.14495,-1.14935 0.0226,0.25132 0.0723,0.48318 0.15387,0.69284 10e-4,0.003 0.002,0.006 0.003,0.008 0.12734,0.2865 0.29663,0.53701 0.5067,0.7471 0.20951,0.20949 0.44793,0.36645 0.71086,0.46542 0.27175,0.11142 0.54841,0.16889 0.8255,0.16889 0.6732,0 1.34624,-0.10734 2.01672,-0.32068 10e-4,-2.4e-4 10e-4,-4.6e-4 0.002,-9.3e-4 0.68043,-0.22681 1.32385,-0.52198 1.92931,-0.88518 0.61861,-0.3622 1.19253,-0.77749 1.7211,-1.24565 0.32542,-0.28824 0.61914,-0.58418 0.89376,-0.88486 0.11646,0.18928 0.2268,0.35579 0.3285,0.48293 l -10e-4,-10e-4 c 0.15604,0.1986 0.27415,0.3871 0.35562,0.56359 10e-4,0.002 10e-4,0.004 0.002,0.005 0.0815,0.16309 0.11361,0.28931 0.11361,0.36086 0,-0.001 -10e-4,0.023 -0.0637,0.0755 -0.0266,0.0209 -0.0925,0.0472 -0.21488,0.0472 -0.15198,0 -0.26373,-0.008 -0.33508,-0.0189 -0.0724,-0.0287 -0.15725,-0.0616 -0.2652,-0.10205 -0.21531,-0.13853 -0.4818,-0.15675 -0.70937,-0.0362 -0.11993,0.0528 -0.24381,0.13144 -0.3783,0.23529 -0.15032,0.10056 -0.30563,0.24183 -0.47305,0.42396 -0.0914,0.0918 -0.16096,0.19906 -0.20042,0.31745 -0.002,0.007 -0.005,0.0151 -0.006,0.0227 -0.0172,0.0862 -0.0259,0.17296 -0.0259,0.25971 1e-5,0.008 0,0.0157 0.001,0.0234 0.0207,0.16582 0.10573,0.31797 0.23194,0.44417 0.003,0.003 0.006,0.006 0.009,0.009 0.13136,0.11493 0.27887,0.21303 0.44082,0.29401 0.16275,0.0814 0.33465,0.13856 0.51354,0.17154 0.18729,0.0463 0.3633,0.071 0.52841,0.071 0.25982,0 0.55918,-0.0745 0.91244,-0.2125 0.13325,-0.05 0.27599,-0.12186 0.43157,-0.21521 v 0 c 0.1624,-0.0747 0.31885,-0.15565 0.46763,-0.24492 l -0.007,0.004 c 0.16367,-0.0893 0.31249,-0.17115 0.44656,-0.24563 0.005,-0.002 0.009,-0.005 0.0131,-0.008 0.13841,-0.0923 0.24941,-0.17852 0.33651,-0.26494 0.15778,-0.14157 0.29324,-0.33765 0.41795,-0.58705 0.1265,-0.25299 0.1981,-0.47657 0.1981,-0.68567 0,-0.33031 -0.0913,-0.66462 -0.26481,-0.99699 -0.15503,-0.32497 -0.36201,-0.65401 -0.62018,-0.9882 v -9.3e-4 c -0.1865,-0.24396 -0.34314,-0.47938 -0.47098,-0.70589 -0.10815,-0.23158 -0.15753,-0.43332 -0.15753,-0.60358 0,-0.11929 0.0473,-0.22501 0.17988,-0.34671 0.15922,-0.13213 0.37187,-0.25709 0.63962,-0.36983 0.26727,-0.11254 0.5651,-0.19789 0.89422,-0.25513 0.002,-3.7e-4 0.004,-9.3e-4 0.006,-9.3e-4 0.34447,-0.0718 0.68026,-0.10735 1.00796,-0.10735 0.22208,0 0.42617,-0.0531 0.59467,-0.16541 10e-4,-9.3e-4 0.002,-0.001 0.004,-0.002 0.1969,-0.13782 0.30331,-0.36954 0.30331,-0.62237 0,-0.15919 -0.037,-0.31087 -0.11142,-0.44366 -0.065,-0.15674 -0.1863,-0.28841 -0.34775,-0.40141 -0.16632,-0.11643 -0.35095,-0.20014 -0.54951,-0.25016 -0.20439,-0.0664 -0.44866,-0.0957 -0.73896,-0.0957 -0.19385,0 -0.41235,0.0239 -0.65828,0.07 -0.001,1.2e-4 -0.001,3.7e-4 -0.002,4.7e-4 -0.23372,0.0467 -0.4735,0.11649 -0.71952,0.20875 -0.24519,0.0919 -0.48291,0.19926 -0.71286,0.3219 -10e-4,9.4e-4 -0.003,0.002 -0.005,0.003 -0.21595,0.12341 -0.41705,0.26261 -0.60312,0.41737 -0.34309,0.26558 -0.65912,0.60584 -0.94945,1.01843 -0.2991,0.42503 -0.45755,0.86601 -0.45755,1.31115 0,0.16738 0.025,0.34561 0.0725,0.53569 0,10e-4 10e-4,0.003 10e-4,0.004 0.007,0.0246 0.0143,0.0465 0.0213,0.0702 -0.37047,0.34521 -0.7341,0.65099 -1.0885,0.90694 -0.52678,0.38046 -1.02958,0.68618 -1.5073,0.91787 -0.46487,0.21783 -0.90541,0.37643 -1.32097,0.47673 0,1.2e-4 -0.001,2.5e-4 -0.001,3.8e-4 -0.40435,0.10108 -0.76093,0.15016 -1.06746,0.15016 -0.29582,0 -0.49838,-0.0661 -0.63291,-0.17678 -0.12157,-0.11201 -0.18013,-0.24842 -0.18013,-0.45812 0,-0.15181 0.0148,-0.27003 0.0373,-0.34884 0.0258,-0.0902 0.0658,-0.19116 0.12091,-0.30144 10e-4,-0.002 0.002,-0.005 0.004,-0.008 0.0169,-0.038 0.0226,-0.0325 0.012,-0.0284 -0.0105,0.004 -0.01,-0.004 0.0281,0.013 10e-4,3.8e-4 10e-4,4.7e-4 0.002,9.3e-4 0.10686,0.0458 0.22091,0.0914 0.34212,0.13686 0.007,0.002 0.0135,0.005 0.0205,0.006 0.13316,0.0333 0.26766,0.0502 0.40213,0.0502 0.63164,0 1.16304,-0.11517 1.58622,-0.35931 10e-4,-3.8e-4 10e-4,-9.3e-4 0.002,-9.3e-4 0.41047,-0.24325 0.74191,-0.48866 0.99473,-0.74148 0.003,-0.003 0.005,-0.006 0.008,-0.009 0.23256,-0.26357 0.43372,-0.55787 0.60344,-0.88151 0.19339,-0.35488 0.28993,-0.75221 0.28993,-1.18067 0,-0.4638 -0.1335,-0.85082 -0.41355,-1.115 -0.27072,-0.26978 -0.63193,-0.42158 -1.05241,-0.45392 l 0.006,4.7e-4 c -0.0832,-0.009 -0.13951,-0.0404 -0.20365,-0.12595 l 0.014,0.0216 c -0.0858,-0.15455 -0.2027,-0.28203 -0.34529,-0.37352 -0.16058,-0.11882 -0.36627,-0.16896 -0.59926,-0.16896 -0.27685,0 -0.55585,0.0872 -0.83053,0.24873 -0.263,0.1547 -0.51732,0.33977 -0.76279,0.55449 -3e-5,2e-5 0,3e-5 0,7e-5 -0.23096,0.20017 -0.44617,0.42317 -0.64557,0.66849 0,2.5e-4 0,4.6e-4 -0.001,9.3e-4 -0.1935,0.22349 -0.34431,0.41154 -0.45348,0.56747 0,4.7e-4 -10e-4,9.4e-4 -10e-4,0.001 -0.36737,0.53435 -0.67322,1.07815 -0.91845,1.63118 -0.40454,0.50111 -0.77346,0.9314 -1.10375,1.28615 -0.001,9.3e-4 -0.001,0.002 -0.002,0.003 -0.38285,0.42702 -0.72034,0.77151 -1.00998,1.03218 -0.28813,0.25933 -0.53711,0.44244 -0.73804,0.55017 -0.20534,0.0952 -0.36819,0.13615 -0.4715,0.13615 -0.10209,0 -0.16431,-0.0227 -0.21198,-0.0601 -0.0475,-0.0372 -0.0884,-0.0967 -0.11768,-0.20151 -0.0637,-0.24328 -0.0674,-0.58222 0.004,-1.01023 0,-0.002 0.001,-0.003 0.001,-0.005 0.0879,-0.62962 0.20486,-1.14534 0.34704,-1.5434 0,-4.7e-4 10e-4,-0.001 10e-4,-0.002 0.14643,-0.42466 0.27848,-0.73684 0.38617,-0.92529 0.002,-0.003 0.003,-0.006 0.005,-0.009 0.0975,-0.19495 0.19327,-0.32432 0.26566,-0.38636 0.004,-0.003 0.007,-0.006 0.0106,-0.01 0.10391,-0.10391 0.19298,-0.19299 0.2672,-0.26721 l -0.0106,0.01 c 0.1122,-0.0962 0.19866,-0.18797 0.25933,-0.28794 0.0816,-0.12453 0.11846,-0.27462 0.11846,-0.43442 0,-0.30686 -0.14081,-0.59609 -0.38708,-0.8434 -0.23347,-0.24918 -0.51914,-0.39211 -0.82615,-0.39211 -0.35818,0 -0.71201,0.23289 -1.11337,0.63426 -0.10709,0.10709 -0.31445,0.322 -0.62651,0.64891 -10e-4,9.4e-4 -0.002,0.002 -0.003,0.003 -0.29649,0.32615 -0.62272,0.68206 -0.9787,1.06771 -0.35551,0.38513 -0.70353,0.75537 -1.04408,1.11073 -10e-4,9.3e-4 -0.002,0.002 -0.003,0.003 -0.32198,0.35127 -0.56886,0.61233 -0.74302,0.78681 -0.0186,0.015 -0.0263,0.0167 -0.0428,0.0287 0.0187,-0.061 0.044,-0.13393 0.0769,-0.21812 0,-0.001 10e-4,-0.003 10e-4,-0.004 0.0578,-0.15899 0.13069,-0.34151 0.21869,-0.54681 0,-0.001 10e-4,-0.003 0.002,-0.004 0.0891,-0.22266 0.17814,-0.44531 0.2672,-0.66798 l -0.004,0.01 c 0.10546,-0.226 0.19628,-0.43774 0.27237,-0.63556 0.0743,-0.19326 0.13381,-0.34945 0.17866,-0.46904 10e-4,-0.002 10e-4,-0.004 0.002,-0.007 0.10927,-0.32778 0.15456,-0.6125 0.11923,-0.86342 -0.0174,-0.24005 -0.0745,-0.44783 -0.18589,-0.61488 -0.10526,-0.15791 -0.24502,-0.28077 -0.41078,-0.35537 -0.13106,-0.0652 -0.24655,-0.10734 -0.36983,-0.10734 -0.33758,0 -0.68138,0.20464 -1.08263,0.5596 l 0.004,-0.004 c -0.0891,0.0742 -0.17816,0.1485 -0.26721,0.2227 v 7e-5 c -0.0913,0.0761 -0.18861,0.16653 -0.29148,0.26888 -0.11017,0.0944 -0.22483,0.20947 -0.34529,0.34445 -0.1187,0.11869 -0.26677,0.26684 -0.44463,0.4447 -10e-4,9.3e-4 -10e-4,0.001 -0.002,0.002 -0.41724,0.43214 -0.80498,0.8496 -1.16317,1.25256 -0.001,9.3e-4 -0.002,0.002 -0.003,0.003 -0.3395,0.39854 -0.74637,0.85721 -1.22026,1.37554 -10e-4,0.002 -0.003,0.004 -0.005,0.005 -0.003,0.004 -0.005,0.005 -0.008,0.008 0.0147,-0.0643 0.0343,-0.13761 0.0641,-0.22716 0,-9.3e-4 0.001,-0.002 0.001,-0.003 0.14773,-0.47276 0.3029,-0.94562 0.46542,-1.41843 0.17664,-0.4709 0.33105,-0.85286 0.46174,-1.14328 l -0.003,0.007 c 0.16704,-0.33409 0.18378,-0.68012 0.0152,-0.96102 -0.14661,-0.24436 -0.34784,-0.46847 -0.59951,-0.67295 -10e-4,-4.6e-4 -10e-4,-0.001 -0.002,-0.002 -0.23189,-0.1822 -0.48295,-0.28529 -0.74026,-0.28529 z m -41.350242,1.77753 c -0.0383,0.98115 0.11674,0.76125 -0.0216,1.40525 -0.0136,2.5e-4 -0.0183,0.001 -0.0343,0.001 -0.19237,0 -0.37751,0.008 -0.55663,0.0222 -0.002,0 -0.005,3.8e-4 -0.007,3.8e-4 -0.003,2.4e-4 -0.006,9e-5 -0.008,3.7e-4 -0.13587,9.3e-4 -0.28612,0.013 -0.44565,0.032 0.22082,-0.31717 0.40788,-0.58367 0.54809,-0.77997 v -3.7e-4 c 0.14214,-0.19379 0.325,-0.42856 0.52555,-0.68115 z m 57.862922,0.31494 c 0.88505,0.59199 -1.02353,1.87191 -0.73715,1.60483 -0.17084,0.0917 -0.32436,0.13247 -0.46523,0.13247 -0.0414,0 -0.0601,-0.004 -0.0847,-0.007 0.005,-0.0233 0.007,-0.0414 0.0191,-0.0782 0.0544,-0.16318 0.138,-0.34546 0.25194,-0.54487 0.1143,-0.20002 0.23538,-0.38498 0.36286,-0.55533 0.14259,-0.17079 0.27666,-0.31163 0.4002,-0.42144 0.11281,-0.10028 0.19724,-0.13041 0.25299,-0.13041 z m -23.32599,0.17813 c 0.17422,-0.0893 0.56099,0.53812 0.35149,0.32766 0.0213,0.0873 0.0224,0.18073 -10e-4,0.28845 -0.001,0.006 -0.002,0.0117 -0.003,0.0176 -0.011,0.088 -0.0441,0.18001 -0.10631,0.27954 -0.001,9.3e-4 -0.001,0.002 -0.002,0.003 -0.0455,0.0758 -0.14178,0.23876 -0.29032,0.49126 -0.14293,0.243 -0.29151,0.44746 -0.44405,0.61385 -0.001,9.4e-4 -0.001,0.002 -0.002,0.002 -0.34246,0.38713 -0.61093,0.70024 -0.80671,0.94119 0,3.7e-4 -0.001,9.3e-4 -0.001,9.3e-4 -0.1714,0.21425 -0.34863,0.39829 -0.53118,0.55275 -0.002,10e-4 -0.003,0.003 -0.005,0.004 -0.15545,0.14131 -0.30946,0.26005 -0.46161,0.35711 -0.12067,0.0721 -0.20536,0.0969 -0.24078,0.10153 -0.002,-0.003 -0.003,-0.009 -0.007,-0.0196 -0.0106,-0.10844 -0.005,-0.22463 0.0201,-0.35123 0.0261,-0.13063 0.0819,-0.30762 0.16826,-0.52355 0.0856,-0.21393 0.19324,-0.4367 0.32326,-0.66785 0.001,-0.001 0.001,-0.003 0.002,-0.004 0.13062,-0.24674 0.27595,-0.49387 0.43604,-0.74135 0.17394,-0.26086 0.35456,-0.49919 0.5417,-0.71512 0,-4.7e-4 0.001,-9.4e-4 0.001,-0.002 0.32185,-0.38037 0.57098,-0.64196 0.73095,-0.77577 0.17824,-0.13636 0.31332,-0.18156 0.3272,-0.18156 z m -32.1965,2.42485 c 0,-0.003 0.003,3.7e-4 0,0.0101 z"
           style="font-style:italic;font-variant:normal;font-weight:bold;font-stretch:normal;font-size:medium;line-height:111.34337616px;font-family:'Caflisch Script';-inkscape-font-specification:'Caflisch Script Bold Italic';letter-spacing:0px;word-spacing:0px;fill:#f4c401;fill-opacity:1;stroke:none;stroke-width:0.55665582px;stroke-linecap:butt;stroke-linejoin:miter;stroke-opacity:1"
           sodipodi:nodetypes="ccccccccccsccscccsccscccccccsccccccscccccccccccccscccccccccccccscccccccccccccccccccccccccccccccscccccsccsccccccccssccccccccccccccscccscccccccccccccccccccccccssccsccccczccccscccccccsccccccccccsccccscccccccccscccccccccccccccscccccccccccccccccscscccccccsccccccccccccccccccccccccccscscccccccccccccccsccccccccccsccccccscccccsccccscccccccccsccccccccccccccccscccccccccccccscccccccscccccccccccscccccccccccccscccccccccsccccsccccsccscccscccccccscccccccscsccccccccscccccsccccccsccccccccccccscccccccccccccscsccccccccccccccccccccscccccccccccccccccccccccccsccccccccccscccccccccccccccccccccccccccccccccscs" />
      </g>
    </g>
  </g>
</svg>
