<?xml version="1.0" encoding="UTF-8" standalone="no"?>
<!-- Created with Inkscape (http://www.inkscape.org/) -->

<svg
   xmlns:dc="http://purl.org/dc/elements/1.1/"
   xmlns:cc="http://creativecommons.org/ns#"
   xmlns:rdf="http://www.w3.org/1999/02/22-rdf-syntax-ns#"
   xmlns:svg="http://www.w3.org/2000/svg"
   xmlns="http://www.w3.org/2000/svg"
   xmlns:xlink="http://www.w3.org/1999/xlink"
   xmlns:sodipodi="http://sodipodi.sourceforge.net/DTD/sodipodi-0.dtd"
   xmlns:inkscape="http://www.inkscape.org/namespaces/inkscape"
   width="398.21286"
   height="211.27818"
   viewBox="0 0 105.36048 55.900687"
   version="1.1"
   id="svg9136"
   inkscape:version="0.92.0 r15299"
   sodipodi:docname="Collections_udb.svg">
  <defs
     id="defs9130">
    <linearGradient
       inkscape:collect="always"
       xlink:href="#linearGradient5016"
       id="linearGradient8111"
       gradientUnits="userSpaceOnUse"
       gradientTransform="translate(-1011.3479,-237.33533)"
       x1="-938.11603"
       y1="-200.34273"
       x2="-938.11603"
       y2="48.2178" />
    <linearGradient
       inkscape:collect="always"
       id="linearGradient5016">
      <stop
         style="stop-color:#78c9f2;stop-opacity:1"
         offset="0"
         id="stop5012" />
      <stop
         id="stop5065"
         offset="0.88341808"
         style="stop-color:#71c2eb;stop-opacity:1" />
      <stop
         id="stop5059"
         offset="0.95896375"
         style="stop-color:#7dcef7;stop-opacity:1" />
      <stop
         style="stop-color:#6cbde6;stop-opacity:1"
         offset="1"
         id="stop5014" />
    </linearGradient>
    <linearGradient
       inkscape:collect="always"
       xlink:href="#linearGradient5024"
       id="linearGradient8113"
       gradientUnits="userSpaceOnUse"
       gradientTransform="translate(-1011.3479,-237.33533)"
       x1="-919.54083"
       y1="19.240137"
       x2="-919.54083"
       y2="28.327301" />
    <linearGradient
       inkscape:collect="always"
       id="linearGradient5024">
      <stop
         style="stop-color:#7fd0f9;stop-opacity:1"
         offset="0"
         id="stop5020" />
      <stop
         id="stop5063"
         offset="0.0441185"
         style="stop-color:#7ecff8;stop-opacity:1" />
      <stop
         style="stop-color:#6bbce5;stop-opacity:1"
         offset="1"
         id="stop5022" />
    </linearGradient>
    <linearGradient
       inkscape:collect="always"
       xlink:href="#linearGradient5055"
       id="linearGradient8115"
       gradientUnits="userSpaceOnUse"
       gradientTransform="translate(-1011.3479,-237.33533)"
       x1="-920.60986"
       y1="29.129118"
       x2="-920.60986"
       y2="37.149174" />
    <linearGradient
       inkscape:collect="always"
       id="linearGradient5055">
      <stop
         style="stop-color:#7ecff8;stop-opacity:1"
         offset="0"
         id="stop5051" />
      <stop
         style="stop-color:#6bbce5;stop-opacity:1"
         offset="1"
         id="stop5053" />
    </linearGradient>
  </defs>
  <sodipodi:namedview
     id="base"
     pagecolor="#ffffff"
     bordercolor="#666666"
     borderopacity="1.0"
     inkscape:pageopacity="0.0"
     inkscape:pageshadow="2"
     inkscape:zoom="0.98994949"
     inkscape:cx="212.15851"
     inkscape:cy="132.77062"
     inkscape:document-units="px"
     inkscape:current-layer="layer1"
     showgrid="false"
     units="px"
     inkscape:window-width="1920"
     inkscape:window-height="1137"
     inkscape:window-x="1912"
     inkscape:window-y="-8"
     inkscape:window-maximized="1"
     fit-margin-top="0"
     fit-margin-left="0"
     fit-margin-right="0"
     fit-margin-bottom="0" />
  <metadata
     id="metadata9133">
    <rdf:RDF>
      <cc:Work
         rdf:about="">
        <dc:format>image/svg+xml</dc:format>
        <dc:type
           rdf:resource="http://purl.org/dc/dcmitype/StillImage" />
        <dc:title></dc:title>
      </cc:Work>
    </rdf:RDF>
  </metadata>
  <g
     inkscape:label="Layer 1"
     inkscape:groupmode="layer"
     id="layer1"
     transform="translate(-5.5141758,-252.92495)">
    <g
       transform="translate(-183.43507,188.43057)"
       id="g8484">
      <g
         transform="translate(77.863095,-82.714523)"
         id="g8324">
        <g
           id="g8109"
           transform="matrix(0.12498628,0,0,0.12498628,427.84176,207.58168)">
          <path
             style="color:#000000;clip-rule:nonzero;display:inline;overflow:visible;visibility:visible;opacity:1;isolation:auto;mix-blend-mode:normal;color-interpolation:sRGB;color-interpolation-filters:linearRGB;solid-color:#000000;solid-opacity:1;vector-effect:none;fill:#9bdcfc;fill-opacity:1;fill-rule:nonzero;stroke:none;stroke-width:0.28771281;stroke-linecap:butt;stroke-linejoin:miter;stroke-miterlimit:4;stroke-dasharray:none;stroke-dashoffset:0;stroke-opacity:1;color-rendering:auto;image-rendering:auto;shape-rendering:auto;text-rendering:auto;enable-background:accumulate"
             d="m -2285.8346,-483.03498 c -10.3069,0 -18.6045,8.29755 -18.6045,18.60454 v 25.0238 7.29309 226.95979 c 0,8.88404 7.1522,16.03623 16.0362,16.03623 h 344.7774 c 8.8841,0 16.0363,-7.15219 16.0363,-16.03623 v -234.25288 c 0,-8.88404 -7.1522,-16.03623 -16.0363,-16.03623 h -213.773 -4.6271 c -5.7326,0 -14.4514,-3.8991 -17.6165,-14.57431 -3.165,-10.67521 -15.4227,-13.00902 -18.1017,-13.00902 h 35.7182 v -0.009 z"
             id="path8061"
             inkscape:connector-curvature="0" />
          <path
             style="color:#000000;clip-rule:nonzero;display:inline;overflow:visible;visibility:visible;opacity:1;isolation:auto;mix-blend-mode:normal;color-interpolation:sRGB;color-interpolation-filters:linearRGB;solid-color:#000000;solid-opacity:1;vector-effect:none;fill:url(#linearGradient8111);fill-opacity:1;fill-rule:nonzero;stroke:none;stroke-width:0.24292879;stroke-linecap:butt;stroke-linejoin:miter;stroke-miterlimit:4;stroke-dasharray:none;stroke-dashoffset:0;stroke-opacity:1;color-rendering:auto;image-rendering:auto;shape-rendering:auto;text-rendering:auto;enable-background:accumulate"
             d="m -2285.0985,-437.67806 c -10.7147,0 -19.3409,8.62619 -19.3409,19.34094 v 32.0337 138.82408 48.20584 c 0,5.62656 4.5299,10.15597 10.1565,10.15597 h 356.5374 c 5.6265,0 10.1564,-4.52941 10.1564,-10.15597 v -48.20584 -138.82408 -32.0337 c 0,-10.71475 -8.6261,-19.34094 -19.3409,-19.34094 z"
             id="path8063"
             inkscape:connector-curvature="0" />
          <rect
             ry="0"
             rx="0"
             y="-218.0952"
             x="-2304.4395"
             height="9.0871639"
             width="376.85016"
             id="rect8065"
             style="color:#000000;clip-rule:nonzero;display:inline;overflow:visible;visibility:visible;opacity:1;isolation:auto;mix-blend-mode:normal;color-interpolation:sRGB;color-interpolation-filters:linearRGB;solid-color:#000000;solid-opacity:1;vector-effect:none;fill:url(#linearGradient8113);fill-opacity:1;fill-rule:nonzero;stroke:none;stroke-width:0.56795168;stroke-linecap:butt;stroke-linejoin:miter;stroke-miterlimit:4;stroke-dasharray:none;stroke-dashoffset:0;stroke-opacity:1;color-rendering:auto;image-rendering:auto;shape-rendering:auto;text-rendering:auto;enable-background:accumulate" />
          <rect
             style="color:#000000;clip-rule:nonzero;display:inline;overflow:visible;visibility:visible;opacity:1;isolation:auto;mix-blend-mode:normal;color-interpolation:sRGB;color-interpolation-filters:linearRGB;solid-color:#000000;solid-opacity:1;vector-effect:none;fill:url(#linearGradient8115);fill-opacity:1;fill-rule:nonzero;stroke:none;stroke-width:0.53133583;stroke-linecap:butt;stroke-linejoin:miter;stroke-miterlimit:4;stroke-dasharray:none;stroke-dashoffset:0;stroke-opacity:1;color-rendering:auto;image-rendering:auto;shape-rendering:auto;text-rendering:auto;enable-background:accumulate"
             id="rect8067"
             width="376.85016"
             height="7.9532351"
             x="-2304.4395"
             y="-208.13939"
             rx="0"
             ry="0" />
          <rect
             style="color:#000000;clip-rule:nonzero;display:inline;overflow:visible;visibility:visible;opacity:1;isolation:auto;mix-blend-mode:normal;color-interpolation:sRGB;color-interpolation-filters:linearRGB;solid-color:#000000;solid-opacity:1;vector-effect:none;fill:#65b5de;fill-opacity:1;fill-rule:nonzero;stroke:none;stroke-width:0.17559671;stroke-linecap:butt;stroke-linejoin:miter;stroke-miterlimit:4;stroke-dasharray:none;stroke-dashoffset:0;stroke-opacity:1;color-rendering:auto;image-rendering:auto;shape-rendering:auto;text-rendering:auto;enable-background:accumulate"
             id="rect8069"
             width="376.85016"
             height="0.86863708"
             x="-2304.4395"
             y="-209.00803"
             rx="0"
             ry="0" />
          <rect
             ry="0"
             rx="0"
             y="-200.18616"
             x="-2304.4395"
             height="0.86863708"
             width="376.85016"
             id="rect8071"
             style="color:#000000;clip-rule:nonzero;display:inline;overflow:visible;visibility:visible;opacity:1;isolation:auto;mix-blend-mode:normal;color-interpolation:sRGB;color-interpolation-filters:linearRGB;solid-color:#000000;solid-opacity:1;vector-effect:none;fill:#65b5de;fill-opacity:1;fill-rule:nonzero;stroke:none;stroke-width:0.17559671;stroke-linecap:butt;stroke-linejoin:miter;stroke-miterlimit:4;stroke-dasharray:none;stroke-dashoffset:0;stroke-opacity:1;color-rendering:auto;image-rendering:auto;shape-rendering:auto;text-rendering:auto;enable-background:accumulate" />
          <g
             transform="matrix(0.35277777,0,0,-0.35277777,-1690.1846,-530.78142)"
             id="g8107"
             style="fill:none;fill-opacity:1">
            <path
               inkscape:connector-curvature="0"
               style="fill:#5ba8cf;fill-opacity:1;stroke-width:11.01967144"
               d="m -1138.8925,-755.01323 c -14.3586,-0.24237 -60.0793,2.95326 -102.6372,14.66719 -49.7428,13.68642 -111.5302,13.63132 -161.295,0 -42.8886,-11.74695 -82.8789,-14.92065 -102.6372,-14.66719 -75.3085,0.96974 -131.9716,76.59773 -131.9716,153.96688 v 0 c 0,84.67514 69.2807,153.96687 153.9669,153.96687 0,0 116.4403,-8.77723 170.282,-8.61692 53.8416,0.1603 152.3078,8.61692 152.3078,8.61692 84.6752,-0.01 151.5646,-69.29173 151.5646,-153.96687 v 0 c 0,-77.36915 -54.2719,-152.68859 -129.5803,-153.96688 z"
               id="path8073"
               sodipodi:nodetypes="ccccccszcccc" />
            <path
               sodipodi:type="inkscape:offset"
               inkscape:radius="-1.6048466"
               inkscape:original="M -1505.4609 -755.01367 C -1580.7694 -754.04393 -1637.4336 -678.41602 -1637.4336 -601.04688 C -1637.4336 -516.37173 -1568.153 -447.08008 -1483.4668 -447.08008 C -1483.4668 -447.08008 -1367.0272 -455.85758 -1313.1855 -455.69727 C -1259.3439 -455.53697 -1160.877 -447.08008 -1160.877 -447.08008 C -1076.2018 -447.09008 -1009.3125 -516.37174 -1009.3125 -601.04688 C -1009.3125 -678.41602 -1063.5842 -753.73538 -1138.8926 -755.01367 C -1153.2512 -755.25604 -1198.9714 -752.05963 -1241.5293 -740.3457 C -1291.2721 -726.65928 -1353.0594 -726.71438 -1402.8242 -740.3457 C -1445.7128 -752.09265 -1485.7026 -755.26713 -1505.4609 -755.01367 z "
               style="fill:#64b4dd;fill-opacity:1;stroke-width:11.01967144"
               id="path8075"
               d="m -1505.4395,-753.4082 c -74.2446,0.95604 -130.3886,75.77576 -130.3886,152.36132 0,83.79317 68.54,152.34857 152.3418,152.35938 0.1818,-0.0137 116.3239,-8.77596 170.3047,-8.61523 53.9548,0.16063 152.1614,8.5999 152.3398,8.61523 83.783,-0.0293 149.9238,-68.54129 149.9238,-152.35938 0,-38.30932 -13.456,-76.15496 -36.1953,-104.51367 -22.7393,-28.35871 -54.6807,-47.21747 -91.8066,-47.84765 -14.0631,-0.23738 -59.8372,2.95366 -102.1836,14.60937 -50.0716,13.77689 -112.0544,13.72045 -162.1445,0 -42.7146,-11.69927 -82.6328,-14.86027 -102.1915,-14.60937 z" />
            <g
               style="fill:#7acbf4;fill-opacity:1"
               transform="matrix(1.6931476,0,0,1.6931476,-1918.742,-1216.5428)"
               id="g8081">
              <rect
                 style="color:#000000;clip-rule:nonzero;display:inline;overflow:visible;visibility:visible;opacity:1;isolation:auto;mix-blend-mode:normal;color-interpolation:sRGB;color-interpolation-filters:linearRGB;solid-color:#000000;solid-opacity:1;vector-effect:none;fill:#7acbf4;fill-opacity:1;fill-rule:nonzero;stroke:none;stroke-width:1.35964835;stroke-linecap:butt;stroke-linejoin:miter;stroke-miterlimit:4;stroke-dasharray:none;stroke-dashoffset:0;stroke-opacity:1;color-rendering:auto;image-rendering:auto;shape-rendering:auto;text-rendering:auto;enable-background:accumulate"
                 id="rect8077"
                 width="36.744305"
                 height="12.121831"
                 x="312.80682"
                 y="-435.7717"
                 transform="scale(1,-1)"
                 rx="6.0609155"
                 ry="6.0609155" />
              <rect
                 ry="6.0609155"
                 rx="6.0609155"
                 transform="scale(1,-1)"
                 y="-435.7717"
                 x="353.71808"
                 height="12.121831"
                 width="36.744305"
                 id="rect8079"
                 style="color:#000000;clip-rule:nonzero;display:inline;overflow:visible;visibility:visible;opacity:1;isolation:auto;mix-blend-mode:normal;color-interpolation:sRGB;color-interpolation-filters:linearRGB;solid-color:#000000;solid-opacity:1;vector-effect:none;fill:#7acbf4;fill-opacity:1;fill-rule:nonzero;stroke:none;stroke-width:1.35964835;stroke-linecap:butt;stroke-linejoin:miter;stroke-miterlimit:4;stroke-dasharray:none;stroke-dashoffset:0;stroke-opacity:1;color-rendering:auto;image-rendering:auto;shape-rendering:auto;text-rendering:auto;enable-background:accumulate" />
            </g>
            <g
               id="g8099"
               transform="matrix(4.7994737,0,0,-4.7994737,2379.2987,-2153.1563)"
               style="fill:#7acbf4;fill-opacity:1">
              <g
                 transform="matrix(0.35277777,0,0,-0.35277777,-729.79649,-334.45074)"
                 id="g8085"
                 style="fill:#7acbf4;fill-opacity:1">
                <path
                   inkscape:connector-curvature="0"
                   id="path8083"
                   style="fill:#7acbf4;fill-opacity:1;fill-rule:nonzero;stroke:none"
                   d="m 0,0 c 0,-8.98 -7.281,-16.261 -16.261,-16.261 -8.98,0 -16.26,7.281 -16.26,16.261 0,8.979 7.28,16.261 16.26,16.261 C -7.281,16.261 0,8.979 0,0" />
              </g>
              <g
                 transform="matrix(0.35277777,0,0,-0.35277777,-729.79649,-312.33013)"
                 id="g8089"
                 style="fill:#7acbf4;fill-opacity:1">
                <path
                   inkscape:connector-curvature="0"
                   id="path8087"
                   style="fill:#7acbf4;fill-opacity:1;fill-rule:nonzero;stroke:none"
                   d="m 0,0 c 0,-8.98 -7.281,-16.262 -16.261,-16.262 -8.98,0 -16.26,7.282 -16.26,16.262 0,8.98 7.28,16.262 16.26,16.262 C -7.281,16.262 0,8.98 0,0" />
              </g>
              <g
                 transform="matrix(0.35277777,0,0,-0.35277777,-715.21202,-323.80299)"
                 id="g8093"
                 style="fill:#7acbf4;fill-opacity:1">
                <path
                   inkscape:connector-curvature="0"
                   id="path8091"
                   style="fill:#7acbf4;fill-opacity:1;fill-rule:nonzero;stroke:none"
                   d="m 0,0 c 0,-8.98 -7.281,-16.26 -16.261,-16.26 -8.981,0 -16.26,7.28 -16.26,16.26 0,8.981 7.279,16.262 16.26,16.262 C -7.281,16.262 0,8.981 0,0" />
              </g>
              <g
                 transform="matrix(0.35277777,0,0,-0.35277777,-743.79736,-323.36682)"
                 id="g8097"
                 style="fill:#7acbf4;fill-opacity:1">
                <path
                   inkscape:connector-curvature="0"
                   id="path8095"
                   style="fill:#7acbf4;fill-opacity:1;fill-rule:nonzero;stroke:none"
                   d="m 0,0 c 0,-8.981 -7.281,-16.262 -16.262,-16.262 -8.98,0 -16.26,7.281 -16.26,16.262 0,8.979 7.28,16.26 16.26,16.26 C -7.281,16.26 0,8.979 0,0" />
              </g>
            </g>
            <g
               transform="matrix(1.6931476,0,0,1.6931476,-1427.7788,-589.0378)"
               id="g8103"
               style="fill:#5e829b;fill-opacity:1">
              <path
                 inkscape:connector-curvature="0"
                 id="path8101"
                 style="fill:#7acbf4;fill-opacity:1;fill-rule:nonzero;stroke:none"
                 d="M 0,0 C -0.024,3.652 -3.007,6.594 -6.66,6.568 L -23.379,6.451 v 17.597 c 0,3.653 -2.961,6.614 -6.614,6.614 h -13.23 c -3.653,0 -6.614,-2.961 -6.614,-6.614 V 6.266 L -68.946,6.132 c -3.653,-0.025 -6.595,-3.007 -6.569,-6.661 l 0.094,-13.229 c 0.025,-3.652 3.007,-6.594 6.66,-6.568 l 18.924,0.133 V -38.24 c 0,-3.653 2.961,-6.615 6.614,-6.615 h 13.23 c 3.653,0 6.614,2.962 6.614,6.615 v 18.232 l 16.904,0.118 c 3.653,0.025 6.594,3.007 6.569,6.661 z" />
            </g>
            <path
               inkscape:connector-curvature="0"
               id="path8105"
               style="fill:none;stroke:#7acbf4;stroke-width:5.07944298;stroke-linecap:butt;stroke-linejoin:miter;stroke-miterlimit:4;stroke-dasharray:none;stroke-opacity:1"
               d="m -1411.4788,-601.05327 c 0,-44.26734 -35.8829,-80.15022 -80.1502,-80.15022 -44.264,0 -80.1485,35.88288 -80.1485,80.15022 0,44.26734 35.8845,80.15022 80.1485,80.15022 44.2673,0 80.1502,-35.88288 80.1502,-80.15022 z" />
          </g>
        </g>
        <g
           id="g7876"
           transform="matrix(0.12498628,0,0,0.12498628,440.59888,131.6072)">
          <path
             id="rect7847"
             transform="scale(0.26458333)"
             d="m -7991.918,836.80469 c -26.637,0 -48.082,21.44504 -48.082,48.08203 v 418.12308 c 0,26.637 21.445,48.082 48.082,48.082 h 418.1231 c 26.637,0 48.0801,-21.445 48.0801,-48.082 V 884.88672 c 0,-26.63699 -21.4431,-48.08203 -48.0801,-48.08203 z m 11.918,59.99804 h 394.2891 V 1291.0918 H -7980 Z"
             style="color:#000000;clip-rule:nonzero;display:inline;overflow:visible;visibility:visible;opacity:1;isolation:auto;mix-blend-mode:normal;color-interpolation:sRGB;color-interpolation-filters:linearRGB;solid-color:#000000;solid-opacity:1;vector-effect:none;fill:#f4c401;fill-opacity:1;fill-rule:nonzero;stroke:none;stroke-width:0.99999994px;stroke-linecap:butt;stroke-linejoin:miter;stroke-miterlimit:4;stroke-dasharray:none;stroke-dashoffset:0;stroke-opacity:1;color-rendering:auto;image-rendering:auto;shape-rendering:auto;text-rendering:auto;enable-background:accumulate"
             inkscape:connector-curvature="0" />
          <path
             sodipodi:nodetypes="ccccccc"
             inkscape:connector-curvature="0"
             id="path7858"
             d="m -2089.6268,279.59734 21.6488,22.45064 42.9489,-48.05615 12.9855,11.55745 -53.5289,60.82023 -36.0814,-35.01231 z"
             style="fill:#f4c401;fill-opacity:1;fill-rule:evenodd;stroke:none;stroke-width:0.26458332px;stroke-linecap:butt;stroke-linejoin:miter;stroke-opacity:1" />
        </g>
      </g>
      <path
         style="fill:#ffffff;fill-opacity:0.75688076;fill-rule:nonzero;stroke:none;stroke-width:0.04814385;stroke-linecap:round;stroke-linejoin:round;stroke-miterlimit:4;stroke-dasharray:none;stroke-dashoffset:4;stroke-opacity:1"
         d="m 294.30973,83.137253 v -0.26909 z"
         id="path2276"
         sodipodi:nodetypes="ccc"
         inkscape:connector-curvature="0" />
      <g
         transform="matrix(0.12498628,0,0,0.12498628,508.91173,39.255551)"
         id="text7843"
         style="font-style:normal;font-variant:normal;font-weight:normal;font-stretch:normal;font-size:178.1493988px;line-height:111.34337616px;font-family:'namco regular';-inkscape-font-specification:'namco regular, ';letter-spacing:0px;word-spacing:0px;fill:#f4c401;fill-opacity:1;stroke:none;stroke-width:4.45373535px;stroke-linecap:butt;stroke-linejoin:miter;stroke-opacity:1"
         aria-label="My Collections">
        <g
           transform="translate(-72.445151,-63.5)"
           id="g8182">
          <path
             inkscape:connector-curvature="0"
             style="font-style:italic;font-variant:normal;font-weight:bold;font-stretch:normal;font-family:'Caflisch Script';-inkscape-font-specification:'Caflisch Script Bold Italic';fill:#333333;fill-opacity:1;stroke-width:4.45373535px"
             d="m -2095.4043,529.93164 c -9.88,3.50318 -2.6634,-3.18347 -10.5762,5.56055 -2.5221,3.21006 -4.3776,7.15879 -7.6347,14.03515 -3.3531,6.95443 -7.7122,17.18419 -13.1993,30.90039 0,0.005 0,0.008 -0.01,0.0137 0,0.01 -0.01,0.0158 -0.01,0.0254 -2.4846,6.11734 -4.3211,11.15377 -6.0703,16.04882 -0.4498,-2.17094 -1.1218,-4.31368 -1.9824,-6.41015 -1.5577,-4.03825 -4.3626,-7.53093 -7.8887,-10.02149 -0.01,-0.0656 -0.01,-0.12932 -0.016,-0.19531 a 7.5602838,7.5602838 0 0 0 0,-0.002 c -0.2756,-1.92874 -1.0215,-3.84093 -2.0859,-5.4375 -1.3378,-2.00656 -3.1975,-3.425 -5.0469,-4.34961 -2.528,-1.26403 -4.9172,-1.50977 -7.3008,-1.50977 -5.0255,0 -10.0063,2.24277 -13.5391,5.77539 -0.3212,0.32127 -0.3687,0.33388 -0.5937,0.5293 -3.6079,0.18474 -7.05,1.94845 -9.3828,4.28125 a 7.5602838,7.5602838 0 0 0 -0.461,0.50586 c -0.7493,0.89923 -1.4488,1.82443 -2.0879,2.7832 a 7.5602838,7.5602838 0 0 0 -0.4707,0.8125 c -0.8815,1.76255 -1.2747,3.50678 -1.4648,5.21875 a 7.5602838,7.5602838 0 0 0 -0.027,0.29493 c -0.029,0.40525 -0.087,0.61303 -0.1114,0.70312 -0.4315,0.67524 -0.8932,1.36284 -1.4238,2.07031 l 0.2402,-0.30468 c -0.8108,0.97299 -1.6176,2.06151 -2.5234,3.35546 a 7.5602838,7.5602838 0 0 0 -0.096,0.14258 c -0.7113,1.06689 -1.543,2.31347 -2.4941,3.74024 a 7.5602838,7.5602838 0 0 0 -0.2403,0.38476 c -0.8782,1.5057 -1.7522,3.0661 -2.6211,4.67969 -0.8725,1.62028 -1.6821,3.2486 -2.4414,4.88477 -1.5209,0.40276 -2.7661,0.95891 -3.8984,1.625 a 7.5602838,7.5602838 0 0 0 -0.3614,0.22656 c -0.3122,0.20817 -2.0618,1.28675 -4.6406,2.81055 a 7.5602838,7.5602838 0 0 0 -0.1328,0.0801 c -2.1546,1.33389 -4.94,2.81654 -8.3047,4.38672 -3.2608,1.52172 -6.7672,2.89419 -10.5293,4.11133 a 7.5602838,7.5602838 0 0 0 -0.064,0.0215 c -3.2662,1.08873 -6.194,1.57227 -8.834,1.57227 -0.533,0 -0.7409,-0.12581 -1.25,-0.54492 0.073,0.046 -0.2754,-0.44823 -0.2754,-2.76367 0,-2.26511 0.3171,-4.71031 1.0059,-7.36719 0.7321,-2.82377 1.6679,-5.52278 2.8086,-8.11524 a 7.5602838,7.5602838 0 0 0 0.043,-0.0996 c 1.1704,-2.76628 2.4861,-5.34371 3.9473,-7.74414 a 7.5602838,7.5602838 0 0 0 0,-0.002 c 1.5355,-2.5226 3.0424,-4.72017 4.498,-6.5918 a 7.5602838,7.5602838 0 0 0 0.047,-0.0586 c 3.4112,-4.47703 6.5334,-7.3402 8.8848,-8.75976 0.6706,-0.38643 1.0542,-0.49654 1.6211,-0.75977 0.294,0.75316 0.5028,1.57489 0.9492,2.16992 a 7.5602838,7.5602838 0 0 0 1.5117,1.50977 c 3.6156,2.71205 6.1651,2.00778 8.2363,1.60547 3.6641,-0.48068 6.8361,-2.15332 9.67,-4.35743 4.0672,-3.1634 6.123,-8.50627 6.123,-13.44922 0,-5.12463 -2.5462,-10.74634 -7.0019,-13.64257 -3.4848,-2.2651 -7.6226,-3.53711 -11.7793,-3.53711 -2.7586,0 -5.5517,0.3831 -8.3633,1.06836 -3.2923,0.67193 -6.6195,1.95156 -10.3496,3.74804 -7.3389,3.41159 -13.8758,7.86786 -19.4746,13.32227 -5.4198,5.16475 -10.0092,10.78667 -13.6973,16.8457 -3.6355,5.97274 -6.4112,12.16024 -8.2715,18.52735 -1.8367,6.169 -2.8066,12.17883 -2.8066,18.0039 0,8.21851 1.7944,15.59585 6.1855,21.33789 a 7.5602838,7.5602838 0 0 0 0.086,0.10938 c 4.704,5.92366 12.2592,8.91406 20.17,8.91406 4.6584,0 9.6555,-0.86458 15.2148,-2.41601 5.8251,-1.62561 11.5982,-4.16524 17.3145,-7.54297 a 7.5602838,7.5602838 0 0 0 0.01,-0.004 c 3.026,-1.79318 5.587,-3.45146 7.9316,-5.08398 0.8206,2.54386 2.0312,4.9437 3.6504,7.07421 a 7.5602838,7.5602838 0 0 0 0.2129,0.26563 c 3.4465,4.13586 8.7334,6.99414 14.1797,6.99414 7.6643,0 15.0743,-1.98228 21.7344,-5.80273 6.4312,-3.62306 12.1043,-8.3536 16.9101,-14.06446 1.0738,-1.21417 1.8772,-2.47982 2.8086,-3.7207 -0.1575,1.38903 -0.3789,2.86841 -0.3789,4.09375 0,4.51333 1.2895,9.04612 3.9668,12.67969 a 7.5602838,7.5602838 0 0 0 0.1523,0.19922 c 2.8956,3.66773 7.7365,6.25976 12.5254,6.25976 5.5958,0 11.1499,-1.71629 16.5879,-4.64453 3.3154,-1.78519 6.4444,-3.87466 9.4844,-6.10156 0.6106,1.50945 1.3362,2.97015 2.3066,4.28711 a 7.5602838,7.5602838 0 0 0 0.1524,0.19922 c 2.8955,3.66762 7.7364,6.25976 12.5254,6.25976 5.5957,0 11.1509,-1.71591 16.5898,-4.64453 4.2479,-2.2873 8.2192,-5.02607 12.0098,-8.03516 1.1633,2.1252 2.5161,4.13324 4.2168,5.83399 2.2041,2.20406 4.8516,3.96122 7.7637,5.07031 2.8005,1.13545 5.7913,1.77539 8.8046,1.77539 6.0277,0 12.0511,-0.96613 17.9707,-2.84961 a 7.5602838,7.5602838 0 0 0 0.098,-0.0312 c 5.8421,-1.94739 11.3876,-4.49325 16.6035,-7.61914 0.9694,-0.56815 1.8529,-1.20712 2.7852,-1.80664 1.1782,2.29655 2.58,4.45619 4.4746,6.20508 a 7.5602838,7.5602838 0 0 0 0.207,0.18555 c 2.3777,2.03795 5.1716,3.57294 8.1602,4.47656 2.7376,0.93818 5.6169,1.43945 8.5175,1.43945 5.1572,0 10.3823,-1.03577 15.5938,-2.95312 5.1423,-1.84897 10.1304,-4.28088 14.9414,-7.27149 a 7.5602838,7.5602838 0 0 0 0.1231,-0.0781 c 0.8015,-0.51992 1.562,-1.1251 2.3515,-1.66992 1.1596,3.13025 3.1202,6.00427 5.7637,7.89257 3.5081,2.50581 7.7207,4.08008 12.0547,4.08008 3.3519,0 6.7063,-0.66606 10.0468,-1.81836 7.5604,-2.40235 13.686,-5.15076 18.5059,-8.75781 0.8289,-0.6033 1.1528,-0.98301 1.8926,-1.53906 0.1606,0.40791 0.2422,0.83771 0.4336,1.23632 1.6482,3.44419 3.6272,6.5018 7.0683,8.64258 2.4044,1.53681 5.1344,2.76953 8.4746,2.76953 4.4449,0 8.9178,-1.13075 13.6739,-3.0332 a 7.5602838,7.5602838 0 0 0 0.055,-0.0234 c 3.3359,-1.36467 6.6798,-3.31374 10.2168,-5.80273 a 7.5602838,7.5602838 0 0 0 0.1504,-0.10742 c 0.9344,-0.69222 1.8106,-1.58272 2.7324,-2.31836 0.6588,1.34831 1.4156,2.647 2.3281,3.84765 a 7.5602838,7.5602838 0 0 0 0.2109,0.26563 c 3.4466,4.13586 8.7335,6.99414 14.1797,6.99414 7.6644,0 15.0743,-1.98228 21.7344,-5.80273 6.4306,-3.62269 12.1056,-8.35268 16.9121,-14.06446 0.5982,-0.67641 1.0099,-1.38788 1.5645,-2.07226 -0.1913,1.51042 -0.2829,3.03105 -0.1817,4.55078 a 7.5602838,7.5602838 0 0 0 0,0.0371 c 0.1733,2.42613 0.5275,5.01092 2.6875,7.69336 0.988,1.29739 2.0841,2.50656 3.3183,3.56445 a 7.5602838,7.5602838 0 0 0 0.5254,0.41211 c 2.2188,1.58476 4.9768,2.29687 7.4239,2.29687 2.1118,0 3.6904,-0.53394 5.1152,-1.14453 a 7.5602838,7.5602838 0 0 0 0.7715,-0.38672 c 2.8131,-1.60762 4.0743,-3.54069 5.3593,-5.6289 l -0.1484,0.23242 c 3.867,-5.80039 7.9059,-11.35959 12.0996,-16.70117 -0.2007,2.2119 -0.2471,4.36359 -0.098,6.45508 0.2864,4.01001 1.0797,7.71327 2.6699,11.07031 1.5416,3.25444 3.938,6.18346 7.084,8.11914 2.977,1.93747 6.5597,2.97266 10.08,2.97266 3.4506,0 6.8557,-0.77345 10.3985,-2.04883 3.4795,-1.25261 6.8537,-3.21658 10.2324,-5.62891 0.4911,0.73332 0.9618,1.50674 1.5352,2.08008 a 7.5602838,7.5602838 0 0 0 0.3671,0.34375 c 1.4567,1.27459 3.0798,2.34653 4.8047,3.20898 1.7522,0.87605 3.6398,1.48637 5.5723,1.85743 1.8087,0.43396 3.6186,0.72265 5.4688,0.72265 3.2728,0 6.2363,-0.84497 9.4628,-2.10351 1.517,-0.57239 2.9417,-1.30331 4.4024,-2.17969 l -0.7598,0.40039 c 1.563,-0.71042 3.0632,-1.49926 4.5,-2.36133 l -0.2695,0.1543 c 1.3194,-0.71968 2.5241,-1.38206 3.6152,-1.98828 a 7.5602838,7.5602838 0 0 0 0.5215,-0.31641 c 1.2696,-0.8463 2.3857,-1.70834 3.4649,-2.75976 2.0166,-1.84012 3.4266,-3.98407 4.6269,-6.38477 1.2596,-2.51931 2.2227,-5.04992 2.2227,-8.19141 0,-3.73328 -1.0513,-7.38235 -2.7891,-10.72656 -1.4446,-2.99722 -3.2962,-5.92895 -5.5352,-8.83008 l -0.01,-0.0117 c -0.01,-0.006 -0.01,-0.0131 -0.014,-0.0195 -1.272,-1.66591 -2.2872,-3.22207 -3.125,-4.67969 -0.1938,-0.44754 -0.18,-0.55256 -0.2637,-0.85546 0.6899,-0.45291 1.2835,-0.90002 2.4765,-1.40235 1.6678,-0.70223 3.6056,-1.26895 5.8438,-1.6582 a 7.5602838,7.5602838 0 0 0 0.2461,-0.0469 c 2.378,-0.49542 4.648,-0.73242 6.832,-0.73242 2.7053,0 5.6442,-0.69184 8.1133,-2.33789 a 7.5602838,7.5602838 0 0 0 0.1426,-0.0957 c 3.1256,-2.18788 5.0039,-6.47168 5.0039,-9.9336 0,-1.95491 -0.5081,-4.02236 -1.4317,-5.90429 -1.1053,-2.61045 -2.926,-4.48655 -4.8203,-5.8125 -1.8483,-1.29379 -3.9444,-2.23584 -6.123,-2.81836 -2.4753,-0.78595 -4.9602,-1.04102 -7.6543,-1.04102 -2.0577,0 -4.1459,0.24503 -6.3809,0.66407 a 7.5602838,7.5602838 0 0 0 -0.09,0.0176 c -2.225,0.44501 -4.4554,1.0975 -6.6953,1.9375 -2.2085,0.82815 -4.3513,1.797 -6.4238,2.90235 a 7.5602838,7.5602838 0 0 0 -0.1934,0.10547 c -1.9927,1.13868 -3.8698,2.44276 -5.6211,3.89257 -3.2643,2.54484 -6.1625,5.69577 -8.7461,9.36719 -2.9386,4.17605 -4.7617,8.98897 -4.7617,13.96875 0,0.11179 0.025,0.11388 0.027,0.2207 -1.486,1.71407 -2.9497,3.41394 -4.539,5.1875 -2.9839,3.21188 -5.8991,6.1865 -8.7403,8.91407 -1.8506,1.77321 -3.4769,2.97694 -5.123,4.24023 0.1008,-0.65663 0.051,-0.99275 0.2363,-1.75976 0.8922,-3.33575 2.0148,-7.0499 3.375,-11.13477 1.4781,-4.20281 2.8824,-7.72789 4.166,-10.50977 7e-4,-0.002 0,-0.004 0,-0.006 0.8038,-1.72189 1.5443,-3.26045 2.2129,-4.59766 l -0.2325,0.42773 c 0.9145,-1.56781 1.6192,-2.8571 2.2012,-4.21484 a 7.5602838,7.5602838 0 0 0 0.1719,-0.43555 c 0.8046,-2.25297 1.3301,-4.54472 1.3301,-6.99609 0,-4.36515 -2.2796,-7.55117 -4.7071,-9.97852 a 7.5602838,7.5602838 0 0 0 -0.4628,-0.42578 c -2.8594,-2.41954 -6.7302,-3.74609 -10.4063,-3.74609 -4.4503,0 -8.3598,2.99682 -10.3867,6.03711 a 7.5602838,7.5602838 0 0 0 -0.4727,0.8125 c -0.1933,0.38672 -0.3074,0.47152 -0.1875,0.35156 -0.2534,0.25345 -0.3831,0.31789 -0.094,0.125 -0.8603,0.50478 -1.747,1.05374 -2.711,1.69336 -1.0066,0.63113 -2.4503,1.70815 -3.8769,2.75781 -0.1612,-0.52548 -0.3189,-1.05181 -0.5254,-1.54687 -0.6702,-1.87911 -1.6957,-3.59033 -2.9395,-5.06641 -1.2509,-1.61459 -2.8321,-2.97237 -4.5722,-3.99414 -2.1138,-1.3576 -4.7445,-2.24023 -7.3711,-2.24023 -3.4455,0 -6.5683,1.21096 -9.293,2.90429 -3.8752,2.35018 -6.0255,5.81373 -7.8965,9.84375 a 7.5602838,7.5602838 0 0 0 -0.01,0.0156 c -0.8522,1.84645 -1.7817,4.15877 -2.8867,7.10547 -0.6905,1.84121 -1.4196,4.20674 -2.1348,6.39843 -0.4074,-1.5366 -0.8004,-3.07727 -1.4141,-4.57226 -1.5576,-4.03835 -4.3625,-7.53091 -7.8886,-10.02149 -0.01,-0.0656 -0.01,-0.12932 -0.016,-0.19531 a 7.5602838,7.5602838 0 0 0 0,-0.002 c -0.2757,-1.92933 -1.0217,-3.84133 -2.0859,-5.4375 v 0 c -1.3381,-2.00756 -3.1998,-3.4251 -5.0488,-4.34961 -2.524,-1.26188 -4.9152,-1.50977 -7.2988,-1.50977 -5.0255,0 -10.0068,2.24116 -13.541,5.77539 -0.322,0.32193 -0.3705,0.33371 -0.5957,0.5293 -3.6065,0.18562 -7.0465,1.94692 -9.3809,4.28125 a 7.5602838,7.5602838 0 0 0 -0.4609,0.50586 c -0.7496,0.89955 -1.4473,1.82529 -2.086,2.7832 a 7.5602838,7.5602838 0 0 0 -0.4726,0.8125 c -0.8808,1.76159 -1.2747,3.50632 -1.4649,5.21875 a 7.5602838,7.5602838 0 0 0 -0.027,0.29493 c -0.029,0.40635 -0.087,0.61557 -0.1113,0.70507 -0.4336,0.67902 -0.8948,1.36557 -1.4219,2.06836 l 0.2402,-0.30468 c -0.8054,0.96658 -1.6163,2.05685 -2.5254,3.35546 a 7.5602838,7.5602838 0 0 0 -0.096,0.14258 c -0.7114,1.06716 -1.5431,2.31385 -2.4941,3.74024 a 7.5602838,7.5602838 0 0 0 -0.2402,0.38476 c -0.7309,1.25293 -1.4573,2.56621 -2.1817,3.89453 -1.4153,1.50844 -2.6597,2.88496 -4.0976,4.27149 -3.0997,2.98468 -6.1925,5.78979 -9.2754,8.41601 a 7.5602838,7.5602838 0 0 0 -0.1055,0.0918 c -0.6702,0.59292 -1.1881,0.88604 -1.832,1.42383 1.1404,-3.19154 2.2701,-6.77074 3.4199,-9.4375 2.2818,-5.01566 4.7279,-9.85407 7.3418,-14.51367 l -0.031,0.0508 c 1.8455,-3.22938 2.2386,-7.84025 0.8243,-11.42188 -0.8508,-2.4149 -2.3032,-4.69285 -4.2852,-6.54101 1.8073,0.44413 3.7163,0.69221 5.9277,0.21875 2.3619,-0.4958 5.0368,-2.32822 6.3067,-4.48828 1.2813,-2.17964 1.4863,-4.19346 1.4863,-5.92383 v -6.27344 c 0.098,-1.90397 0.3945,-4.28087 0.9336,-7.08398 l -0.027,0.1289 c 0.9681,-4.59893 -1.7999,-10.76441 -5.8085,-13.17969 -3.202,-1.9724 -6.9536,-2.88476 -10.6739,-2.88476 -3.5006,0 -7.599,1.33739 -10.25,4.2832 a 7.5602838,7.5602838 0 0 0 -0.031,0.0332 c -2.8681,3.22637 -3.3566,6.55759 -3.6621,10.07031 a 7.5602838,7.5602838 0 0 0 -0.016,0.21094 c -0.1427,2.426 -0.088,4.71683 0.254,6.93945 a 7.5602838,7.5602838 0 0 0 0.014,0.0918 c 0.2601,1.56083 0.5271,2.91864 0.836,4.15429 a 7.5602838,7.5602838 0 0 0 0.064,0.24219 c 0.8212,2.87391 2.3825,5.49477 4.3692,7.66211 0.8823,0.96255 1.9256,1.74871 2.9843,2.50391 -0.3904,-0.0411 -0.7605,-0.20508 -1.1523,-0.20508 -3.8313,0 -6.5284,1.52736 -9.0938,3.29101 -1.2895,0.8866 -2.5345,1.88763 -3.7539,2.96875 -0.4286,-0.0323 -0.9635,-0.20117 -1.3301,-0.20117 -1.4378,0 -3.192,0.0644 -5.4082,0.1875 l 0.42,-0.01 c -2.1662,0 -4.5372,0.0621 -7.1289,0.18554 a 7.5602838,7.5602838 0 0 0 -0.018,0 c -1.4561,0.0728 -2.9796,0.1461 -4.4824,0.21875 0.8973,-1.90898 1.6879,-3.74906 2.873,-5.84179 1.5319,-2.68083 2.5066,-5.97658 2.0996,-9.3711 -0.407,-3.39452 -2.1889,-6.43503 -4.3867,-8.63281 -2.3599,-2.35997 -5.9471,-4.17188 -9.6211,-4.17188 -3.5963,0 -6.1866,1.27507 -8.8203,2.82422 -2.9551,1.73831 -5.601,4.19815 -7.207,7.41016 -0.7027,1.40518 -1.3724,3.03668 -2.2422,5.27344 -0.8655,2.22564 -1.7266,4.56215 -2.584,7.01172 l 0.041,-0.11524 c -0.8266,2.24355 -1.5936,4.30721 -2.3008,6.19336 -0.4368,1.16481 -0.511,1.3297 -0.7011,1.79688 -1.2086,0.25169 -2.4224,0.50222 -3.5274,0.75585 -1.3166,0.22298 -2.5194,0.45183 -3.6191,0.69141 -0.3732,0.0685 -0.758,0.23076 -1.1368,0.32422 -0.8869,-2.37212 -2.3067,-4.51149 -4.0234,-6.14453 -3.5017,-3.45118 -8.2977,-4.64453 -12.9258,-4.64453 -6.3031,0 -12.5511,1.9869 -18.5175,5.44336 -5.7761,3.23067 -10.8596,7.26801 -15.1114,12.06836 a 7.5602838,7.5602838 0 0 0 -0.082,0.0918 c -2.4023,2.80269 -4.54,5.81349 -6.4121,9.00586 0.1732,-1.24107 0.4453,-2.46591 0.4453,-3.72851 0,-4.80143 -1.5545,-9.83085 -5.1719,-13.27344 -2.759,-2.71301 -6.4157,-4.35159 -10.2051,-5.00195 -0.9102,-1.14966 -1.9512,-2.19532 -3.1894,-3.02344 -2.5941,-1.85909 -5.5637,-2.47266 -8.2324,-2.47266 -3.4746,0 -6.7983,1.11084 -9.711,2.82422 -2.4486,1.44037 -4.7864,3.14593 -7.0097,5.08984 -2.1056,1.82614 -4.0544,3.8534 -5.8477,6.05469 -1.5871,1.83698 -2.889,3.43943 -3.9336,4.93164 a 7.5602838,7.5602838 0 0 0 -0.035,0.0527 c -3.2197,4.68309 -5.677,9.44119 -7.7403,14.16797 -1.6977,1.92113 -3.3232,3.80163 -4.7773,5.25586 -2.7884,2.78836 -5.4807,5.20329 -8.0625,7.24804 -0.7182,0.56166 -1.214,0.81382 -1.8828,1.30274 0.9245,-2.90575 1.8917,-5.97432 3.0449,-9.72071 v -0.002 c 1.5059,-4.51799 3.2557,-9.47179 5.2402,-14.84375 2.0965,-5.35522 4.428,-11.01212 7,-16.97461 a 7.5602838,7.5602838 0 0 0 0.021,-0.0488 c 2.5301,-5.98003 5.4145,-12.09557 8.6563,-18.34765 a 7.5602838,7.5602838 0 0 0 0.01,-0.0137 c 2.1302,-4.12714 3.6158,-7.47004 3.8574,-11.57617 a 7.5602838,7.5602838 0 0 0 0,-0.0234 c 0.3098,-5.57496 -2.9106,-9.6202 -6.5645,-12.78125 -2.235,-2.18545 -5.5938,-3.39063 -8.4668,-3.39063 -4.3615,0 -8.213,2.60757 -10.5332,5.50781 a 7.5602838,7.5602838 0 0 0 -0.041,0.0527 c -2.5225,3.21029 -4.3777,7.15875 -7.6347,14.03515 -3.3526,6.95338 -7.7139,17.18365 -13.2012,30.90039 0,0.005 0,0.008 -0.01,0.0137 0,0.01 -0.01,0.0158 -0.01,0.0254 -3.1189,7.67912 -5.6576,14.3841 -7.6192,20.14648 a 7.5602838,7.5602838 0 0 0 -0.045,0.13672 c -0.5954,1.86536 -0.9606,3.159 -1.3691,4.55469 -1.2314,1.3877 -2.4597,2.8093 -3.4493,3.79883 -2.787,2.7871 -5.4812,5.20223 -8.0644,7.24804 -0.7183,0.56169 -1.2139,0.81379 -1.8828,1.30274 0.9246,-2.90456 1.8931,-5.97277 3.0469,-9.72071 v -0.002 c 1.5067,-4.52003 3.2543,-9.47338 5.2382,-14.84375 2.0965,-5.35522 4.428,-11.01212 7,-16.97461 a 7.5602838,7.5602838 0 0 0 0.022,-0.0488 c 2.5301,-5.98003 5.4145,-12.09557 8.6563,-18.34765 a 7.5602838,7.5602838 0 0 0 0.01,-0.0137 c 2.1293,-4.12531 3.6175,-7.46532 3.8594,-11.57617 a 7.5602838,7.5602838 0 0 0 0,-0.0234 c 0.31,-5.57903 -2.9167,-9.6269 -6.5743,-12.78907 -2.2349,-2.17974 -5.5879,-3.38281 -8.457,-3.38281 z m -335.4414,21.37695 c 4.8248,-13.88493 -54.9064,53.60534 -12.1836,8.17579 -2.12,0.81773 -4.2843,1.92635 -6.7461,3.35156 a 7.5602838,7.5602838 0 0 0 -0.1543,0.0918 c -3.3878,2.07032 -6.6756,5.91705 -6.9863,10.58008 a 7.5602838,7.5602838 0 0 0 -0.016,0.50196 c 0,2.46826 0.6514,4.6783 1.5664,6.6914 0.4242,0.9334 0.9054,1.73577 1.3652,2.58008 -0.1078,0.2953 -0.087,0.29695 -0.6094,1.40625 a 7.5602838,7.5602838 0 0 0 -0.068,0.14844 c -1.8286,4.11417 -3.8332,8.23575 -6.0137,12.36718 a 7.5602838,7.5602838 0 0 0 -0.076,0.14844 c -2.0881,4.17617 -4.1055,7.98269 -6.0488,11.41211 a 7.5602838,7.5602838 0 0 0 -0.094,0.16992 c -1.8594,3.48641 -3.4712,6.36024 -4.8007,8.57618 a 7.5602838,7.5602838 0 0 0 -0.061,0.10156 c -0.9235,1.59515 -1.1958,2.03874 -1.4746,2.50976 -3.6844,-0.2191 -8.0574,1.05676 -10.7598,4.0293 a 7.5602838,7.5602838 0 0 0 -0.025,0.0293 c -2.2166,2.46284 -3.3508,5.87363 -3.459,9.04101 -0.2505,3.00149 0.5729,5.35296 1.6035,7.41407 a 7.5602838,7.5602838 0 0 0 0.3847,0.67773 c 1.0962,1.72252 2.3744,3.36337 3.8125,4.94531 1.5849,1.74342 3.3675,3.2873 5.3184,4.58789 a 7.5602838,7.5602838 0 0 0 0.2324,0.14844 c 2.4285,1.49442 5.3089,2.54688 8.416,2.54688 6.5014,0 10.2273,-3.99318 13.8829,-8.49219 a 7.5602838,7.5602838 0 0 0 0.1796,-0.23242 c 1.8208,-2.42769 3.5597,-5.3809 5.4454,-9.02149 1.79,-3.25132 3.5025,-6.73443 5.1738,-10.3457 0.5284,3.08384 1.1905,6.13986 2.1445,9.12109 1.1159,3.48701 2.5551,6.69188 4.3731,9.57031 a 7.5602838,7.5602838 0 0 0 0.2617,0.38868 c 2.5123,3.47873 6.9919,6.33984 11.6504,6.33984 2.4682,0 4.7662,-0.68775 6.7656,-1.6875 1.5489,-0.77441 3.0545,-1.68153 4.5195,-2.70703 1.3844,-0.96907 2.6658,-1.96391 3.8477,-2.99805 a 7.5602838,7.5602838 0 0 0 0.043,-0.0391 c 1.0281,-0.9139 1.8721,-1.64347 2.4921,-2.16016 a 7.5602838,7.5602838 0 0 0 0.1387,-0.11718 c 2.2606,-1.97801 4.5522,-4.35308 6.9766,-7.16016 1.5024,-1.7283 3.0538,-3.70195 4.5898,-5.59766 -0.3446,1.4878 -0.7728,2.56132 -0.832,2.6543 a 7.5602838,7.5602838 0 0 0 -0.2461,0.41602 c -1.1696,2.1266 -2.0457,4.8192 -1.6836,7.80468 0.36,2.96758 2.0905,5.68878 4.0371,7.39063 1.7468,1.57138 3.7115,2.88076 5.8223,3.88867 2.5774,1.35734 5.5163,2.09375 8.4238,2.09375 3.4506,0 6.8833,-0.85572 9.9727,-2.40039 a 7.5602838,7.5602838 0 0 0 0.2031,-0.10547 c 2.0386,-1.09774 3.9692,-2.45823 5.8262,-4.01953 1.8362,-1.45139 3.4843,-2.95714 4.9453,-4.54688 1.2226,-1.233 2.2051,-2.56482 3.1504,-3.92968 0.1128,0.4615 0.1086,0.99768 0.2461,1.44922 a 7.5602838,7.5602838 0 0 0 0.029,0.0898 c 0.3629,1.14062 0.8676,2.27264 1.5098,3.38867 -2.2153,2.71884 -4.5995,5.60493 -6.4805,7.99219 a 7.5602838,7.5602838 0 0 0 -0.088,0.11328 c -2.9525,3.89727 -5.485,7.19577 -7.5879,9.88281 a 7.5602838,7.5602838 0 0 0 -0.2227,0.29883 c -2.801,3.96806 -4.8177,6.90359 -6.2363,9.08594 0,0.004 0,0.008 -0.01,0.0117 -1.5723,2.22845 -2.8305,4.29937 -3.8105,6.39648 -0.031,0.0702 -0.057,0.13604 -0.039,0.12891 -1.5767,0.59325 -2.7953,1.25254 -4.1816,2.13476 -2.7283,1.73609 -4.5398,3.88597 -6.586,6.61133 -1.356,1.76619 -2.4989,3.55627 -3.4472,5.4082 -1.0586,1.84728 -1.8821,3.82637 -2.4942,5.88282 -1.3067,3.93936 0.4008,9.63726 3.4199,12.29101 2.5927,2.4019 6.3015,3.87305 9.7813,3.87305 2.5682,0 5.1564,-0.47907 7.541,-1.47266 3.119,-1.29957 5.5185,-3.67308 7.1914,-6.27539 0.8703,-1.3537 1.6183,-2.26284 2.0156,-2.66015 a 7.5602838,7.5602838 0 0 0 0.3438,-0.36719 c -0.2129,0.24327 0.2366,-0.24494 1.4277,-0.80078 a 7.5602838,7.5602838 0 0 0 0.1836,-0.0879 c 1.0692,-0.53461 2.3626,-1.21517 3.9434,-2.06641 l -0.416,0.20703 c 2.002,-0.92397 3.9016,-2.07899 5.6953,-3.41211 1.8351,-1.28124 3.4911,-2.70434 4.9492,-4.29492 2.1193,-2.16821 3.9004,-5.41653 3.9004,-8.95312 0,-1.42216 -0.4368,-2.97587 -1.0859,-4.47071 0.5556,-0.74724 3.5502,-4.76075 8.9941,-11.40234 6.0926,-7.28794 13.9286,-16.84484 23.5449,-28.7168 a 7.5602838,7.5602838 0 0 0 0,-0.002 c 2.1772,-2.68932 4.422,-5.75257 6.7598,-9.19531 0,-0.004 0,-0.009 0.01,-0.0137 2.4719,-3.58478 4.768,-7.17937 6.8828,-10.7871 2.0595,-3.5132 3.9459,-6.85723 5.6582,-10.03711 1.7398,-3.23117 3.0845,-5.96146 4.0742,-8.36524 0.9554,-2.32041 1.6863,-4.54491 2.1641,-6.75195 0.5279,-2.0198 0.8984,-3.84148 0.8984,-5.92578 0,-2.44667 -0.6702,-4.94802 -1.8418,-7.05664 -0.882,-1.58774 -1.996,-3.05028 -3.2734,-4.35547 -1.1039,-1.33656 -2.3968,-2.58811 -4.0371,-3.52539 l 1.0898,0.75781 c -1.347,-1.12255 -2.9977,-2.64258 -6.6211,-2.64258 -2.679,0 -5.7935,0.90502 -8.1054,2.87695 -0.9434,0.7899 -1.898,1.67719 -2.9414,2.72071 a 7.5602838,7.5602838 0 0 0 -0.5977,0.67578 c -1.4201,1.80741 -2.6269,3.4735 -3.6406,5.06641 -0.8869,1.39382 -1.7691,2.84334 -2.6465,4.34765 -1.2517,2.14562 -2.1728,4.55554 -2.418,7.18945 -0.1845,1.87841 -0.1169,3.81928 0.3672,5.75586 l -0.045,-0.19336 c -0.02,-0.09 0.035,0.0601 -0.059,0.57227 0.062,-0.3416 -0.3335,1.02618 -1.418,2.90234 0,0.004 0,0.002 0,0.006 -0.7891,1.3469 -1.3645,2.21116 -2.0957,3.42383 0.093,-0.79035 0.22,-1.64055 0.3008,-2.4082 a 7.5602838,7.5602838 0 0 0 0,-0.0391 c 0.2564,-2.56368 0.3926,-4.87327 0.3926,-6.98828 0,-1.94813 -0.063,-3.99406 -0.1895,-6.14454 -0.1413,-2.40198 -0.5139,-4.73032 -1.0976,-6.98046 -0.5195,-2.46622 -1.4324,-4.88677 -3.0684,-7.04297 -1.84,-2.51142 -5.4451,-4.84961 -9.082,-4.84961 -4.5408,0 -8.7418,2.60702 -11.3574,5.7832 a 7.5602838,7.5602838 0 0 0 -0.031,0.0371 c -1.773,2.18223 -3.3157,4.41993 -4.6152,6.72461 -1.07,1.84195 -1.9369,3.66956 -2.4199,5.84375 a 7.5602838,7.5602838 0 0 0 -0.1231,0.70312 c -0.2196,1.7564 -0.2564,3.76882 0.6602,6.06055 -0.052,-0.12934 0.016,0.0235 0.07,0.40234 a 7.5602838,7.5602838 0 0 0 0.2148,1.00586 c -0.2724,-0.95365 0,0.0293 -0.098,1.54883 a 7.5602838,7.5602838 0 0 0 -0.012,0.25 l -0.6582,22.36914 c -1.362,-0.9356 -2.7722,-1.57923 -4.0039,-1.82031 -1.1064,-0.21657 -2.0668,-0.14336 -3.0605,-0.14062 0.049,-0.66361 0.038,-1.11092 0.125,-1.89258 v -0.002 c 0.1153,-1.03731 0.3531,-3.11728 0.709,-6.20117 a 7.5602838,7.5602838 0 0 0 0,-0.0332 c 0.3426,-3.08378 0.8049,-6.55135 1.3867,-10.39063 0.5686,-3.7527 1.252,-7.56888 2.0488,-11.44726 0.8911,-3.88684 1.8231,-7.08495 2.7207,-9.47852 a 7.5602838,7.5602838 0 0 0 0.016,-0.041 c 1.1085,-3.00871 1.7161,-6.13183 1.5195,-9.3086 -0.1578,-2.65183 -0.7402,-5.25155 -1.8867,-7.6914 -1.0069,-2.47353 -2.7025,-4.80048 -4.9453,-6.47852 -1.9843,-1.65599 -4.705,-3.08203 -7.8379,-3.08203 -3.9884,0 -6.8761,2.31067 -8.7559,4.67773 -2.4001,0.47499 -4.3874,1.76825 -5.6758,3.05665 -3.4068,3.407 -3.1415,5.90903 -3.2285,8.51757 0.019,-0.15774 -0.062,0.33489 -0.4473,1.18164 a 7.5602838,7.5602838 0 0 0 -0.2207,0.54493 c -0.1174,0.32302 -0.707,1.52602 -1.7968,3.11132 a 7.5602838,7.5602838 0 0 0 -0.061,0.0899 c -0.4236,0.63541 -1.3133,1.94197 -2.6113,3.83008 -1.2718,1.84983 -2.7944,4.01337 -4.5567,6.48046 -1.7887,2.50418 -3.6913,5.18422 -5.7148,8.04102 -1.9723,2.78429 -3.9482,5.50716 -5.9199,8.17578 -1.9543,2.52785 -3.7819,4.81995 -5.4766,6.85352 a 7.5602838,7.5602838 0 0 0 -0.1601,0.19922 c -0.4424,0.56879 -0.654,0.74735 -1.0489,1.22851 -0.5244,-5.07255 -0.9728,-10.10634 -1.2968,-15.07422 -0.3457,-5.29985 -0.4527,-9.66418 -0.3457,-12.98047 a 7.5602838,7.5602838 0 0 0 0,-0.24414 c 0,-2.44238 0.2208,-4.0443 0.2988,-4.41406 0.3786,-1.10059 0.8261,-2.2941 1.4082,-3.65234 l -0.066,0.15039 c 1.2157,-2.67472 1.5556,-6.04052 0.7715,-8.97656 -0.6394,-2.49165 -1.8831,-4.89407 -3.6074,-6.83399 a 7.5602838,7.5602838 0 0 0 0,-0.002 c -1.4939,-1.68043 -3.2926,-3.08684 -5.2559,-4.18164 -2.1225,-1.25172 -4.6865,-2.09571 -7.3418,-2.09571 z m 574.2402,23.22852 c 0,0.002 0.011,0.002 0.016,0.004 0,10e-4 0.01,0.004 0.012,0.006 z m -152.0527,1.37695 c 0.085,0.008 0.3047,0.043 0.3301,0.0527 -0.1107,-0.0103 -0.2194,-0.0442 -0.3301,-0.0527 z m 2.6426,1.2793 c 1.7553,2.17006 -0.4632,-0.68167 0,0 z m 136.5293,3.40625 c -0.052,-0.0232 -1.0331,-0.9728 0.2383,0.34961 -0.096,-0.10833 -0.1347,-0.24602 -0.2383,-0.34961 z m -9.1621,0.17969 c -0.032,0.0323 -0.017,0.0249 -0.049,0.0566 -0.036,0.0384 -0.075,0.0689 -0.1113,0.10742 z m -61.2969,4.07422 c -0.025,0.0199 -0.042,0.0445 -0.066,0.0644 -0.016,0.0136 -0.034,0.0176 -0.051,0.0312 z m 72.7051,4.17968 c 0.062,-0.3484 0.1743,-1.07663 -0.1504,0.43164 0.047,-0.18482 0.1081,-0.22061 0.1504,-0.43164 z m 117.6484,2.51758 c 0.2168,-0.33715 0.2898,-0.58778 -0.4863,0.48633 0.1528,-0.16689 0.3559,-0.31243 0.4863,-0.48633 z m -212.5996,1.05664 c -0.028,0.2086 0,0.45714 -0.022,0.67383 7e-4,0.0122 -0.032,-0.11288 -0.033,-0.0957 z m 73.2793,2.67969 c -0.016,0.036 -0.023,0.081 -0.039,0.11719 -0.028,0.0689 -0.072,0.13609 -0.1,0.20508 z m -499.6777,1.05273 c -0.04,0.16081 -0.1439,0.60092 -0.1563,0.66016 0.049,-0.4725 0.1534,-0.65023 0.1563,-0.66016 z m 451.0586,1.40235 c -0.068,0.0833 -0.1368,0.15495 -0.1036,0.10742 0.031,-0.0389 0.073,-0.0683 0.1036,-0.10742 z m 185.3339,3.40039 c 5e-4,-0.003 -0.1402,0.44325 -0.2129,0.69336 0.014,-0.52986 0.2125,-0.69086 0.2129,-0.69336 z m -207.3945,0.49023 c 12.7009,3.88602 6.5984,8.99262 15.9277,1.35938 0.2054,0.25437 0.3673,0.53528 0.6016,0.76953 a 7.5602838,7.5602838 0 0 0 0.623,0.55664 c 0.7816,0.62523 1.6104,1.22722 2.4883,1.8125 a 7.5602838,7.5602838 0 0 0 0.4766,0.28516 c -0.9875,0.88981 -1.8419,1.77179 -2.877,2.66406 -3.2359,2.78957 -6.5176,5.34182 -9.8379,7.66992 -3.2001,2.12805 -6.3468,3.85772 -9.4335,5.19531 a 7.5602838,7.5602838 0 0 0 -0.086,0.0371 c -2.3706,1.06271 -4.3871,1.48718 -6.2246,1.57617 -0.1013,-0.23229 -0.2266,-0.2605 -0.2266,-1.26953 10e-5,-1.53332 0.3405,-4.09243 1.1875,-7.375 a 7.5602838,7.5602838 0 0 0 0.014,-0.0547 c 0.6538,-2.61499 2.2277,-6.04046 4.961,-10.03516 a 7.5602838,7.5602838 0 0 0 0.082,-0.1211 c 0.8551,-1.30309 1.6037,-2.20483 2.3242,-3.07031 z m 69.3652,0.63086 c -0.7007,-0.16617 5.8429,21.42575 1.1133,4.53125 -0.011,0.0313 -0.01,0.0364 -0.018,0.0684 -0.396,0.93964 -0.8312,2.01509 -1.3828,3.44922 a 7.5602838,7.5602838 0 0 0 -0.1152,0.32227 c -0.3733,1.11988 -0.8141,2.44089 -1.2617,3.7832 -2.9179,-0.19862 -5.0836,1.13709 -6.5508,2.11523 -0.8001,0.53343 -1.9195,1.2002 -3.3106,1.94922 -1.2698,0.68379 -2.6743,1.33767 -4.2128,1.95313 a 7.5602838,7.5602838 0 0 0 -0.17,0.0703 c -1.2463,0.5341 -2.5623,1.01616 -3.9023,1.48047 0.07,-0.70779 0.2613,-1.81505 0.6387,-3.23828 0.5528,-1.77413 1.1055,-3.5952 1.6562,-5.46289 0.6678,-1.88994 1.3322,-3.72111 1.9961,-5.49414 0.5137,-1.17627 0.9241,-2.14722 1.3516,-3.15235 5.4221,-0.74927 10.037,-1.5436 14.1679,-2.375 z m -13.6953,1.27344 c 0,0.0497 0.055,0.003 -0.068,0.16016 0.02,-0.0485 0.048,-0.11209 0.068,-0.16016 z m -90.4238,3.19727 c -0.02,0.0371 -0.053,0.0918 -0.049,0.082 0.015,-0.0284 0.034,-0.0536 0.049,-0.082 z m 68.5586,0.20898 c -0.1016,0.015 -0.3242,0.0436 -0.334,0.043 0.1005,-0.0157 0.2354,-0.0265 0.334,-0.043 z m -70.6875,0.83203 c -0.01,0.018 -0.01,0.0231 -0.014,0.041 -0.01,0.0204 -0.018,0.0402 -0.025,0.0605 z m 236.6914,0.58594 c 0,0.0461 0.06,-0.14642 0,0 z m 5.207,0.60156 c 0,0.0144 -0.01,0.0383 -0.012,0.0527 0,0.0142 -0.01,0.0229 -0.012,0.0371 z m -432.789,2.16992 c 0.1373,0.17513 0.2272,0.34831 0.1347,0.25977 -0.06,-0.0761 -0.072,-0.18628 -0.1347,-0.25977 z m 21.9843,1.69336 c -0.4635,1.01153 -0.9615,1.97924 -1.4668,2.9375 0.1649,-0.37723 0.2486,-0.69996 0.4239,-1.08398 0.3081,-0.61382 0.7158,-1.23777 1.0429,-1.85352 z m 347.7618,0.0234 c -0.4577,0.99756 -0.949,1.95264 -1.4473,2.89844 0.1628,-0.37217 0.245,-0.68952 0.418,-1.06836 0.3044,-0.60662 0.7065,-1.22188 1.0293,-1.83008 z m -72.6543,1.84766 c 0.249,0.0903 -1.8089,-0.3729 0.4355,0.18945 -0.1483,-0.0428 -0.2866,-0.15967 -0.4355,-0.18945 z m -244.6739,2.625 c -0.014,0.0391 -0.03,0.0703 -0.023,0.0469 0.01,-0.0162 0.018,-0.0307 0.023,-0.0469 z m 347.7735,0 c -0.014,0.0391 -0.03,0.0703 -0.024,0.0469 0.01,-0.0161 0.018,-0.0307 0.024,-0.0469 z m 30.5683,0.47461 c 0,0.009 0,0.0167 0,0.0254 -0.01,0.0331 -0.013,0.0508 -0.019,0.084 z m -716.0683,2.31835 c 0.01,-9.3e-4 0.027,0.006 0.051,0.004 -0.018,-0.002 -0.039,0.002 -0.057,0 0,-7e-4 0,-0.003 0.01,-0.004 z m 589.4004,1.75977 c 0.015,0.0801 0.017,0.16602 0,0.12891 -0.01,-0.0489 0.01,-0.0795 0,-0.12891 z m -303.5332,1.50391 c -0.031,0.0553 -0.058,0.097 -0.041,0.0625 0.012,-0.0219 0.029,-0.0405 0.041,-0.0625 z m 479.75,0.86718 c -0.1245,0.0533 -0.2069,0.14571 -0.3282,0.20118 -0.084,0.0418 -0.195,0.0475 -0.2773,0.0918 z m -735.4336,0.10157 c -0.027,0.0566 -0.048,0.0983 -0.031,0.0625 0.01,-0.022 0.021,-0.0405 0.031,-0.0625 z m 547.666,0.31836 c -0.014,0.0476 -0.016,0.0969 -0.029,0.14453 -0.02,0.0887 -0.061,0.2033 -0.08,0.29101 z m 199.5722,0.75 c 0.055,0.0299 0.051,0.0312 -0.01,0.002 0,-6.9e-4 0,-10e-4 0.01,-0.002 z m -445.7539,0.38281 c 0,0.01 -4e-4,0.0156 0,0.0254 0,0.008 0,0.0197 -0.01,0.0273 z m 41.0586,0 c 0,0.01 -4e-4,0.0156 0,0.0254 0,0.0181 0,0.009 -0.01,0.0273 z m -264.0215,0.21094 c -0.2416,5.55338 -0.3193,5.95865 0,0 z m 652.8477,0.67773 c -0.065,0.0433 -0.1116,0.11239 -0.1758,0.15625 -0.084,0.0646 -0.187,0.10031 -0.2715,0.16602 z m -172.6523,1.0625 c -0.064,0.19271 -0.1211,0.32682 -0.086,0.20117 0.022,-0.0721 0.065,-0.1283 0.086,-0.20117 z m 167.9375,3.08789 c -0.038,0.0378 -0.066,0.0905 -0.1036,0.12891 -0.039,0.0425 -0.084,0.0666 -0.123,0.10937 z m -128.3536,3.66992 c -0.034,0.0326 -0.068,0.0612 -0.051,0.043 0.016,-0.0158 0.034,-0.0271 0.051,-0.043 z m -510.5175,2.00196 c -0.035,0.0566 -0.064,0.0918 -0.043,0.0527 0.012,-0.0193 0.031,-0.0334 0.043,-0.0527 z m 260.6465,0.61718 c -0.028,0.0228 -0.068,0.054 -0.061,0.0469 0.019,-0.0166 0.041,-0.0302 0.061,-0.0469 z m 41.0566,0 c -0.028,0.0228 -0.07,0.054 -0.062,0.0469 0.02,-0.017 0.043,-0.0299 0.062,-0.0469 z m -324.7852,39.09571 c -0.1149,0.0383 -0.1729,0.1052 -0.2832,0.14453 0.05,-0.034 0.077,-0.0725 0.1309,-0.0918 z"
             id="path8175" />
          <path
             inkscape:connector-curvature="0"
             id="path8171"
             style="font-style:italic;font-variant:normal;font-weight:bold;font-stretch:normal;font-family:'Caflisch Script';-inkscape-font-specification:'Caflisch Script Bold Italic';fill:#f4c401;fill-opacity:1;stroke-width:4.45373535px"
             d="m -1670.9415,578.99819 q 3.3848,0 5.5226,0.71259 2.1378,0.53445 3.9193,1.7815 1.7815,1.24704 2.316,2.67224 0.7126,1.24704 0.7126,2.85039 0,2.49409 -1.7815,3.74114 -1.6034,1.06889 -3.9193,1.06889 -4.0975,0 -8.373,0.89075 -4.0975,0.7126 -7.4823,2.13779 -3.3849,1.4252 -5.5226,3.20669 -1.9597,1.7815 -1.9597,3.91929 0,2.49409 1.4252,5.52263 1.6033,2.85039 3.9193,5.87893 3.0285,3.91929 4.81,7.66042 1.9597,3.74114 1.9597,7.30413 0,1.95964 -1.4252,4.81003 -1.4252,2.85039 -3.0286,4.27559 -0.8907,0.89075 -2.4941,1.95964 -1.6033,0.89075 -3.5629,1.95965 -1.7815,1.06889 -3.7412,1.95964 -1.7815,1.0689 -3.2067,1.60334 -4.0974,1.60335 -6.7696,1.60335 -1.7815,0 -3.9193,-0.53445 -1.9597,-0.3563 -3.7412,-1.24705 -1.7815,-0.89074 -3.2067,-2.13779 -1.247,-1.24704 -1.4252,-2.67224 0,-0.89075 0.1782,-1.78149 0.3563,-1.0689 1.247,-1.95965 1.9597,-2.13779 3.563,-3.20669 1.6034,-1.24704 2.8504,-1.78149 2.316,-1.24705 4.4538,0.3563 1.4251,0.53445 2.3159,0.89075 1.0689,0.17815 3.0285,0.17815 1.7815,0 2.6723,-0.7126 1.0689,-0.89075 1.0689,-1.7815 0,-1.42519 -1.0689,-3.56298 -1.0689,-2.31595 -3.0286,-4.81004 -1.4252,-1.78149 -3.2067,-4.81003 -1.7814,-3.20669 -2.6722,-5.16633 -0.7126,-1.60335 -1.247,-3.56299 -0.5345,-2.13779 -0.5345,-3.91929 0,-4.81003 3.3848,-9.62007 3.3849,-4.81003 7.3042,-7.83857 2.1378,-1.78149 4.6319,-3.20669 2.6722,-1.42519 5.5226,-2.49409 2.8504,-1.0689 5.5226,-1.60335 2.8504,-0.53444 4.9882,-0.53444 z m -92.5361,-3.02854 q 1.7815,0 3.3849,1.06889 1.6033,0.89075 2.6722,2.31595 1.247,1.42519 1.7815,3.02854 0.7126,1.60334 0.7126,3.02853 0,0.89075 -0.7126,1.60335 -0.5345,0.7126 -1.4252,0.7126 -2.1378,0 -4.81,4.63188 -1.7815,3.02854 -3.0286,7.12598 -1.0689,3.91928 -1.9596,6.23523 -0.5345,1.42519 0.1781,1.78149 0.7126,0.3563 1.9597,-1.24705 1.247,-1.24704 3.563,-3.56298 2.4941,-2.49409 5.3444,-5.16634 2.8504,-2.67224 5.7008,-5.16633 2.8504,-2.49409 4.9882,-3.91929 3.563,-2.67224 4.9882,-3.56298 1.6033,-1.0689 2.8504,-1.7815 0.5344,-0.3563 1.247,-1.06889 0.8908,-0.89075 1.6034,-2.31595 1.7815,-2.67224 4.0974,-2.67224 3.2067,0 5.5226,1.95965 2.4941,2.49409 2.4941,4.63188 0,1.95964 -0.8907,4.45374 -0.5345,1.24704 -1.7815,3.38483 -1.0689,2.1378 -2.316,4.81004 -2.1377,4.63188 -4.4537,11.22341 -2.1378,6.41338 -3.563,11.75786 -1.9596,8.01672 -0.5344,11.22341 1.4252,3.02854 3.563,3.02854 2.3159,0 6.2352,-2.67224 3.9193,-2.67224 8.1949,-6.76968 4.4537,-4.27558 9.0856,-9.26376 4.6319,-5.16634 8.7293,-9.97637 0.7126,-0.89075 1.6034,-1.0689 0.8907,-0.17815 1.4251,0.53445 0.7126,0.89075 0.3563,3.20669 -0.3563,2.13779 -2.494,5.52263 -5.5227,9.62007 -11.0453,16.03345 -5.5226,6.23523 -10.5108,9.97636 -4.9882,3.74114 -9.4419,5.34449 -4.4538,1.60334 -7.8386,1.60334 -3.3849,0 -6.0571,-1.78149 -2.6722,-1.60335 -4.2756,-4.98819 -1.6033,-3.38484 -1.9596,-8.37302 -0.3563,-4.98818 1.0689,-11.40156 1.0689,-5.16633 1.9596,-8.55117 0.8908,-3.56299 1.7815,-5.87893 1.0689,-3.02854 0.7126,-3.74114 -0.3563,-0.53445 -1.247,0 -0.8908,0.53445 -2.8504,2.49409 -7.8386,7.66043 -14.6083,16.2116 -6.5915,8.37302 -12.6486,17.45864 -1.4252,2.31594 -2.6722,3.02854 -1.2471,0.53445 -2.1378,0.53445 -1.7815,0 -3.0286,-0.89075 -1.247,-1.0689 -2.3159,-2.49409 -0.8907,-1.0689 -1.0689,-3.56299 -0.1781,-2.67224 0.5345,-5.34448 1.6033,-7.83857 3.3848,-14.7864 1.9596,-7.12598 3.563,-12.82676 1.7815,-5.87893 3.3848,-10.15451 1.6034,-4.27559 2.6723,-6.59153 2.3159,-4.98818 4.9881,-6.59153 2.8504,-1.78149 5.3445,-1.78149 z m -83.2013,53.44482 q 0,-3.56299 0.8908,-7.66043 0.8907,-4.09743 3.3848,-9.97636 1.0689,-2.31595 2.316,-4.63189 1.247,-2.31594 2.494,-4.45373 1.4252,-2.1378 2.4941,-3.74114 1.2471,-1.78149 2.1378,-2.85039 1.0689,-1.4252 1.9597,-2.85039 0.8907,-1.4252 1.0689,-3.91929 0.1781,-1.60334 0.7126,-2.67224 0.7126,-1.0689 1.6033,-2.13779 2.1378,-2.13779 4.6319,-2.13779 1.7815,0 2.8504,-0.53445 1.0689,-0.7126 2.4941,-2.1378 3.563,-3.56298 8.1949,-3.56298 2.494,0 3.9192,0.71259 1.4252,0.7126 2.1378,1.7815 0.7126,1.06889 0.8908,2.31594 0.1781,1.24705 0.1781,2.13779 0,0.89075 0.1782,1.4252 0.3563,0.3563 1.247,0.7126 4.8101,2.49409 6.7697,7.66042 2.1378,5.16633 2.1378,10.33266 0,5.34449 -2.3159,11.57972 -2.1378,6.05708 -7.6605,12.2923 -6.4133,7.66043 -14.9645,12.47046 -8.373,4.81004 -17.9931,4.81004 -4.81,0 -8.373,-4.27559 -3.3849,-4.45373 -3.3849,-10.68896 z m 16.7461,-3.02854 q 0,2.85039 1.247,4.45373 1.2471,1.4252 2.4941,1.4252 1.7815,0 3.9193,-1.0689 2.3159,-1.24705 4.81,-4.09744 1.9597,-2.13779 3.9193,-5.52263 1.9597,-3.38484 3.563,-7.12597 1.6034,-3.74114 2.6722,-7.12598 1.0689,-3.56299 1.0689,-5.87893 0,-3.38484 -1.0689,-6.41338 -0.8907,-3.02854 -3.3848,-3.02854 -0.8907,0 -2.1378,1.0689 -1.0689,0.89075 -1.9596,1.95964 -3.0286,3.56299 -5.879,7.83858 -2.6722,4.27558 -4.81,8.55117 -1.9596,4.27558 -3.2067,8.19487 -1.247,3.91929 -1.247,6.76968 z m -26.2674,-83.19577 q 3.9193,0 6.7697,1.78149 3.0286,1.7815 2.316,5.16633 -0.8908,4.63189 -1.0689,8.19488 0,3.38483 0,6.59152 0,2.67225 -1.7815,3.02854 -1.6034,0.3563 -4.0975,-0.53444 -3.0285,-1.0689 -4.9881,-3.20669 -1.9597,-2.1378 -2.6723,-4.63189 -0.3563,-1.42519 -0.7126,-3.56299 -0.3563,-2.31594 -0.1781,-5.34448 0.3563,-4.09743 1.7815,-5.70078 1.6033,-1.78149 4.6318,-1.78149 z m -22.2686,101.36701 q -1.9597,0 -4.4538,-1.60335 -2.3159,-1.42519 -4.2755,-5.52263 -2.1378,-4.45374 -0.3563,-10.68896 0.3563,-1.60335 1.0689,-3.91929 0.7125,-2.49409 1.4251,-4.98818 0.8908,-2.67225 1.6034,-4.81004 0.8907,-2.31594 1.4252,-3.56299 0.7126,-1.95964 0.7126,-2.85039 0,-1.06889 -0.7126,-2.31594 -0.5345,-1.24704 -0.7126,-2.49409 -0.1782,-1.4252 0.7126,-3.38484 1.0689,-2.67224 3.3848,-6.05708 2.4941,-3.38484 5.3445,-6.23523 2.8504,-3.02854 5.7008,-4.98818 2.8504,-1.95964 4.81,-1.95964 1.6034,0 3.0286,1.06889 1.7815,1.4252 2.6722,4.09744 1.0689,2.49409 -0.3563,4.98818 -4.0974,7.30413 -7.6604,15.1427 -3.3849,7.83857 -6.5915,18.17124 -2.6723,8.01672 1.9596,8.01672 2.1378,0 6.2352,-2.67224 4.0975,-2.67224 8.7293,-6.76968 4.8101,-4.09743 9.6201,-8.72932 4.9882,-4.81003 8.7293,-9.08562 1.6034,-1.78149 2.8504,-1.78149 1.2471,0 1.7815,0.89075 1.4252,2.67224 -1.9596,8.19487 -2.6723,4.27559 -6.7697,9.08562 -4.0974,4.81003 -8.9075,9.26377 -4.6319,4.45373 -9.4419,8.01672 -4.81,3.38484 -8.7293,4.98818 -6.2352,2.4941 -10.8671,2.4941 z m -34.664,-14.43011 q 2.3159,0 4.81,-0.71259 2.6723,-0.89075 5.1664,-1.95965 2.6722,-1.06889 4.9881,-2.31594 2.316,-1.24704 3.9193,-2.31594 1.6034,-1.0689 2.4941,-0.7126 0.8908,0.17815 1.0689,1.24705 0.1782,0.89074 -0.3563,2.31594 -0.3563,1.24704 -1.4252,2.49409 -2.4941,2.49409 -8.373,6.76968 -5.7008,4.27558 -16.3897,7.66042 -4.0975,1.4252 -7.6605,1.4252 -3.9193,0 -7.6604,-2.67224 -3.7411,-2.67224 -3.7411,-7.30413 0,-2.85039 1.9596,-8.01672 0.7126,-1.7815 1.9597,-5.52263 1.247,-3.91929 2.4941,-7.83858 1.4251,-3.91928 2.494,-7.12597 1.2471,-3.38484 1.6034,-4.27559 0.3563,-0.89075 0.1781,-1.42519 0,-0.53445 -1.4252,-0.3563 -1.0689,0.17815 -2.8503,0.3563 -1.6034,0 -3.3849,0.3563 -1.4252,0.17814 -2.4941,-0.3563 -1.0689,-0.7126 -1.9596,-1.4252 -0.8908,-0.89075 -0.8908,-2.49409 0.1782,-1.78149 1.2471,-3.02854 1.247,-1.4252 2.1378,-2.13779 1.0689,-0.89075 3.0285,-1.24705 1.6034,-0.3563 3.7411,-0.7126 2.316,-0.53444 4.9882,-1.06889 1.2471,-0.3563 1.9597,-0.7126 0.8907,-0.53445 1.4252,-1.95964 0.3563,-0.7126 1.4252,-3.56299 1.0689,-2.85039 2.3159,-6.23523 1.2471,-3.56299 2.4941,-6.76968 1.247,-3.20669 1.9596,-4.63188 1.2471,-2.49409 4.2756,-4.27559 3.0286,-1.78149 4.9882,-1.78149 2.316,0 4.2756,1.95964 3.9193,3.91929 1.0689,8.90747 -3.0285,5.34448 -4.9882,10.15452 -1.9596,4.81003 -2.4941,6.05708 -0.3563,1.06889 0.3563,1.24704 0.8908,0 1.7815,0 3.0286,0 6.5915,-0.17815 3.7412,-0.17815 7.3042,-0.3563 3.7411,-0.17815 6.7696,-0.17815 3.2067,-0.17814 4.9882,-0.17814 1.6034,0 2.1378,0.71259 0.5345,0.53445 0.1782,1.60335 -0.1782,0.89074 -1.0689,1.78149 -0.7126,0.89075 -1.6034,1.4252 -2.3159,1.24704 -9.9763,3.20669 -7.4823,1.78149 -19.4183,3.38483 -1.7815,0.3563 -2.4941,0.89075 -0.7126,0.3563 -1.4252,1.7815 -0.8908,2.13779 -2.1378,4.98818 -1.0689,2.85039 -2.1378,5.87893 -0.8907,3.02854 -1.7815,5.87893 -0.7126,2.67224 -0.8907,4.63188 -0.7126,4.09744 0,6.41338 0.8907,2.31594 4.4537,2.31594 z m -38.5359,-50.95072 q 5.1663,0 7.6604,2.49409 2.6722,2.49409 2.6722,5.34448 0,3.56299 -2.1378,6.05708 -1.9596,2.49409 -4.4537,3.74114 -1.7815,0.89074 -3.2067,0.89074 -1.4252,-0.17815 -2.1378,-0.53444 -1.7815,-0.89075 -1.4252,-3.56299 0.1782,-3.20669 -1.7815,-3.20669 -1.4252,0 -4.81,2.31594 -3.2067,2.13779 -6.9478,7.83857 -4.6319,6.76968 -6.0571,12.47046 -1.4252,5.52263 -1.4252,9.26377 0,4.09744 1.9596,6.59153 2.1378,2.31594 5.1664,2.31594 4.81,0 9.9763,-2.31594 5.3445,-2.31594 10.689,-5.87893 5.3445,-3.74114 10.5108,-8.19487 5.1663,-4.45374 9.6201,-8.90747 1.4252,-1.4252 2.6722,-1.24705 1.2471,0 1.7815,0.89075 0.7126,1.24704 0,3.38484 -0.5344,2.13779 -2.3159,4.45373 -4.8101,6.23523 -10.8671,11.75786 -6.0571,5.52263 -12.6487,9.79822 -6.5915,4.09743 -13.5393,6.59153 -6.7697,2.49409 -13.0049,2.49409 -3.2067,0 -6.2352,-1.0689 -3.0286,-0.89075 -5.5227,-3.02854 -2.3159,-2.13779 -3.7411,-5.70078 -1.4252,-3.56299 -1.4252,-8.90747 0,-3.02854 0.7126,-6.76968 0.8907,-3.91928 2.4941,-8.01672 1.6033,-4.27559 4.0974,-8.37302 2.4941,-4.27559 5.7008,-8.01672 5.5226,-6.23523 13.1831,-10.51082 7.6604,-4.45373 14.7864,-4.45373 z m -99.0776,47.20959 q 0,-6.05708 3.2067,-14.96455 3.2067,-8.90747 9.0856,-17.45864 1.2471,-1.7815 3.563,-4.45374 2.316,-2.85039 4.9882,-5.16633 2.8504,-2.49409 5.8789,-4.27559 3.0286,-1.78149 5.879,-1.78149 2.4941,0 3.9193,1.0689 1.4252,0.89074 2.3159,2.49409 1.0689,1.42519 2.6722,1.60334 4.6319,0.3563 7.4823,3.20669 2.8504,2.67224 2.8504,7.83857 0,4.81004 -2.1378,8.72932 -1.9596,3.74114 -4.6319,6.76968 -2.8504,2.85039 -7.6604,5.70078 -4.6319,2.67224 -11.936,2.67224 -1.4252,0 -2.8504,-0.3563 -1.4252,-0.53444 -2.6722,-1.06889 -1.6034,-0.7126 -2.316,0.89075 -0.7126,1.42519 -1.0689,2.67224 -0.3563,1.24704 -0.3563,3.20669 0,3.02854 1.9597,4.81003 2.1378,1.78149 6.0571,1.78149 3.9192,0 8.9074,-1.24704 5.1664,-1.24705 10.8671,-3.91929 5.879,-2.85039 12.2923,-7.48227 6.4134,-4.63189 13.1831,-11.57971 1.4252,-1.4252 2.4941,-1.4252 1.247,0 1.7815,0.89075 0.7126,1.24704 0,3.38484 -0.5345,2.13779 -2.316,4.45373 -4.6318,5.87893 -10.8671,11.40156 -6.2352,5.52263 -13.5393,9.79822 -7.126,4.27558 -15.1427,6.94783 -7.8386,2.49409 -15.6772,2.49409 -3.0285,0 -6.057,-1.24705 -2.8504,-1.0689 -5.1664,-3.38484 -2.3159,-2.31594 -3.7411,-5.52263 -1.2471,-3.20669 -1.2471,-7.48227 z m 24.0502,-18.34939 q 2.1378,0 4.4537,-1.24705 2.4941,-1.42519 4.4538,-3.38484 2.1378,-1.95964 3.3848,-4.09743 1.4252,-2.31594 1.4252,-4.27559 0,-1.95964 -1.247,-2.85039 -1.0689,-1.06889 -2.8504,-1.06889 -1.4252,0 -3.0286,1.42519 -1.6033,1.4252 -3.3848,3.56299 -1.6034,2.13779 -3.0285,4.63188 -1.4252,2.49409 -2.1378,4.63189 -0.5345,1.60334 -0.1782,2.13779 0.3563,0.53445 2.1378,0.53445 z m -66.3092,24.40647 q 0,-1.95965 0.5345,-5.52264 0.5344,-3.74113 1.9596,-9.62006 1.6034,-5.87893 4.2756,-14.25195 2.8504,-8.37303 7.4823,-19.77459 8.1949,-20.48718 13.0049,-30.46355 4.81,-10.15451 6.7697,-12.6486 2.1378,-2.67224 4.6319,-2.67224 1.9596,0 3.2067,1.24704 4.4537,3.74114 4.2755,6.94783 -0.1781,3.02854 -3.0285,8.55117 -4.9882,9.62007 -8.9075,18.88384 -3.9193,9.08562 -7.1259,17.28049 -3.0286,8.19487 -5.3445,15.1427 -2.1378,6.94782 -3.7412,11.93601 -2.1378,6.94782 -1.4252,9.44191 0.7126,2.31595 2.8504,2.31595 2.1378,0 5.5227,-1.7815 3.3848,-1.95964 7.4822,-5.16633 4.2756,-3.38484 8.7294,-7.83857 4.6318,-4.63189 9.0856,-9.97637 1.247,-1.42519 2.1378,-1.42519 1.0689,0 1.6033,0.89074 1.0689,2.31594 -1.247,6.94783 -1.9597,3.91929 -6.7697,9.62007 -4.6319,5.70078 -10.8671,10.86711 -6.0571,5.16633 -13.0049,8.90747 -6.9479,3.74114 -13.0049,3.74114 -3.9193,0 -6.5916,-3.38484 -2.4941,-3.38484 -2.4941,-8.19487 z m -41.0578,0 q 0,-1.95965 0.5344,-5.52264 0.5345,-3.74113 1.9597,-9.62006 1.6033,-5.87893 4.2756,-14.25195 2.8504,-8.37303 7.4822,-19.77459 8.1949,-20.48718 13.0049,-30.46355 4.8101,-10.15451 6.7697,-12.6486 2.1378,-2.67224 4.6319,-2.67224 1.9596,0 3.2067,1.24704 4.4537,3.74114 4.2756,6.94783 -0.1782,3.02854 -3.0286,8.55117 -4.9881,9.62007 -8.9074,18.88384 -3.9193,9.08562 -7.126,17.28049 -3.0285,8.19487 -5.3445,15.1427 -2.1378,6.94782 -3.7411,11.93601 -2.1378,6.94782 -1.4252,9.44191 0.7126,2.31595 2.8504,2.31595 2.1378,0 5.5226,-1.7815 3.3848,-1.95964 7.4823,-5.16633 4.2756,-3.38484 8.7293,-7.83857 4.6319,-4.63189 9.0856,-9.97637 1.2471,-1.42519 2.1378,-1.42519 1.0689,0 1.6034,0.89074 1.0688,2.31594 -1.2471,6.94783 -1.9596,3.91929 -6.7697,9.62007 -4.6319,5.70078 -10.8671,10.86711 -6.0571,5.16633 -13.0049,8.90747 -6.9478,3.74114 -13.0049,3.74114 -3.9193,0 -6.5915,-3.38484 -2.4941,-3.38484 -2.4941,-8.19487 z m -60.3899,-3.02854 q 0,-3.56299 0.8908,-7.66043 0.8907,-4.09743 3.3848,-9.97636 1.0689,-2.31595 2.3159,-4.63189 1.2471,-2.31594 2.4941,-4.45373 1.4252,-2.1378 2.4941,-3.74114 1.2471,-1.78149 2.1378,-2.85039 1.0689,-1.4252 1.9597,-2.85039 0.8907,-1.4252 1.0689,-3.91929 0.1781,-1.60334 0.7126,-2.67224 0.7126,-1.0689 1.6033,-2.13779 2.1378,-2.13779 4.6319,-2.13779 1.7815,0 2.8504,-0.53445 1.0689,-0.7126 2.4941,-2.1378 3.563,-3.56298 8.1948,-3.56298 2.4941,0 3.9193,0.71259 1.4252,0.7126 2.1378,1.7815 0.7126,1.06889 0.8908,2.31594 0.1781,1.24705 0.1781,2.13779 0,0.89075 0.1782,1.4252 0.3563,0.3563 1.247,0.7126 4.81,2.49409 6.7697,7.66042 2.1378,5.16633 2.1378,10.33266 0,5.34449 -2.316,11.57972 -2.1377,6.05708 -7.6604,12.2923 -6.4134,7.66043 -14.9645,12.47046 -8.3731,4.81004 -17.9931,4.81004 -4.8101,0 -8.373,-4.27559 -3.3849,-4.45373 -3.3849,-10.68896 z m 16.7461,-3.02854 q 0,2.85039 1.247,4.45373 1.2471,1.4252 2.4941,1.4252 1.7815,0 3.9193,-1.0689 2.3159,-1.24705 4.81,-4.09744 1.9597,-2.13779 3.9193,-5.52263 1.9597,-3.38484 3.563,-7.12597 1.6033,-3.74114 2.6722,-7.12598 1.0689,-3.56299 1.0689,-5.87893 0,-3.38484 -1.0689,-6.41338 -0.8907,-3.02854 -3.3848,-3.02854 -0.8907,0 -2.1378,1.0689 -1.0689,0.89075 -1.9596,1.95964 -3.0286,3.56299 -5.879,7.83858 -2.6722,4.27558 -4.81,8.55117 -1.9596,4.27558 -3.2067,8.19487 -1.247,3.91929 -1.247,6.76968 z m -26.9785,-68.05307 q 4.0974,0 7.6604,2.31594 3.563,2.31594 3.563,7.30412 0,4.98819 -3.2067,7.48228 -3.2067,2.49409 -6.0571,2.85039 -1.9596,0.3563 -2.6722,-0.17815 -0.5345,-0.7126 -0.3563,-1.60334 0.3563,-1.4252 0.3563,-1.24705 0,0 0,-1.0689 0,-0.89074 -0.8908,-1.78149 -0.8907,-0.89075 -3.0285,-0.89075 -3.0286,0 -8.5512,3.20669 -5.3445,3.20669 -11.0453,10.68896 -2.494,3.20669 -4.9881,7.30413 -2.4941,4.09744 -4.4538,8.72932 -1.9596,4.45374 -3.2067,9.26377 -1.247,4.81003 -1.247,9.26377 0,5.87893 2.6722,8.37302 2.8504,2.49409 6.4134,2.49409 5.3445,0 11.2234,-1.95964 6.0571,-1.95965 11.4016,-4.45374 5.3445,-2.49409 9.0856,-4.81003 3.9193,-2.31594 4.9882,-3.02854 3.0285,-1.78149 3.9193,-0.53445 1.0689,1.24705 -0.3563,3.74114 -1.2471,2.31594 -5.3445,6.59153 -4.0974,4.09743 -13.7175,9.79821 -7.8386,4.63189 -15.499,6.76968 -7.6604,2.13779 -13.1831,2.13779 -9.4419,0 -14.2519,-6.05708 -4.6319,-6.05708 -4.6319,-16.74604 0,-7.48227 2.4941,-15.8553 2.4941,-8.55117 7.4823,-16.74604 4.9882,-8.19487 12.4704,-15.32085 7.4823,-7.30412 17.4587,-11.93601 5.1663,-2.49409 8.7293,-3.20669 3.563,-0.89074 6.7697,-0.89074 z m -143.6344,41.15251 q 0.1782,-2.85039 -0.1781,-4.09744 -0.1782,-1.24704 -0.5345,-2.13779 -0.3563,-0.89075 -0.1781,-2.31594 0.3563,-1.60335 1.6033,-3.74114 1.6034,-2.85039 3.9193,-5.70078 2.4941,-3.02854 5.5226,-3.02854 1.7815,0 3.0286,1.78149 1.247,1.60335 1.7815,4.27559 0.7126,2.67224 0.8907,5.70078 0.1782,3.02854 0.1782,5.70078 0,2.67224 -0.3563,6.23523 -0.3563,3.38484 -0.8908,7.12597 -0.3563,3.56299 -0.7126,6.94783 -0.3563,3.38484 -0.5344,5.52263 -0.3563,3.38484 0.3563,4.98819 0.7126,1.60334 1.6033,1.60334 0.5345,0 4.6319,-4.98818 4.0974,-5.16634 11.4016,-17.63679 1.9596,-3.38484 2.3159,-5.34449 0.3563,-1.95964 0,-3.56298 -0.3563,-1.4252 -0.1781,-3.20669 0.1781,-1.95965 1.4252,-4.09744 1.247,-2.13779 2.494,-4.09744 1.2471,-1.95964 3.2067,-4.45373 1.4252,-1.4252 2.4941,-2.31594 1.2471,-1.0689 3.2067,-1.0689 0.7126,0 1.7815,0.89075 1.2471,0.7126 2.3159,2.13779 1.2471,1.24705 2.1378,2.85039 0.8908,1.60335 0.8908,3.38484 0,1.60334 -0.7126,4.27559 -0.5345,2.49409 -1.7815,5.52263 -1.247,3.02854 -3.7411,7.66042 -2.4941,4.63189 -5.5227,9.79822 -3.0285,5.16633 -6.5915,10.33266 -3.3848,4.98819 -6.4134,8.72932 -14.4301,17.81494 -23.5157,28.68206 -8.9075,10.86711 -10.3327,13.18305 -2.4941,3.38484 -1.9596,4.09744 2.6722,0.89075 2.6722,3.38484 0,1.95964 -1.7815,3.74113 -1.6033,1.7815 -3.9192,3.38484 -2.1378,1.60335 -4.4538,2.67224 -2.3159,1.24705 -3.7411,1.95965 -2.6723,1.24704 -3.9193,2.67224 -1.4252,1.42519 -3.0285,3.91929 -1.6034,2.49409 -3.7412,3.38483 -2.1378,0.89075 -4.6319,0.89075 -2.8504,0 -4.81,-1.95964 -2.1378,-1.7815 -1.247,-4.27559 0.7125,-2.49409 1.9596,-4.63188 1.0689,-2.1378 2.8504,-4.45374 2.6722,-3.56299 4.6319,-4.81003 1.9596,-1.24705 3.0285,-1.60335 2.4941,-0.89074 3.9193,-3.74113 1.0689,-2.31595 3.2067,-5.34449 1.9596,-3.02853 6.2352,-9.08561 3.2067,-4.09744 7.6604,-9.97637 4.6319,-5.87893 10.689,-13.18306 1.0689,-1.24704 0.5345,-1.24704 h -1.2471 q -2.4941,0 -3.7411,-3.91929 -1.2471,-4.09743 -0.8908,-13.18305 z m -70.7684,23.51572 q 0.8907,0 2.1378,-1.0689 1.247,-1.06889 4.2755,-3.91929 1.7815,-1.78149 4.2756,-4.98818 2.6723,-3.20669 5.7008,-7.12597 3.0285,-4.09744 6.0571,-8.37303 3.0285,-4.27558 5.7008,-8.01672 2.6722,-3.74114 4.6319,-6.59153 1.9596,-2.85039 2.6722,-3.91928 1.9596,-2.85039 2.6722,-4.81004 0.8908,-1.95964 1.0689,-3.38484 0.1782,-3.20668 1.0689,-4.09743 1.0689,-1.0689 2.1378,-1.0689 2.316,0 3.563,-1.95964 1.6034,-2.49409 3.3848,-2.49409 1.6034,0 3.2067,1.42519 1.7815,1.24705 2.6723,3.56299 1.0689,2.13779 1.247,5.16633 0.1782,2.85039 -1.0689,6.23523 -1.6033,4.27559 -3.0285,10.51082 -1.2471,6.05708 -2.1378,11.93601 -0.8908,5.87893 -1.4252,10.68896 -0.5345,4.63188 -0.7126,6.23523 -0.3563,3.20669 -0.3563,5.52263 0,2.13779 -0.1781,3.56299 0,2.67224 3.3848,1.78149 8.1949,-1.95964 8.1949,1.60335 0,1.24704 -1.2471,3.20669 -1.0689,1.78149 -3.0285,3.74113 -1.7815,1.95965 -4.2756,3.91929 -2.316,1.95964 -4.6319,3.20669 -3.2067,1.60334 -6.5915,1.60334 -2.6723,0 -4.9882,-1.24704 -2.3159,-1.0689 -4.2756,-2.85039 -2.6722,-2.31594 -0.7126,-5.87893 1.2471,-1.95965 1.9597,-5.52263 1.6033,-8.19488 3.0285,-15.1427 1.4252,-6.94783 3.3848,-16.03345 0.3563,-1.24704 -0.1781,-1.0689 -0.5345,0 -1.4252,1.4252 -3.7411,5.52263 -7.6604,11.04526 -3.9193,5.34448 -7.6605,10.33267 -3.7411,4.81003 -7.3041,8.90747 -3.3848,3.91928 -6.2352,6.41338 -1.0689,0.89074 -2.6723,2.31594 -1.4251,1.24704 -3.2066,2.49409 -1.7815,1.24705 -3.563,2.13779 -1.7815,0.89075 -3.3849,0.89075 -3.2067,0 -5.5226,-3.20669 -2.1378,-3.38484 -3.563,-7.83857 -1.4252,-4.45374 -2.1378,-9.08562 -0.7126,-4.81004 -0.8907,-7.83858 -0.3563,-5.52263 -0.8908,-9.26376 -0.3563,-3.74114 -0.3563,-7.48228 -0.1781,-1.42519 -0.7126,-1.24705 -0.3563,0 -1.0689,1.7815 -1.7815,4.45373 -4.2756,10.33266 -2.494,5.87893 -5.3444,11.75786 -2.6723,5.87893 -5.5227,11.04527 -2.6722,5.16633 -4.81,8.01672 -4.6319,5.70078 -8.0167,5.70078 -2.1378,0 -4.4538,-1.42519 -2.1378,-1.4252 -3.9192,-3.38484 -1.7815,-1.95965 -3.0286,-3.91929 -1.0689,-2.13779 -0.8907,-3.56299 0,-2.67224 1.6033,-4.45373 1.7815,-1.95965 4.9882,-1.60335 1.4252,0.17815 3.0285,-0.3563 1.7815,-0.53444 2.8504,-1.95964 0.3563,-0.53445 2.316,-3.91929 2.1378,-3.56298 4.9882,-8.90747 3.0285,-5.34448 6.2352,-11.75786 3.3848,-6.41338 6.2352,-12.82675 1.4252,-3.02854 1.6034,-4.45374 0.1781,-1.60334 -0.5345,-2.49409 -0.8907,-1.4252 -1.7815,-3.38484 -0.8907,-1.95964 -0.8907,-3.56299 0.1781,-2.67224 3.3848,-4.63188 3.3848,-1.95964 5.7008,-2.85039 1.4252,-0.53445 1.9596,-0.89075 0.7126,-0.53445 1.4252,-1.78149 0.5345,-0.89075 2.1378,-2.85039 1.7815,-2.1378 3.9193,-2.1378 1.7815,0 3.563,1.0689 1.9596,1.0689 3.3848,2.67224 1.4252,1.60335 1.9597,3.74114 0.5344,1.95964 -0.3563,3.91929 -1.0689,2.49409 -1.7815,4.63188 -0.5345,2.13779 -0.5345,6.41338 -0.1781,5.52263 0.3563,13.7175 0.5345,8.19487 1.4252,16.5679 0.8908,6.23523 1.7815,8.90747 1.0689,2.49409 1.9597,2.49409 z" />
        </g>
      </g>
    </g>
  </g>
</svg>
