<?xml version="1.0" encoding="UTF-8" standalone="no"?>
<!-- Created with Inkscape (http://www.inkscape.org/) -->

<svg
   xmlns:dc="http://purl.org/dc/elements/1.1/"
   xmlns:cc="http://creativecommons.org/ns#"
   xmlns:rdf="http://www.w3.org/1999/02/22-rdf-syntax-ns#"
   xmlns:svg="http://www.w3.org/2000/svg"
   xmlns="http://www.w3.org/2000/svg"
   xmlns:xlink="http://www.w3.org/1999/xlink"
   xmlns:sodipodi="http://sodipodi.sourceforge.net/DTD/sodipodi-0.dtd"
   xmlns:inkscape="http://www.inkscape.org/namespaces/inkscape"
   width="287.04803"
   height="197.42957"
   viewBox="0 0 75.948123 52.236574"
   version="1.1"
   id="svg9136"
   inkscape:version="0.92.0 r15299"
   sodipodi:docname="Favorites_udb.svg">
  <defs
     id="defs9130">
    <linearGradient
       inkscape:collect="always"
       xlink:href="#linearGradient5016"
       id="linearGradient8055"
       gradientUnits="userSpaceOnUse"
       gradientTransform="translate(-1011.3479,-237.33533)"
       x1="-938.11603"
       y1="-200.34273"
       x2="-938.11603"
       y2="48.2178" />
    <linearGradient
       inkscape:collect="always"
       id="linearGradient5016">
      <stop
         style="stop-color:#78c9f2;stop-opacity:1"
         offset="0"
         id="stop5012" />
      <stop
         id="stop5065"
         offset="0.88341808"
         style="stop-color:#71c2eb;stop-opacity:1" />
      <stop
         id="stop5059"
         offset="0.95896375"
         style="stop-color:#7dcef7;stop-opacity:1" />
      <stop
         style="stop-color:#6cbde6;stop-opacity:1"
         offset="1"
         id="stop5014" />
    </linearGradient>
    <linearGradient
       inkscape:collect="always"
       xlink:href="#linearGradient5024"
       id="linearGradient8057"
       gradientUnits="userSpaceOnUse"
       gradientTransform="translate(-1011.3479,-237.33533)"
       x1="-919.54083"
       y1="19.240137"
       x2="-919.54083"
       y2="28.327301" />
    <linearGradient
       inkscape:collect="always"
       id="linearGradient5024">
      <stop
         style="stop-color:#7fd0f9;stop-opacity:1"
         offset="0"
         id="stop5020" />
      <stop
         id="stop5063"
         offset="0.0441185"
         style="stop-color:#7ecff8;stop-opacity:1" />
      <stop
         style="stop-color:#6bbce5;stop-opacity:1"
         offset="1"
         id="stop5022" />
    </linearGradient>
    <linearGradient
       inkscape:collect="always"
       xlink:href="#linearGradient5055"
       id="linearGradient8059"
       gradientUnits="userSpaceOnUse"
       gradientTransform="translate(-1011.3479,-237.33533)"
       x1="-920.60986"
       y1="29.129118"
       x2="-920.60986"
       y2="37.149174" />
    <linearGradient
       inkscape:collect="always"
       id="linearGradient5055">
      <stop
         style="stop-color:#7ecff8;stop-opacity:1"
         offset="0"
         id="stop5051" />
      <stop
         style="stop-color:#6bbce5;stop-opacity:1"
         offset="1"
         id="stop5053" />
    </linearGradient>
  </defs>
  <sodipodi:namedview
     id="base"
     pagecolor="#ffffff"
     bordercolor="#666666"
     borderopacity="1.0"
     inkscape:pageopacity="0.0"
     inkscape:pageshadow="2"
     inkscape:zoom="0.35"
     inkscape:cx="-182.19028"
     inkscape:cy="593.00052"
     inkscape:document-units="px"
     inkscape:current-layer="layer1"
     showgrid="false"
     units="px"
     inkscape:window-width="1920"
     inkscape:window-height="1137"
     inkscape:window-x="1912"
     inkscape:window-y="-8"
     inkscape:window-maximized="1"
     fit-margin-top="0"
     fit-margin-left="0"
     fit-margin-right="0"
     fit-margin-bottom="0" />
  <metadata
     id="metadata9133">
    <rdf:RDF>
      <cc:Work
         rdf:about="">
        <dc:format>image/svg+xml</dc:format>
        <dc:type
           rdf:resource="http://purl.org/dc/dcmitype/StillImage" />
        <dc:title></dc:title>
      </cc:Work>
    </rdf:RDF>
  </metadata>
  <g
     inkscape:label="Layer 1"
     inkscape:groupmode="layer"
     id="layer1"
     transform="translate(-15.69856,-253.49479)">
    <g
       transform="translate(-83.687577,190.81944)"
       id="g8448">
      <g
         transform="translate(101.29762,-82.180043)"
         id="g8294">
        <g
           transform="matrix(0.12498628,0,0,0.12498628,301.97163,207.0472)"
           id="g8053">
          <path
             inkscape:connector-curvature="0"
             id="path8005"
             d="m -2285.8346,-483.03498 c -10.3069,0 -18.6045,8.29755 -18.6045,18.60454 v 25.0238 7.29309 226.95979 c 0,8.88404 7.1522,16.03623 16.0362,16.03623 h 344.7774 c 8.8841,0 16.0363,-7.15219 16.0363,-16.03623 v -234.25288 c 0,-8.88404 -7.1522,-16.03623 -16.0363,-16.03623 h -213.773 -4.6271 c -5.7326,0 -14.4514,-3.8991 -17.6165,-14.57431 -3.165,-10.67521 -15.4227,-13.00902 -18.1017,-13.00902 h 35.7182 v -0.009 z"
             style="color:#000000;clip-rule:nonzero;display:inline;overflow:visible;visibility:visible;opacity:1;isolation:auto;mix-blend-mode:normal;color-interpolation:sRGB;color-interpolation-filters:linearRGB;solid-color:#000000;solid-opacity:1;vector-effect:none;fill:#9bdcfc;fill-opacity:1;fill-rule:nonzero;stroke:none;stroke-width:0.28771281;stroke-linecap:butt;stroke-linejoin:miter;stroke-miterlimit:4;stroke-dasharray:none;stroke-dashoffset:0;stroke-opacity:1;color-rendering:auto;image-rendering:auto;shape-rendering:auto;text-rendering:auto;enable-background:accumulate" />
          <path
             inkscape:connector-curvature="0"
             id="path8007"
             d="m -2285.0985,-437.67806 c -10.7147,0 -19.3409,8.62619 -19.3409,19.34094 v 32.0337 138.82408 48.20584 c 0,5.62656 4.5299,10.15597 10.1565,10.15597 h 356.5374 c 5.6265,0 10.1564,-4.52941 10.1564,-10.15597 v -48.20584 -138.82408 -32.0337 c 0,-10.71475 -8.6261,-19.34094 -19.3409,-19.34094 z"
             style="color:#000000;clip-rule:nonzero;display:inline;overflow:visible;visibility:visible;opacity:1;isolation:auto;mix-blend-mode:normal;color-interpolation:sRGB;color-interpolation-filters:linearRGB;solid-color:#000000;solid-opacity:1;vector-effect:none;fill:url(#linearGradient8055);fill-opacity:1;fill-rule:nonzero;stroke:none;stroke-width:0.24292879;stroke-linecap:butt;stroke-linejoin:miter;stroke-miterlimit:4;stroke-dasharray:none;stroke-dashoffset:0;stroke-opacity:1;color-rendering:auto;image-rendering:auto;shape-rendering:auto;text-rendering:auto;enable-background:accumulate" />
          <rect
             style="color:#000000;clip-rule:nonzero;display:inline;overflow:visible;visibility:visible;opacity:1;isolation:auto;mix-blend-mode:normal;color-interpolation:sRGB;color-interpolation-filters:linearRGB;solid-color:#000000;solid-opacity:1;vector-effect:none;fill:url(#linearGradient8057);fill-opacity:1;fill-rule:nonzero;stroke:none;stroke-width:0.56795168;stroke-linecap:butt;stroke-linejoin:miter;stroke-miterlimit:4;stroke-dasharray:none;stroke-dashoffset:0;stroke-opacity:1;color-rendering:auto;image-rendering:auto;shape-rendering:auto;text-rendering:auto;enable-background:accumulate"
             id="rect8009"
             width="376.85016"
             height="9.0871639"
             x="-2304.4395"
             y="-218.0952"
             rx="0"
             ry="0" />
          <rect
             ry="0"
             rx="0"
             y="-208.13939"
             x="-2304.4395"
             height="7.9532351"
             width="376.85016"
             id="rect8011"
             style="color:#000000;clip-rule:nonzero;display:inline;overflow:visible;visibility:visible;opacity:1;isolation:auto;mix-blend-mode:normal;color-interpolation:sRGB;color-interpolation-filters:linearRGB;solid-color:#000000;solid-opacity:1;vector-effect:none;fill:url(#linearGradient8059);fill-opacity:1;fill-rule:nonzero;stroke:none;stroke-width:0.53133583;stroke-linecap:butt;stroke-linejoin:miter;stroke-miterlimit:4;stroke-dasharray:none;stroke-dashoffset:0;stroke-opacity:1;color-rendering:auto;image-rendering:auto;shape-rendering:auto;text-rendering:auto;enable-background:accumulate" />
          <rect
             ry="0"
             rx="0"
             y="-209.00803"
             x="-2304.4395"
             height="0.86863708"
             width="376.85016"
             id="rect8013"
             style="color:#000000;clip-rule:nonzero;display:inline;overflow:visible;visibility:visible;opacity:1;isolation:auto;mix-blend-mode:normal;color-interpolation:sRGB;color-interpolation-filters:linearRGB;solid-color:#000000;solid-opacity:1;vector-effect:none;fill:#65b5de;fill-opacity:1;fill-rule:nonzero;stroke:none;stroke-width:0.17559671;stroke-linecap:butt;stroke-linejoin:miter;stroke-miterlimit:4;stroke-dasharray:none;stroke-dashoffset:0;stroke-opacity:1;color-rendering:auto;image-rendering:auto;shape-rendering:auto;text-rendering:auto;enable-background:accumulate" />
          <rect
             style="color:#000000;clip-rule:nonzero;display:inline;overflow:visible;visibility:visible;opacity:1;isolation:auto;mix-blend-mode:normal;color-interpolation:sRGB;color-interpolation-filters:linearRGB;solid-color:#000000;solid-opacity:1;vector-effect:none;fill:#65b5de;fill-opacity:1;fill-rule:nonzero;stroke:none;stroke-width:0.17559671;stroke-linecap:butt;stroke-linejoin:miter;stroke-miterlimit:4;stroke-dasharray:none;stroke-dashoffset:0;stroke-opacity:1;color-rendering:auto;image-rendering:auto;shape-rendering:auto;text-rendering:auto;enable-background:accumulate"
             id="rect8015"
             width="376.85016"
             height="0.86863708"
             x="-2304.4395"
             y="-200.18616"
             rx="0"
             ry="0" />
          <g
             style="fill:none;fill-opacity:1"
             id="g8051"
             transform="matrix(0.35277777,0,0,-0.35277777,-1690.1846,-530.78142)">
            <path
               sodipodi:nodetypes="ccccccszcccc"
               id="path8017"
               d="m -1138.8925,-755.01323 c -14.3586,-0.24237 -60.0793,2.95326 -102.6372,14.66719 -49.7428,13.68642 -111.5302,13.63132 -161.295,0 -42.8886,-11.74695 -82.8789,-14.92065 -102.6372,-14.66719 -75.3085,0.96974 -131.9716,76.59773 -131.9716,153.96688 v 0 c 0,84.67514 69.2807,153.96687 153.9669,153.96687 0,0 116.4403,-8.77723 170.282,-8.61692 53.8416,0.1603 152.3078,8.61692 152.3078,8.61692 84.6752,-0.01 151.5646,-69.29173 151.5646,-153.96687 v 0 c 0,-77.36915 -54.2719,-152.68859 -129.5803,-153.96688 z"
               style="fill:#5ba8cf;fill-opacity:1;stroke-width:11.01967144"
               inkscape:connector-curvature="0" />
            <path
               d="m -1505.4395,-753.4082 c -74.2446,0.95604 -130.3886,75.77576 -130.3886,152.36132 0,83.79317 68.54,152.34857 152.3418,152.35938 0.1818,-0.0137 116.3239,-8.77596 170.3047,-8.61523 53.9548,0.16063 152.1614,8.5999 152.3398,8.61523 83.783,-0.0293 149.9238,-68.54129 149.9238,-152.35938 0,-38.30932 -13.456,-76.15496 -36.1953,-104.51367 -22.7393,-28.35871 -54.6807,-47.21747 -91.8066,-47.84765 -14.0631,-0.23738 -59.8372,2.95366 -102.1836,14.60937 -50.0716,13.77689 -112.0544,13.72045 -162.1445,0 -42.7146,-11.69927 -82.6328,-14.86027 -102.1915,-14.60937 z"
               id="path8019"
               style="fill:#64b4dd;fill-opacity:1;stroke-width:11.01967144"
               inkscape:original="M -1505.4609 -755.01367 C -1580.7694 -754.04393 -1637.4336 -678.41602 -1637.4336 -601.04688 C -1637.4336 -516.37173 -1568.153 -447.08008 -1483.4668 -447.08008 C -1483.4668 -447.08008 -1367.0272 -455.85758 -1313.1855 -455.69727 C -1259.3439 -455.53697 -1160.877 -447.08008 -1160.877 -447.08008 C -1076.2018 -447.09008 -1009.3125 -516.37174 -1009.3125 -601.04688 C -1009.3125 -678.41602 -1063.5842 -753.73538 -1138.8926 -755.01367 C -1153.2512 -755.25604 -1198.9714 -752.05963 -1241.5293 -740.3457 C -1291.2721 -726.65928 -1353.0594 -726.71438 -1402.8242 -740.3457 C -1445.7128 -752.09265 -1485.7026 -755.26713 -1505.4609 -755.01367 z "
               inkscape:radius="-1.6048466"
               sodipodi:type="inkscape:offset" />
            <g
               id="g8025"
               transform="matrix(1.6931476,0,0,1.6931476,-1918.742,-1216.5428)"
               style="fill:#7acbf4;fill-opacity:1">
              <rect
                 ry="6.0609155"
                 rx="6.0609155"
                 transform="scale(1,-1)"
                 y="-435.7717"
                 x="312.80682"
                 height="12.121831"
                 width="36.744305"
                 id="rect8021"
                 style="color:#000000;clip-rule:nonzero;display:inline;overflow:visible;visibility:visible;opacity:1;isolation:auto;mix-blend-mode:normal;color-interpolation:sRGB;color-interpolation-filters:linearRGB;solid-color:#000000;solid-opacity:1;vector-effect:none;fill:#7acbf4;fill-opacity:1;fill-rule:nonzero;stroke:none;stroke-width:1.35964835;stroke-linecap:butt;stroke-linejoin:miter;stroke-miterlimit:4;stroke-dasharray:none;stroke-dashoffset:0;stroke-opacity:1;color-rendering:auto;image-rendering:auto;shape-rendering:auto;text-rendering:auto;enable-background:accumulate" />
              <rect
                 style="color:#000000;clip-rule:nonzero;display:inline;overflow:visible;visibility:visible;opacity:1;isolation:auto;mix-blend-mode:normal;color-interpolation:sRGB;color-interpolation-filters:linearRGB;solid-color:#000000;solid-opacity:1;vector-effect:none;fill:#7acbf4;fill-opacity:1;fill-rule:nonzero;stroke:none;stroke-width:1.35964835;stroke-linecap:butt;stroke-linejoin:miter;stroke-miterlimit:4;stroke-dasharray:none;stroke-dashoffset:0;stroke-opacity:1;color-rendering:auto;image-rendering:auto;shape-rendering:auto;text-rendering:auto;enable-background:accumulate"
                 id="rect8023"
                 width="36.744305"
                 height="12.121831"
                 x="353.71808"
                 y="-435.7717"
                 transform="scale(1,-1)"
                 rx="6.0609155"
                 ry="6.0609155" />
            </g>
            <g
               style="fill:#7acbf4;fill-opacity:1"
               transform="matrix(4.7994737,0,0,-4.7994737,2379.2987,-2153.1563)"
               id="g8043">
              <g
                 style="fill:#7acbf4;fill-opacity:1"
                 id="g8029"
                 transform="matrix(0.35277777,0,0,-0.35277777,-729.79649,-334.45074)">
                <path
                   d="m 0,0 c 0,-8.98 -7.281,-16.261 -16.261,-16.261 -8.98,0 -16.26,7.281 -16.26,16.261 0,8.979 7.28,16.261 16.26,16.261 C -7.281,16.261 0,8.979 0,0"
                   style="fill:#7acbf4;fill-opacity:1;fill-rule:nonzero;stroke:none"
                   id="path8027"
                   inkscape:connector-curvature="0" />
              </g>
              <g
                 style="fill:#7acbf4;fill-opacity:1"
                 id="g8033"
                 transform="matrix(0.35277777,0,0,-0.35277777,-729.79649,-312.33013)">
                <path
                   d="m 0,0 c 0,-8.98 -7.281,-16.262 -16.261,-16.262 -8.98,0 -16.26,7.282 -16.26,16.262 0,8.98 7.28,16.262 16.26,16.262 C -7.281,16.262 0,8.98 0,0"
                   style="fill:#7acbf4;fill-opacity:1;fill-rule:nonzero;stroke:none"
                   id="path8031"
                   inkscape:connector-curvature="0" />
              </g>
              <g
                 style="fill:#7acbf4;fill-opacity:1"
                 id="g8037"
                 transform="matrix(0.35277777,0,0,-0.35277777,-715.21202,-323.80299)">
                <path
                   d="m 0,0 c 0,-8.98 -7.281,-16.26 -16.261,-16.26 -8.981,0 -16.26,7.28 -16.26,16.26 0,8.981 7.279,16.262 16.26,16.262 C -7.281,16.262 0,8.981 0,0"
                   style="fill:#7acbf4;fill-opacity:1;fill-rule:nonzero;stroke:none"
                   id="path8035"
                   inkscape:connector-curvature="0" />
              </g>
              <g
                 style="fill:#7acbf4;fill-opacity:1"
                 id="g8041"
                 transform="matrix(0.35277777,0,0,-0.35277777,-743.79736,-323.36682)">
                <path
                   d="m 0,0 c 0,-8.981 -7.281,-16.262 -16.262,-16.262 -8.98,0 -16.26,7.281 -16.26,16.262 0,8.979 7.28,16.26 16.26,16.26 C -7.281,16.26 0,8.979 0,0"
                   style="fill:#7acbf4;fill-opacity:1;fill-rule:nonzero;stroke:none"
                   id="path8039"
                   inkscape:connector-curvature="0" />
              </g>
            </g>
            <g
               style="fill:#5e829b;fill-opacity:1"
               id="g8047"
               transform="matrix(1.6931476,0,0,1.6931476,-1427.7788,-589.0378)">
              <path
                 d="M 0,0 C -0.024,3.652 -3.007,6.594 -6.66,6.568 L -23.379,6.451 v 17.597 c 0,3.653 -2.961,6.614 -6.614,6.614 h -13.23 c -3.653,0 -6.614,-2.961 -6.614,-6.614 V 6.266 L -68.946,6.132 c -3.653,-0.025 -6.595,-3.007 -6.569,-6.661 l 0.094,-13.229 c 0.025,-3.652 3.007,-6.594 6.66,-6.568 l 18.924,0.133 V -38.24 c 0,-3.653 2.961,-6.615 6.614,-6.615 h 13.23 c 3.653,0 6.614,2.962 6.614,6.615 v 18.232 l 16.904,0.118 c 3.653,0.025 6.594,3.007 6.569,6.661 z"
                 style="fill:#7acbf4;fill-opacity:1;fill-rule:nonzero;stroke:none"
                 id="path8045"
                 inkscape:connector-curvature="0" />
            </g>
            <path
               d="m -1411.4788,-601.05327 c 0,-44.26734 -35.8829,-80.15022 -80.1502,-80.15022 -44.264,0 -80.1485,35.88288 -80.1485,80.15022 0,44.26734 35.8845,80.15022 80.1485,80.15022 44.2673,0 80.1502,-35.88288 80.1502,-80.15022 z"
               style="fill:none;stroke:#7acbf4;stroke-width:5.07944298;stroke-linecap:butt;stroke-linejoin:miter;stroke-miterlimit:4;stroke-dasharray:none;stroke-opacity:1"
               id="path8049"
               inkscape:connector-curvature="0" />
          </g>
        </g>
        <path
           sodipodi:type="star"
           style="opacity:1;fill:#f4c401;fill-opacity:1;fill-rule:nonzero;stroke:none;stroke-width:14.80892944;stroke-linecap:round;stroke-linejoin:round;stroke-miterlimit:4;stroke-dasharray:none;stroke-dashoffset:4;stroke-opacity:1"
           id="path7657"
           sodipodi:sides="5"
           sodipodi:cx="52.952892"
           sodipodi:cy="25.510532"
           sodipodi:r1="121.72647"
           sodipodi:r2="76.832565"
           sodipodi:arg1="0.60469864"
           sodipodi:arg2="1.2330172"
           inkscape:flatsided="false"
           inkscape:rounded="0.20136392"
           inkscape:randomized="0"
           d="M 153.09403,94.713757 C 144.53658,107.09689 92.616372,93.013297 78.414631,98.001518 64.21289,102.98974 32.50348,146.4474 18.082028,142.13539 3.6605746,137.82337 1.0106378,84.092245 -8.1220219,72.127031 -17.254681,60.161818 -68.384124,43.433534 -68.739625,28.385431 c -0.3555,-15.048104 49.926959,-34.1721736 58.484406,-46.555303 8.557447,-12.38313 8.6671236,-66.179444 22.868864,-71.167664 14.201742,-4.988221 47.927947,36.923576 62.3494,41.235595 14.421453,4.312018 65.618675,-12.207649 74.751335,-0.242435 9.13266,11.965214 -20.30585,56.9921987 -19.95035,72.040303 0.3555,15.048103 31.88745,58.634701 23.33,71.01783 z"
           transform="matrix(0.07471629,0.02743847,-0.02743847,0.07471629,55.162201,163.67787)" />
      </g>
      <g
         transform="matrix(0.12498628,0,0,0.12498628,521.96105,29.403566)"
         id="g8145">
        <g
           aria-label="Favorites"
           style="font-style:normal;font-variant:normal;font-weight:normal;font-stretch:normal;font-size:178.1493988px;line-height:111.34337616px;font-family:'namco regular';-inkscape-font-specification:'namco regular, ';letter-spacing:0px;word-spacing:0px;fill:#f4c401;fill-opacity:1;stroke:none;stroke-width:4.45373535px;stroke-linecap:butt;stroke-linejoin:miter;stroke-opacity:1"
           id="text7839">
          <path
             inkscape:connector-curvature="0"
             style="font-style:italic;font-variant:normal;font-weight:bold;font-stretch:normal;font-family:'Caflisch Script';-inkscape-font-specification:'Caflisch Script Bold Italic';fill:#333333;fill-opacity:1;stroke-width:4.45373535px"
             d="m -2976.7285,554.32812 c -8.2238,2.55051 -3.2051,-2.80596 -9.0899,3.78321 -3.7138,7.07046 -3.2678,3.18205 -3.2793,9.3164 -0.7547,4.85675 2.588,18.15777 1.1114,10.89649 0.7482,2.61869 2.1664,5.01248 4.0097,7.02344 2.0031,2.18522 4.5776,3.80265 7.3887,4.79687 2.2571,0.80543 4.6157,1.32415 7.3203,0.74219 1.9875,-0.41694 4.1916,-1.92997 5.2559,-3.74024 1.074,-1.82678 1.2676,-3.56374 1.2676,-5.11718 v -6.35157 c 0.103,-2.00103 0.4112,-4.44816 0.9609,-7.30664 l -0.022,0.10157 c 0.8651,-4.109 -1.4877,-9.33971 -5.0742,-11.49219 -2.9262,-1.80627 -6.3634,-2.65234 -9.8496,-2.65235 z m -331.4727,13.36133 c -6.0947,-1.55863 -12.1947,11.36775 -9.0625,6.04688 -3.0912,-0.26188 -6.2769,0.35533 -8.8437,1.98437 -2.381,1.39561 -4.4265,3.3122 -6.0996,5.58008 -1.5051,1.92806 -2.7027,3.80827 -3.4864,5.9375 -0.8742,2.28751 -1.4693,4.98209 -0.3632,7.93164 0.5381,1.43495 1.2647,2.79874 2.1562,4.04688 a 5.9672023,5.9672023 0 0 0 0.082,0.11132 c 1.1702,1.56068 3.1618,2.78868 5.0293,3.16211 a 5.9672023,5.9672023 0 0 0 0.1895,0.0332 c 1.7457,0.29096 3.2074,-0.0626 4.5312,-0.57813 -0.1644,0.49634 -0.2667,0.91852 -0.4492,1.43555 a 5.9672023,5.9672023 0 0 0 -0.068,0.20703 c -0.581,1.8592 -1.1599,3.65693 -1.7383,5.39258 0,0.008 -0.01,0.0159 -0.01,0.0234 -0.5345,1.49803 -0.9105,2.57001 -1.17,3.34179 0.089,-0.20026 0.2494,-0.32666 0.043,-0.17187 -0.7881,0.59108 -2.6361,1.90553 -5.3379,3.78515 -2.1058,1.45795 -4.2175,3.09214 -5.0664,6.48829 a 5.9672023,5.9672023 0 0 0 -0.1308,0.70703 c -0.3051,2.43946 0.3772,4.79491 1.4179,6.66797 a 5.9672023,5.9672023 0 0 0 0.25,0.41015 c 0.1648,0.24724 0.5822,1.02066 1.0391,1.99805 -0.095,0.35367 -0.2481,0.90849 -0.541,1.88476 -0.3708,1.23631 -0.7421,2.5327 -1.1114,3.88672 -0.3392,1.24391 -0.6765,2.42239 -1.0117,3.54102 -0.2473,0.74205 -0.3897,1.16911 -0.5136,1.54101 -0.12,0.23227 -0.2347,0.43191 -0.3497,0.63868 -3.2937,1.83654 -5.7966,3.31838 -7.7343,6.36328 l 0.8144,-1.01563 c -1.8598,1.85991 -2.6386,4.5395 -2.6386,6.71289 a 5.9672023,5.9672023 0 0 0 0.047,0.74024 c 0.3954,3.16452 2.4711,5.43008 4.4571,6.82031 a 5.9672023,5.9672023 0 0 0 0.1132,0.0762 c 2.0421,1.36122 4.177,2.08078 6.7793,2.76563 a 5.9672023,5.9672023 0 0 0 0.07,0.0195 c 2.9208,0.73021 6.0225,1.06836 9.2871,1.06836 3.0519,0 6.0665,-0.35009 9.0058,-1.04688 2.8487,-0.64852 5.4948,-1.4372 7.9414,-2.38867 a 5.9672023,5.9672023 0 0 0 0.1524,-0.0625 c 2.5119,-1.05768 4.7729,-2.21047 6.791,-3.50781 a 5.9672023,5.9672023 0 0 0 0.2422,-0.16406 c 1.9897,-1.4212 3.7034,-2.93397 5.1093,-4.69141 1.4479,-1.80972 2.9864,-4.1642 2.4961,-7.59766 -0.3238,-2.26636 -2.867,-5.09165 -4.9785,-5.69531 -2.1115,-0.60366 -3.4796,-0.28461 -4.7636,0.0117 a 5.9672023,5.9672023 0 0 0 -0.1055,0.0254 c -1.5416,0.38537 -3.4905,0.62255 -5.4649,0.84375 0.085,-0.16029 0.1693,-0.30985 0.2539,-0.4707 1.1289,-2.14468 2.4476,-4.5479 3.9278,-7.16992 0.2835,-0.42026 0.5017,-0.64234 0.3847,-0.54883 0.037,-0.0169 0.017,-0.0224 0.2051,-0.0566 a 5.9672023,5.9672023 0 0 0 0.1035,-0.0195 c 1.7006,-0.34013 3.2728,-0.62225 4.711,-0.84376 0,-7.2e-4 0.011,-10e-4 0.016,-0.002 1.6418,-0.23456 3.2833,-0.46877 4.9238,-0.70312 1.6242,-0.23204 3.3712,-0.46558 5.2403,-0.69922 a 5.9672023,5.9672023 0 0 0 0.3593,-0.0547 c 1.7986,-0.33722 3.8581,-0.68187 6.1582,-1.02734 4.3375,-0.61964 7.7658,-1.28954 10.5723,-2.17578 a 5.9672023,5.9672023 0 0 0 0.2656,-0.0898 c 1.2234,-0.45068 2.1916,-0.93247 3.2832,-1.39648 0,-8e-4 0,-0.001 0.01,-0.002 -0.01,0.0175 -0.021,0.0333 -0.029,0.0508 -2.9329,5.62691 -4.9222,10.09788 -5.9648,13.9707 -0.9067,3.36741 -1.4512,6.14802 -1.4512,8.85547 0,2.51366 0.5744,5.06937 1.7969,7.31054 a 5.9672023,5.9672023 0 0 0 0.205,0.34571 c 1.0321,1.62168 2.1843,3.09831 3.4864,4.40039 a 5.9672023,5.9672023 0 0 0 0.289,0.27148 c 1.2646,1.10653 2.6226,2.06225 4.1114,2.80664 a 5.9672023,5.9672023 0 0 0 0.2441,0.11719 c 1.4428,0.64124 2.7312,1.22656 4.918,1.22656 5.4632,0 10.5895,-2.44931 15.7851,-6.30078 1.3884,-0.97616 2.8914,-2.1762 4.5918,-3.63086 1.8136,-1.45383 3.5219,-2.91512 5.125,-4.39062 0.044,-0.0378 0.075,-0.0736 0.1192,-0.11133 0.8428,3.18302 2.2959,6.13861 4.4121,8.60742 a 5.9672023,5.9672023 0 0 0 0.1054,0.12109 c 3.2343,3.57465 7.9785,5.70508 12.7969,5.70508 4.1685,0 8.2435,-1.37202 12.1973,-3.62695 3.1877,-1.7638 6.2461,-4.03802 9.2344,-6.59961 0.6639,1.69495 1.4393,3.29577 2.5429,4.71484 a 5.9672023,5.9672023 0 0 0 0.25,0.30274 c 1.3996,1.57454 3.0827,2.92194 5.0645,3.80273 1.4428,0.64125 2.731,1.22657 4.9179,1.22657 1.9998,0 4.049,-0.22658 6.1582,-0.64844 2.6068,-0.52132 5.1859,-1.55774 8.0899,-3.00977 2.8088,-1.40439 5.6997,-3.04085 8.6875,-4.9082 a 5.9672023,5.9672023 0 0 0 0.1484,-0.0957 c 3.1991,-2.13271 6.3723,-4.73194 9.5528,-7.78516 3.2342,-3.10494 6.4463,-6.77025 9.6777,-10.99414 v -0.004 c 3.0175,-3.91182 6.0135,-8.57678 9.0235,-13.77929 0.4048,0.051 0.7757,0.18539 1.207,0.22461 1.5118,0.13743 3.4441,0.18116 5.7442,0.18945 -0.043,0.0928 -0.096,0.1845 -0.1387,0.27734 a 5.9672023,5.9672023 0 0 0 -0.074,0.16992 c -1.7578,4.14317 -3.0092,7.75678 -3.7227,11.03907 -0.6702,3.08272 -1.0273,6.05555 -1.0273,8.92773 0,5.23632 1.533,10.26134 4.6015,14.29883 a 5.9672023,5.9672023 0 0 0 0.166,0.21094 c 3.2209,3.86486 7.9827,6.42187 12.9571,6.42187 7.3987,0 14.5085,-1.90297 20.9394,-5.59179 6.2961,-3.54525 11.8411,-8.17284 16.545,-13.7793 4.0194,-4.55309 7.0043,-9.23625 8.7441,-14.14844 0.2497,-0.67485 0.3597,-1.32838 0.5762,-1.99805 -0.3855,2.0837 -0.7545,4.1583 -1.3145,6.31836 a 5.9672023,5.9672023 0 0 0 -0.049,0.20313 c -0.6569,2.95603 -1.4701,5.71614 -2.4336,8.28515 a 5.9672023,5.9672023 0 0 0 -0.074,0.20899 c -0.7945,2.38341 -1.2648,4.81971 -0.7266,7.50976 a 5.9672023,5.9672023 0 0 0 0.027,0.125 c 0.5105,2.29774 1.6989,4.2374 3.1308,5.85352 3.1164,3.57172 7.4278,6.12305 12.1367,6.12305 3.0353,0 6.1241,-1.35463 8.2539,-3.38086 2.1298,-2.02623 3.5193,-4.53608 4.6172,-7.39063 l -0.061,0.15235 c 0.4864,-1.16746 1.3956,-3.10787 2.6406,-5.60157 1.3867,-2.54156 2.9435,-5.36952 4.6738,-8.48437 1.8374,-3.09889 3.7906,-6.20046 5.8614,-9.30664 a 5.9672023,5.9672023 0 0 0 0.055,-0.084 c 2.0227,-3.14638 4.0824,-5.98042 6.1719,-8.50976 a 5.9672023,5.9672023 0 0 0 0.059,-0.0742 c 2.2137,-2.76711 3.9925,-4.63907 4.9961,-5.5 0.2902,-0.21327 0.4073,-0.24736 0.6055,-0.3418 a 5.9672023,5.9672023 0 0 0 0.037,0.0117 c 0.4337,0.12392 0.6605,0.24472 0.7051,0.27149 l -0.057,-0.0352 c 2.287,1.4074 5.6959,1.50949 7.9707,0.55664 0.7166,-0.30015 1.2575,-0.72447 1.8438,-1.11523 -0.042,0.6345 -0.1692,1.23603 -0.084,1.91796 a 5.9672023,5.9672023 0 0 0 0.014,0.10352 c 0.1964,1.37489 0.5847,2.72126 1.1328,4 a 5.9672023,5.9672023 0 0 0 0.057,0.11719 c -0.052,0.21422 -0.073,0.36378 -0.1777,0.65234 0,0.003 -7e-4,0.004 0,0.008 -0.391,0.92601 -0.8276,2.01262 -1.3847,3.46094 a 5.9672023,5.9672023 0 0 0 -0.092,0.25586 c -0.4744,1.42328 -1.0093,3.02566 -1.6035,4.80859 a 5.9672023,5.9672023 0 0 0 -0.076,0.2461 l -1.3926,4.875 c -0.4777,1.55265 -0.8382,2.88913 -1.1211,4.125 -1.4374,5.09184 -1.4306,10.30833 0.7285,14.8125 7e-4,10e-4 0,0.003 0,0.004 6e-4,10e-4 0,0.003 0,0.004 1.5753,3.2921 3.4378,6.09318 6.4805,7.98438 2.2484,1.43808 4.716,2.52539 7.6289,2.52539 4.1589,0 8.4542,-1.06993 13.084,-2.92188 a 5.9672023,5.9672023 0 0 0 0.043,-0.0176 c 3.1836,-1.30237 6.435,-3.19089 9.9023,-5.63086 a 5.9672023,5.9672023 0 0 0 0.1172,-0.084 c 0.9984,-0.73959 1.9378,-1.68994 2.9219,-2.48047 1.0564,2.6987 2.7737,5.14945 5.1074,6.81641 3.2945,2.35318 7.1575,3.78515 11.1289,3.78515 3.1475,0 6.3344,-0.62834 9.5469,-1.73828 7.4701,-2.37243 13.4579,-5.07884 18.0644,-8.5293 1.8989,-1.38203 2.8436,-2.32471 4.2793,-3.47656 a 5.9672023,5.9672023 0 0 0 0.018,0.0449 c 1.22,2.74478 2.8881,5.23189 4.9746,7.31836 2.0656,2.06551 4.5187,3.68942 7.2188,4.71485 2.6357,1.07104 5.421,1.66601 8.2246,1.66601 5.8585,0 11.7114,-0.93854 17.4843,-2.77539 a 5.9672023,5.9672023 0 0 0 0.078,-0.0254 c 5.4563,-1.81878 10.6241,-4.20401 15.5215,-7.06836 a 5.9672023,5.9672023 0 0 0 0.037,0.54492 c 0.3041,2.43231 1.5889,4.6142 3.125,6.1504 a 5.9672023,5.9672023 0 0 0 0.289,0.27148 c 1.3501,1.18137 2.8574,2.17667 4.4688,2.98242 1.6353,0.81764 3.3883,1.38778 5.1875,1.73047 1.7281,0.41707 3.4349,0.68164 5.1406,0.68164 2.9529,0 5.7678,-0.77685 8.8887,-1.99414 1.3932,-0.52451 2.7378,-1.212 4.1347,-2.04883 1.2929,-0.61089 2.5633,-1.2512 3.7657,-1.97265 l -0.2129,0.12109 c 1.3168,-0.71825 2.5172,-1.37885 3.6035,-1.98242 a 5.9672023,5.9672023 0 0 0 0.4101,-0.25 c 1.2279,-0.81847 2.2825,-1.6335 3.2657,-2.59571 1.8186,-1.65522 3.1395,-3.6442 4.2851,-5.93554 1.1959,-2.39185 2.0547,-4.7298 2.0547,-7.47852 0,-3.44467 -0.9658,-6.83952 -2.6133,-10.00586 -1.396,-2.90256 -3.2029,-5.76103 -5.4023,-8.60742 l 0.02,0.0234 c -1.3362,-1.74737 -2.414,-3.39388 -3.3047,-4.95117 -0.4951,-1.1029 -0.6224,-1.81103 -0.6738,-2.34571 0.8424,-0.65701 1.9904,-1.38928 3.6914,-2.10547 1.792,-0.7545 3.8473,-1.35243 6.1895,-1.75976 a 5.9672023,5.9672023 0 0 0 0.1953,-0.0371 c 2.4777,-0.51618 4.8568,-0.76563 7.1562,-0.76563 2.4606,0 5.0572,-0.62272 7.2285,-2.07031 a 5.9672023,5.9672023 0 0 0 0.1114,-0.0762 c 2.7174,-1.90213 4.3261,-5.54635 4.3261,-8.62891 0,-1.75617 -0.4468,-3.59093 -1.2754,-5.25586 -0.9496,-2.27083 -2.5541,-3.93637 -4.2968,-5.15625 -1.7085,-1.19589 -3.6365,-2.0611 -5.6504,-2.5957 -2.2616,-0.72433 -4.6103,-0.97656 -7.2129,-0.97656 -1.9244,0 -3.9234,0.23089 -6.0879,0.63672 a 5.9672023,5.9672023 0 0 0 -0.07,0.0137 c -2.1275,0.42549 -4.2776,1.05279 -6.4492,1.86719 -2.1423,0.80334 -4.2236,1.74102 -6.2364,2.81445 a 5.9672023,5.9672023 0 0 0 -0.1523,0.0859 c -1.9231,1.09892 -3.7218,2.35134 -5.3965,3.73828 -3.1317,2.4353 -5.9381,5.4753 -8.457,9.05469 -2.7949,3.97171 -4.4727,8.44644 -4.4727,13.05273 0,0.99484 0.2465,1.9932 0.3965,2.98828 -2.2286,2.00988 -4.4815,4.07598 -6.5019,5.53516 -2.6097,1.88479 -5.0824,3.42351 -7.4883,4.80469 1.4654,-1.09167 2.7916,-2.22128 3.9785,-3.40821 a 5.9672023,5.9672023 0 0 0 0.2559,-0.27148 c 2.0941,-2.3732 3.8973,-5.01913 5.4082,-7.89258 1.9061,-3.50784 2.8535,-7.47745 2.8535,-11.55469 0,-4.51146 -1.4269,-9.03257 -4.6817,-12.125 -2.6694,-2.63163 -6.2428,-4.16856 -9.9902,-4.68359 -0.8838,-1.22649 -1.9316,-2.34331 -3.209,-3.19141 -2.253,-1.62182 -4.8719,-2.17773 -7.3262,-2.17773 -3.1427,0 -6.1798,1.00292 -8.9043,2.60547 -2.3593,1.38785 -4.6173,3.03625 -6.7734,4.92187 -0.1871,0.16231 -0.3368,0.37349 -0.5215,0.53906 -1.605,-0.90328 -3.2993,-1.11914 -4.5937,-1.11914 -1.3616,0 -3.0743,0.0685 -5.2032,0.18555 -2.0826,0.004 -4.345,0.061 -6.8378,0.17969 a 5.9672023,5.9672023 0 0 0 -0.016,0 c -2.3327,0.11664 -4.7266,0.23283 -7.1777,0.34961 1.1276,-2.63692 2.4251,-5.38708 4.1172,-8.37305 l -0.012,0.0195 c 1.4097,-2.46707 2.262,-5.40256 1.9023,-8.39453 -0.3597,-2.99197 -1.9242,-5.68394 -3.9336,-7.69336 -2.138,-2.13785 -5.269,-3.70703 -8.4941,-3.70703 -3.1138,0 -5.5095,1.13246 -8.0137,2.60547 -2.7592,1.6231 -5.1447,3.8677 -6.5859,6.75 -0.6533,1.30636 -1.3215,2.91965 -2.1836,5.13672 -0.8585,2.20728 -1.7126,4.52688 -2.5645,6.96093 l 0.031,-0.0918 c -0.8281,2.24748 -1.5949,4.31561 -2.3028,6.20312 -0.607,1.61885 -0.9819,2.48767 -1.0254,2.61524 -1.5621,0.31788 -3.0715,0.63653 -4.4628,0.95703 -1.2985,0.22014 -2.4895,0.44226 -3.5665,0.67773 -1.9566,0.35952 -3.9392,1.04492 -5.7031,2.5 -0.1924,0.15532 -0.3521,0.36765 -0.5351,0.5293 0.039,-1.5383 -0.1827,-3.06895 -0.7344,-4.45117 -0.8814,-2.52188 -2.3327,-4.91149 -4.4942,-6.64063 a 5.9672023,5.9672023 0 0 0 -0.1464,-0.11328 c -1.8118,-1.35887 -4.2166,-2.26172 -6.6094,-2.26172 -3.2933,0 -5.7637,1.34207 -8.1895,3.00977 -2.295,1.5778 -4.4804,3.51184 -6.6015,5.75781 -0.7506,0.75303 -1.3856,1.65148 -2.0996,2.45117 -0.1213,-2.95177 -1.3861,-6.01244 -3.4668,-7.96484 -2.4188,-2.35784 -5.8958,-3.78711 -9.2657,-3.78711 -4.947,0 -9.7584,1.73513 -13.6601,4.8418 -2.6721,2.03772 -5.2011,4.42251 -7.6465,7.00781 -0.396,-2.35185 -1.2702,-4.62456 -2.7441,-6.41797 -2.0233,-2.56155 -5.4509,-4.54101 -8.9082,-4.54101 -2.708,0 -5.1968,0.99098 -7.3028,2.375 -1.5662,0.92596 -3.0492,1.92202 -4.416,3.01367 -2.2416,1.76542 -4.115,3.94099 -5.375,6.46093 a 5.9672023,5.9672023 0 0 0 -0.1484,0.31836 c -1.1656,2.71961 -1.7504,5.7725 -2.377,10.03321 a 5.9672023,5.9672023 0 0 0 -0.031,0.24218 c -0.1791,1.70052 -0.4256,3.74636 -0.6758,5.81055 -0.1739,-3.76126 -0.9323,-7.50242 -2.416,-11.11523 -1.5424,-4.01739 -4.3632,-7.3967 -7.9395,-9.72266 -0.033,-0.28965 -0.028,-0.57144 -0.07,-0.86914 -0.2426,-1.69739 -0.8925,-3.36963 -1.832,-4.7793 v -0.002 c -1.1494,-1.72376 -2.7658,-2.97464 -4.4336,-3.80859 -2.2014,-1.10072 -4.3609,-1.3418 -6.5879,-1.3418 -4.6172,0 -9.1241,2.0205 -12.4141,5.31055 -0.5101,0.51013 -0.7491,0.67698 -1.0469,0.91796 -0.04,0.002 -0.031,0.006 -0.078,0.006 -3.3696,0 -6.6059,1.64112 -8.8515,3.88672 a 5.9672023,5.9672023 0 0 0 -0.3653,0.39844 c -0.7167,0.86015 -1.3802,1.74026 -1.9843,2.64648 a 5.9672023,5.9672023 0 0 0 -0.3711,0.64258 c -0.4455,0.89083 -0.5365,1.7943 -0.75,2.69336 -1.8272,0.16716 -3.8098,0.31978 -6.2461,0.41602 -2.3519,-0.005 -4.4215,-0.20716 -6.1836,-0.57813 -1.3044,-0.27459 -1.7535,-0.51061 -2.3125,-0.73828 -0.2092,-1.21367 -0.5808,-2.34648 -1.043,-3.44922 -0.5362,-1.40089 -1.2985,-2.72608 -2.2519,-3.91406 -0.8705,-1.31113 -1.9418,-2.48994 -3.1973,-3.38672 -1.818,-1.29849 -4.147,-2.00195 -6.3203,-2.00195 -2.2101,0 -4.3695,0.50665 -6.3926,1.34961 -1.9967,0.83202 -3.8359,2.0145 -5.4609,3.44922 -1.6029,1.30332 -2.9934,2.85885 -4.1211,4.59765 -1.3914,2.01831 -2.2832,4.54216 -2.2832,7.08008 0,3.31815 0.9536,6.74066 2.9961,9.39844 -2.0275,4.44371 -4.3192,8.53422 -6.9805,12.15039 -1.7441,2.30218 -3.5584,4.36023 -5.4121,6.2793 0.3464,-1.32247 0.6488,-2.66899 1.0566,-3.95899 0.8211,-2.24249 1.9034,-4.58911 3.2871,-7.03711 1.6398,-2.90138 2.8076,-5.32268 3.5195,-7.7539 0.83,-2.54123 1.1367,-5.24395 0.9844,-7.98438 a 5.9672023,5.9672023 0 0 0 -0.01,-0.14453 c -0.3008,-3.75922 -1.426,-7.32816 -3.5039,-10.32227 -1.9193,-3.02213 -5.2679,-5.85742 -9.3926,-5.85742 -3.2116,0 -6.3078,1.27809 -8.7714,3.19141 -2.223,1.61597 -4.1519,3.64199 -5.7637,5.98633 -1.5544,2.26096 -2.8333,4.68509 -3.8281,7.23242 -0.9348,2.27976 -1.6058,4.42559 -1.9434,6.57422 -0.3354,1.69277 -0.628,3.44826 0.3379,5.86328 a 5.9672023,5.9672023 0 0 0 0,0.002 c 0.088,0.21899 0.2519,0.42005 0.3594,0.63672 -1.8654,2.44161 -3.733,4.8907 -5.5176,6.89844 a 5.9672023,5.9672023 0 0 0 -0.082,0.0957 c -2.6043,3.05715 -5.0645,5.67579 -7.3613,7.86719 -2.0937,1.89064 -3.8231,3.25444 -5.3086,4.31836 -0.087,-0.60295 -0.1582,-0.43947 -0.1582,-1.36719 0,-4.81494 0.6381,-9.63074 1.9356,-14.49609 a 5.9672023,5.9672023 0 0 0 0.01,-0.0312 c 1.3408,-5.13961 3.1321,-10.23531 5.3808,-15.29492 a 5.9672023,5.9672023 0 0 0 0.2832,-0.78516 c 0.4505,-1.5762 0.5112,-3.15235 0.3848,-4.68164 -0.069,-2.73608 -1.4623,-4.56493 -2.6582,-5.76172 -1.1637,-1.16462 -2.4286,-1.98783 -3.8574,-2.81641 -1.6131,-1.03588 -3.8523,-1.74364 -6.0469,-1.46875 -0.5534,0.0693 -1,0.31257 -1.5019,0.47266 -0.017,-0.0157 -0.03,-0.0331 -0.047,-0.0488 -1.8519,-2.11029 -4.9368,-3.45508 -7.6875,-3.45508 -1.2874,0 -2.1208,0.19559 -3.1895,0.41211 -1.8553,0.19644 -3.6543,0.6707 -5.5879,1.36133 -2.1738,0.77649 -4.3681,1.90374 -6.7148,3.33203 -2.5651,1.43879 -5.1324,3.30186 -7.8086,5.5957 a 5.9672023,5.9672023 0 0 0 -0.123,0.10743 c -4.034,3.65577 -7.8568,7.73623 -11.4727,12.2207 -0.012,0.014 -0.022,0.0289 -0.033,0.043 -7e-4,-10e-4 0,-0.003 0,-0.004 -0.155,-0.2831 -0.2141,-0.69191 -0.3906,-0.92383 -1.6444,-2.23414 -4.0018,-3.20023 -6.0664,-3.61328 -1.474,-0.38989 -2.8794,-0.57578 -4.6348,-0.70117 -1.986,-0.14184 -4.7588,-0.19336 -8.621,-0.19336 -2.4742,0 -5.0033,0.0625 -7.5879,0.18555 -2.5051,0.11929 -4.8909,0.23819 -7.1563,0.35742 a 5.9672023,5.9672023 0 0 0 -0.016,0.002 c -0.5016,0.0279 -0.869,0.0561 -1.3457,0.084 0.2298,-0.62281 0.4255,-1.17828 0.6699,-1.83008 a 5.9672023,5.9672023 0 0 0 0.041,-0.10938 c 0.6999,-1.98306 1.3989,-3.90614 2.0977,-5.76953 0.4149,-1.10652 0.6153,-1.5829 0.8926,-2.2832 1.4189,-0.14237 2.9259,-0.25977 4.7441,-0.25977 h 6.0566 c 1.0833,0 1.8748,0.1308 2.3828,0.28321 a 5.9672023,5.9672023 0 0 0 0.545,0.13672 c 1.0375,0.2075 1.8,0.40991 2.1347,0.52148 l -0.7812,-0.32422 c 2.7256,1.36298 3.4902,0.79022 4.5859,0.69922 1.0957,-0.091 2.2078,-0.27515 3.5274,-0.53906 a 5.9672023,5.9672023 0 0 0 0.2773,-0.0625 c 3.1927,-0.7982 6.2327,-2.27832 9.0996,-4.28516 a 5.9672023,5.9672023 0 0 0 0.088,-0.0625 c 1.5446,-1.1233 2.7611,-1.92465 4.0215,-3.97461 0.8674,-1.33243 1.6426,-3.00908 1.6426,-5.1289 0,-4.0427 -2.7201,-7.45795 -5.6758,-9.40039 -2.778,-1.89572 -6.0407,-3.06867 -9.793,-3.88282 -2.1145,-0.51975 -4.4319,-0.73487 -6.8808,0.13477 -1.6446,0.58401 -2.9739,1.82861 -4.0586,3.21094 -0.2185,0.02 -0.3218,0.0527 -0.5801,0.0527 h -9.6738 c -0.4522,-0.73406 -0.9343,-1.44357 -1.4961,-2.02344 -1.2504,-1.39707 -2.7498,-2.48816 -4.3692,-3.3164 -1.5639,-0.85823 -3.2511,-1.48776 -5.0371,-1.93946 -1.7747,-0.47893 -3.6017,-0.73828 -5.4336,-0.73828 z m -3.6386,7.55274 c 0.058,0.0338 0.058,0.0338 0,0 z m -6.1329,0.6289 c -0.011,0.0539 -0.01,0.10444 -0.018,0.15821 0,0.0266 -0.021,0.0555 -0.025,0.082 z m 35.543,0.98047 c -1.8841,3.36468 0.6044,-1.82838 0,0 z m 403.8184,17.75586 c 0.067,0.007 0.2233,0.0312 0.2343,0.0371 -0.079,-0.007 -0.1552,-0.031 -0.2343,-0.0371 z m -342.9883,0.61914 c -2.0635,1.37614 0.094,-0.0199 0,0 z m 344.5488,0.10352 c 1.4588,1.74569 -3.2662,-4.49986 0,0 z m -25.3613,3.50195 c 0.053,0.0824 -0.7422,-0.68634 0.1914,0.28125 -0.077,-0.087 -0.1081,-0.19794 -0.1914,-0.28125 z m -6.8203,3.87305 c -0.04,0.0459 -0.056,0.0756 -0.096,0.12109 -0.01,0.009 -0.018,0.016 -0.025,0.0254 z m -126.6114,0.56054 c -0.024,0.0256 -0.046,0.0564 -0.07,0.082 -0.01,0.009 -0.017,0.0162 -0.025,0.0254 z m 35.5547,0.41016 c -0.01,0.0397 -0.018,0.084 -0.017,0.0664 0,-0.0226 0.014,-0.0438 0.017,-0.0664 z m 99.6875,2.14844 c -6e-4,-0.18993 -0.055,-0.44441 -0.1718,0.44336 0.042,-0.16143 0.1382,-0.27523 0.1718,-0.44336 z m -101.7578,3.82422 c -0.055,0.10937 -0.112,0.21354 -0.086,0.15625 0.026,-0.0544 0.061,-0.10161 0.086,-0.15625 z m 99.4942,0.51367 c 0.015,-0.0344 0.6057,-0.78983 -0.168,0.14844 0.047,-0.0563 0.1225,-0.0916 0.168,-0.14844 z m -105.127,2.89062 c -0.021,0.0473 -0.03,0.10288 -0.051,0.15039 -0.013,0.0333 -0.043,0.0683 -0.057,0.10157 z m -81.0176,1.65625 c 0.1512,-0.12955 0.157,-0.0373 -0.098,0.0879 0.013,-0.0108 0.022,-0.0244 0.035,-0.0352 a 5.9672023,5.9672023 0 0 0 0.062,-0.0527 z m 83.2676,0.0645 c -0.1035,0.11198 -0.2402,0.25 -0.2051,0.20703 0.064,-0.0738 0.1412,-0.13241 0.2051,-0.20703 z m 29.8242,0.80468 c 3.4685,6.53456 1.7083,4.6693 5.6914,6.70508 0.8159,0.40792 1.682,0.62412 2.545,0.78516 -0.7184,0.73991 -1.3483,1.46463 -2.1446,2.23242 -3.1227,3.00694 -6.2378,5.83493 -9.3457,8.48242 a 5.9672023,5.9672023 0 0 0 -0.084,0.0723 c -2.27,2.0081 -4.2757,3.45466 -6.2539,4.85742 1.7617,-5.40876 3.5378,-10.55357 5.3399,-14.73047 1.3211,-2.90354 2.8199,-5.61834 4.2519,-8.4043 z m 57.0782,1.49024 c -1.6077,3.10087 -2.9957,6.2463 -4.1446,9.4375 -0.8544,2.37336 -1.4144,4.53839 -1.9726,6.70703 -1.8221,0.20567 -3.3065,1.01947 -4.4024,1.75 -0.8592,0.57286 -2.0141,1.26193 -3.4356,2.02734 -1.3277,0.71495 -2.7872,1.39538 -4.3769,2.03125 a 5.9672023,5.9672023 0 0 0 -0.1328,0.0547 c -1.4498,0.62134 -2.9651,1.19103 -4.5332,1.71875 -0.6527,0.18223 -1.175,0.19344 -1.7442,0.26563 0.014,-0.59627 -0.088,-0.60046 0.074,-1.53516 a 5.9672023,5.9672023 0 0 0 0.062,-0.48047 c 0.075,-0.82393 0.3031,-2.07147 0.711,-3.60742 0.5621,-1.80282 1.123,-3.65478 1.6836,-5.55664 0.6755,-1.91219 1.3472,-3.76548 2.0195,-5.56055 0.6594,-1.50925 1.2105,-2.80045 1.7266,-4.02539 7.4055,-1.00472 13.4436,-2.07503 18.4668,-3.22656 z m -173.4454,1.57422 c -0.01,0.64661 -0.2061,2.07569 -0.7929,4.04297 -0.6415,2.02487 -1.4548,4.19942 -2.4492,6.51953 -0.9792,2.28493 -2.0605,4.44528 -3.2422,6.48633 -1.1464,1.98015 -2.2368,3.47954 -3.1543,4.48047 a 5.9672023,5.9672023 0 0 0 -0.092,0.10156 c -0.7155,0.81767 -1.1152,1.00868 -1.6739,1.47461 0.1335,-0.96608 0.17,-1.78262 0.627,-3.21875 0.739,-2.32247 1.7121,-4.80522 2.9121,-7.43164 1.3105,-2.61303 2.7887,-5.23956 4.4336,-7.87696 1.121,-1.67815 2.2814,-3.0952 3.4316,-4.57812 z m 134.4356,3.83203 c -0.08,0.0117 -0.2533,0.0339 -0.2598,0.0332 0.075,-0.012 0.1861,-0.0209 0.2598,-0.0332 z m -92.8027,0.63867 c -0.026,0.0389 -0.081,0.12098 -0.1055,0.1582 -0.1192,0.15383 -0.1458,0.0559 0.1055,-0.1582 z m -141.7442,0.27149 c 0.9399,0.74232 0.8085,1.27187 0,0 z m 54.5352,1.71679 c 0.14,0.0467 0.2781,0.0368 0.416,0.0781 -0.064,-0.0127 -0.1983,-0.01 -0.2442,-0.0234 z m 215.4746,8.26172 c 4.7434,1.41714 -0.4434,-0.1629 0.3633,0.15625 -0.1238,-0.0357 -0.2388,-0.13134 -0.3633,-0.15625 z m 5.7519,5.92969 c 0.011,0.0632 0.012,0.13346 0,0.10547 -0.01,-0.0394 0.01,-0.0657 0,-0.10547 z m 18.2403,1.73828 c 0.8695,0.16656 1.7452,0.29356 2.6328,0.32813 -0.1627,0.004 -0.4318,0.084 -0.5879,0.084 -1.5631,0 -1.9283,-0.28347 -2.0449,-0.36524 -2e-4,0.008 0,-0.0497 0,-0.0469 z m 38.5586,1.78516 c -0.091,0.0392 -0.1602,0.11167 -0.25,0.15234 -0.07,0.035 -0.1598,0.0411 -0.2286,0.0781 z m -478.5215,0.62695 c -0.072,0.0402 -0.1179,0.0774 -0.1895,0.11719 0,5.7e-4 0.02,-0.0211 0.018,-0.0195 z m 421.25,0.97461 c -0.05,0.15234 -0.093,0.25521 -0.064,0.1543 0.017,-0.0549 0.049,-0.0989 0.064,-0.1543 z m 53.4629,0.69922 c -0.049,0.0325 -0.088,0.0882 -0.1367,0.12109 -0.07,0.0536 -0.1487,0.0802 -0.2188,0.13477 z m -374.6524,3.58008 c 0.01,0.0942 0.037,0.18342 0.047,0.27734 0.013,0.0754 0.01,0.14089 0.021,0.2168 z m 370.1778,0.37304 c -0.028,0.0285 -0.05,0.0669 -0.078,0.0957 -0.033,0.0362 -0.068,0.0553 -0.1015,0.0918 z m -97.7051,1.39453 c -0.027,0.0261 -0.044,0.0404 -0.025,0.0215 0.01,-0.008 0.017,-0.0136 0.025,-0.0215 z"
             id="path8137" />
          <path
             inkscape:connector-curvature="0"
             id="path8133"
             style="font-style:italic;font-variant:normal;font-weight:bold;font-stretch:normal;font-family:'Caflisch Script';-inkscape-font-specification:'Caflisch Script Bold Italic';fill:#f4c401;fill-opacity:1;stroke-width:4.45373535px"
             d="m -2824.3504,596.10341 q 3.3848,0 5.5226,0.7126 2.1378,0.53445 3.9193,1.78149 1.7815,1.24705 2.3159,2.67224 0.7126,1.24705 0.7126,2.85039 0,2.4941 -1.7815,3.74114 -1.6033,1.0689 -3.9193,1.0689 -4.0974,0 -8.373,0.89074 -4.0974,0.7126 -7.4823,2.1378 -3.3848,1.42519 -5.5226,3.20669 -1.9596,1.78149 -1.9596,3.91928 0,2.4941 1.4252,5.52264 1.6033,2.85039 3.9193,5.87893 3.0285,3.91928 4.81,7.66042 1.9596,3.74114 1.9596,7.30412 0,1.95965 -1.4252,4.81004 -1.4252,2.85039 -3.0285,4.27558 -0.8907,0.89075 -2.4941,1.95965 -1.6033,0.89074 -3.563,1.95964 -1.7815,1.0689 -3.7411,1.95964 -1.7815,1.0689 -3.2067,1.60335 -4.0974,1.60334 -6.7697,1.60334 -1.7815,0 -3.9193,-0.53444 -1.9596,-0.3563 -3.7411,-1.24705 -1.7815,-0.89075 -3.2067,-2.13779 -1.247,-1.24705 -1.4252,-2.67224 0,-0.89075 0.1782,-1.7815 0.3563,-1.06889 1.247,-1.95964 1.9596,-2.13779 3.563,-3.20669 1.6033,-1.24705 2.8504,-1.78149 2.3159,-1.24705 4.4537,0.35629 1.4252,0.53445 2.316,0.89075 1.0689,0.17815 3.0285,0.17815 1.7815,0 2.6722,-0.7126 1.0689,-0.89074 1.0689,-1.78149 0,-1.4252 -1.0689,-3.56299 -1.0689,-2.31594 -3.0285,-4.81003 -1.4252,-1.7815 -3.2067,-4.81004 -1.7815,-3.20669 -2.6722,-5.16633 -0.7126,-1.60334 -1.2471,-3.56299 -0.5344,-2.13779 -0.5344,-3.91928 0,-4.81004 3.3848,-9.62007 3.3849,-4.81004 7.3041,-7.83858 2.1378,-1.78149 4.6319,-3.20668 2.6723,-1.4252 5.5227,-2.4941 2.8503,-1.06889 5.5226,-1.60334 2.8504,-0.53445 4.9882,-0.53445 z m -96.2272,47.38774 q 0,-6.05708 3.2067,-14.96455 3.2067,-8.90747 9.0856,-17.45864 1.2471,-1.78149 3.563,-4.45373 2.316,-2.85039 4.9882,-5.16634 2.8504,-2.49409 5.8789,-4.27558 3.0286,-1.7815 5.879,-1.7815 2.4941,0 3.9193,1.0689 1.4252,0.89075 2.3159,2.49409 1.0689,1.4252 2.6722,1.60335 4.6319,0.35629 7.4823,3.20669 2.8504,2.67224 2.8504,7.83857 0,4.81003 -2.1378,8.72932 -1.9596,3.74114 -4.6319,6.76968 -2.8504,2.85039 -7.6604,5.70078 -4.6319,2.67224 -11.936,2.67224 -1.4252,0 -2.8504,-0.3563 -1.4252,-0.53445 -2.6722,-1.0689 -1.6034,-0.71259 -2.316,0.89075 -0.7126,1.4252 -1.0689,2.67224 -0.3563,1.24705 -0.3563,3.20669 0,3.02854 1.9597,4.81003 2.1378,1.7815 6.0571,1.7815 3.9192,0 8.9074,-1.24705 5.1664,-1.24704 10.8671,-3.91928 5.879,-2.85039 12.2923,-7.48228 6.4134,-4.63188 13.1831,-11.57971 1.4252,-1.4252 2.4941,-1.4252 1.247,0 1.7815,0.89075 0.7126,1.24705 0,3.38484 -0.5345,2.13779 -2.316,4.45374 -4.6318,5.87893 -10.8671,11.40156 -6.2352,5.52263 -13.5393,9.79821 -7.126,4.27559 -15.1427,6.94783 -7.8386,2.49409 -15.6772,2.49409 -3.0285,0 -6.057,-1.24704 -2.8504,-1.0689 -5.1664,-3.38484 -2.3159,-2.31594 -3.7411,-5.52263 -1.2471,-3.20669 -1.2471,-7.48228 z m 24.0502,-18.34939 q 2.1378,0 4.4537,-1.24704 2.4941,-1.4252 4.4538,-3.38484 2.1378,-1.95964 3.3848,-4.09744 1.4252,-2.31594 1.4252,-4.27558 0,-1.95965 -1.247,-2.85039 -1.0689,-1.0689 -2.8504,-1.0689 -1.4252,0 -3.0286,1.4252 -1.6033,1.42519 -3.3848,3.56298 -1.6034,2.1378 -3.0285,4.63189 -1.4252,2.49409 -2.1378,4.63188 -0.5345,1.60335 -0.1782,2.1378 0.3563,0.53444 2.1378,0.53444 z m -48.4065,22.09053 q 2.3159,0 4.81,-0.7126 2.6723,-0.89075 5.1663,-1.95964 2.6723,-1.0689 4.9882,-2.31594 2.316,-1.24705 3.9193,-2.31595 1.6034,-1.06889 2.4941,-0.71259 0.8908,0.17815 1.0689,1.24704 0.1782,0.89075 -0.3563,2.31594 -0.3563,1.24705 -1.4252,2.4941 -2.4941,2.49409 -8.373,6.76967 -5.7008,4.27559 -16.3898,7.66043 -4.0974,1.42519 -7.6604,1.42519 -3.9193,0 -7.6604,-2.67224 -3.7411,-2.67224 -3.7411,-7.30412 0,-2.85039 1.9596,-8.01673 0.7126,-1.78149 1.9596,-5.52263 1.2471,-3.91929 2.4941,-7.83857 1.4252,-3.91929 2.4941,-7.12598 1.2471,-3.38484 1.6034,-4.27558 0.3563,-0.89075 0.1781,-1.4252 0,-0.53445 -1.4252,-0.3563 -1.0689,0.17815 -2.8504,0.3563 -1.6033,0 -3.3848,0.3563 -1.4252,0.17815 -2.4941,-0.3563 -1.0689,-0.7126 -1.9596,-1.42519 -0.8908,-0.89075 -0.8908,-2.4941 0.1782,-1.78149 1.2471,-3.02854 1.247,-1.42519 2.1378,-2.13779 1.0689,-0.89075 3.0285,-1.24704 1.6033,-0.3563 3.7411,-0.7126 2.316,-0.53445 4.9882,-1.0689 1.2471,-0.3563 1.9597,-0.7126 0.8907,-0.53444 1.4252,-1.95964 0.3563,-0.7126 1.4251,-3.56299 1.0689,-2.85039 2.316,-6.23523 1.247,-3.56298 2.4941,-6.76967 1.247,-3.20669 1.9596,-4.63189 1.2471,-2.49409 4.2756,-4.27558 3.0286,-1.7815 4.9882,-1.7815 2.3159,0 4.2756,1.95965 3.9193,3.91928 1.0689,8.90747 -3.0286,5.34448 -4.9882,10.15451 -1.9597,4.81004 -2.4941,6.05708 -0.3563,1.0689 0.3563,1.24705 0.8907,0 1.7815,0 3.0285,0 6.5915,-0.17815 3.7412,-0.17815 7.3041,-0.3563 3.7412,-0.17815 6.7697,-0.17815 3.2067,-0.17815 4.9882,-0.17815 1.6034,0 2.1378,0.7126 0.5344,0.53445 0.1782,1.60334 -0.1782,0.89075 -1.0689,1.7815 -0.7126,0.89074 -1.6034,1.42519 -2.3159,1.24705 -9.9764,3.20669 -7.4822,1.78149 -19.4182,3.38484 -1.7815,0.3563 -2.4941,0.89075 -0.7126,0.3563 -1.4252,1.78149 -0.8908,2.13779 -2.1378,4.98818 -1.0689,2.85039 -2.1378,5.87893 -0.8908,3.02854 -1.7815,5.87893 -0.7126,2.67224 -0.8908,4.63189 -0.7126,4.09743 0,6.41338 0.8908,2.31594 4.4538,2.31594 z m -31.7941,-86.93691 q 3.9193,0 6.7697,1.7815 3.0285,1.78149 2.3159,5.16633 -0.8907,4.63188 -1.0689,8.19487 0,3.38484 0,6.59153 0,2.67224 -1.7815,3.02854 -1.6033,0.3563 -4.0974,-0.53445 -3.0286,-1.0689 -4.9882,-3.20669 -1.9596,-2.13779 -2.6722,-4.63188 -0.3563,-1.4252 -0.7126,-3.56299 -0.3563,-2.31594 -0.1782,-5.34448 0.3563,-4.09744 1.7815,-5.70078 1.6033,-1.7815 4.6319,-1.7815 z m -22.2687,101.36701 q -1.9596,0 -4.4537,-1.60334 -2.316,-1.4252 -4.2756,-5.52264 -2.1378,-4.45373 -0.3563,-10.68896 0.3563,-1.60334 1.0689,-3.91929 0.7126,-2.49409 1.4252,-4.98818 0.8907,-2.67224 1.6033,-4.81003 0.8908,-2.31595 1.4252,-3.56299 0.7126,-1.95964 0.7126,-2.85039 0,-1.0689 -0.7126,-2.31594 -0.5344,-1.24705 -0.7126,-2.4941 -0.1781,-1.42519 0.7126,-3.38483 1.0689,-2.67225 3.3849,-6.05708 2.4941,-3.38484 5.3444,-6.23523 2.8504,-3.02854 5.7008,-4.98819 2.8504,-1.95964 4.8101,-1.95964 1.6033,0 3.0285,1.0689 1.7815,1.42519 2.6722,4.09743 1.0689,2.49409 -0.3563,4.98819 -4.0974,7.30412 -7.6604,15.1427 -3.3848,7.83857 -6.5915,18.17123 -2.6723,8.01673 1.9596,8.01673 2.1378,0 6.2353,-2.67224 4.0974,-2.67225 8.7293,-6.76968 4.81,-4.09744 9.6201,-8.72932 4.9881,-4.81004 8.7293,-9.08562 1.6033,-1.7815 2.8504,-1.7815 1.247,0 1.7815,0.89075 1.4252,2.67224 -1.9597,8.19487 -2.6722,4.27559 -6.7697,9.08562 -4.0974,4.81004 -8.9074,9.26377 -4.6319,4.45374 -9.442,8.01673 -4.81,3.38483 -8.7293,4.98818 -6.2352,2.49409 -10.8671,2.49409 z m -13.9471,-65.91528 q 3.0285,0 5.1663,2.1378 2.1378,1.95964 1.6033,4.81003 -0.3563,2.13779 -1.6033,4.45373 -1.0689,2.31595 -2.4941,3.74114 -3.2067,3.74114 -5.5226,2.31594 -0.8908,-0.53444 -2.1378,-0.89074 -1.0689,-0.53445 -2.1378,-0.53445 -1.4252,0 -3.9193,1.95964 -2.3159,1.95965 -5.8789,6.41338 -3.3849,4.09744 -6.5916,9.08562 -3.2067,4.81003 -6.057,9.62007 -2.6723,4.81003 -4.8101,8.72932 -1.9596,3.91928 -2.8504,6.05708 -2.6722,6.94782 -7.3041,6.94782 -4.0974,0 -7.6604,-4.09743 -1.4252,-1.60335 -1.7815,-3.20669 -0.3563,-1.7815 0.5344,-4.45374 1.6034,-4.27558 2.6723,-9.08562 1.247,-4.81003 1.9596,-9.44191 0.8908,-4.63189 1.2471,-8.90747 0.5344,-4.27559 0.8907,-7.66043 0.8908,-6.05708 1.9597,-8.55117 1.247,-2.49409 3.7411,-4.45373 1.7815,-1.4252 3.9193,-2.67225 2.1378,-1.42519 4.0974,-1.42519 2.4941,0 4.2756,2.31594 1.7815,2.13779 1.7815,4.63189 0,1.24704 -0.8907,2.85039 -0.8908,1.42519 -1.7815,3.02854 -0.7126,1.24704 -1.6034,3.38483 -0.7126,1.95965 -1.4252,4.45374 -0.7126,2.31594 -1.4252,4.81003 -0.5344,2.4941 -0.8907,4.63189 -0.3563,1.42519 0.3563,1.42519 0.7126,-0.17815 1.6033,-1.42519 0.7126,-1.0689 2.1378,-3.20669 1.6034,-2.31594 3.3849,-5.16633 1.9596,-2.85039 4.2755,-5.70078 2.316,-2.8504 4.6319,-5.34449 4.0975,-4.63188 8.5512,-8.01672 4.4537,-3.56299 9.9764,-3.56299 z m -113.7972,50.77258 q 0,-3.56299 0.8908,-7.66042 0.8907,-4.09744 3.3848,-9.97637 1.0689,-2.31594 2.316,-4.63188 1.247,-2.31595 2.4941,-4.45374 1.4252,-2.13779 2.4941,-3.74114 1.247,-1.78149 2.1377,-2.85039 1.0689,-1.42519 1.9597,-2.85039 0.8907,-1.42519 1.0689,-3.91928 0.1781,-1.60335 0.7126,-2.67224 0.7126,-1.0689 1.6033,-2.1378 2.1378,-2.13779 4.6319,-2.13779 1.7815,0 2.8504,-0.53445 1.0689,-0.7126 2.4941,-2.13779 3.563,-3.56299 8.1949,-3.56299 2.4941,0 3.9193,0.7126 1.4251,0.7126 2.1377,1.78149 0.7126,1.0689 0.8908,2.31594 0.1781,1.24705 0.1781,2.1378 0,0.89074 0.1782,1.42519 0.3563,0.3563 1.247,0.7126 4.8101,2.49409 6.7697,7.66042 2.1378,5.16634 2.1378,10.33267 0,5.34448 -2.3159,11.57971 -2.1378,6.05708 -7.6605,12.29231 -6.4133,7.66042 -14.9645,12.47046 -8.373,4.81003 -17.9931,4.81003 -4.81,0 -8.373,-4.27559 -3.3849,-4.45373 -3.3849,-10.68896 z m 16.7461,-3.02854 q 0,2.85039 1.247,4.45374 1.2471,1.42519 2.4941,1.42519 1.7815,0 3.9193,-1.06889 2.316,-1.24705 4.81,-4.09744 1.9597,-2.13779 3.9193,-5.52263 1.9597,-3.38484 3.563,-7.12598 1.6034,-3.74114 2.6723,-7.12597 1.0689,-3.56299 1.0689,-5.87893 0,-3.38484 -1.0689,-6.41338 -0.8908,-3.02854 -3.3849,-3.02854 -0.8907,0 -2.1378,1.06889 -1.0689,0.89075 -1.9596,1.95965 -3.0286,3.56299 -5.8789,7.83857 -2.6723,4.27559 -4.8101,8.55117 -1.9596,4.27559 -3.2067,8.19487 -1.247,3.91929 -1.247,6.76968 z m -32.9284,-47.38774 q 1.6033,0 2.8504,0.89075 1.247,0.89075 1.9596,2.13779 0.8908,1.0689 1.4252,2.49409 0.5345,1.24705 0.7126,2.31594 0.1782,1.0689 0.3563,1.95965 0.1782,0.89075 1.4252,1.78149 1.7815,1.0689 5.1663,1.7815 3.3849,0.71259 7.4823,0.71259 4.6319,-0.17815 8.0167,-0.53444 3.563,-0.3563 4.9882,-1.0689 2.4941,-1.24705 2.6723,0.53445 0.1781,1.78149 -1.2471,3.20669 -3.0285,3.02854 -8.1949,5.52263 -5.1663,2.31594 -11.936,2.31594 -3.7411,0 -5.7008,-0.17815 -1.9596,-0.17815 -3.0285,-0.53445 -1.7815,-0.53445 -2.6722,1.24705 -4.9882,8.90747 -9.7982,15.1427 -4.6319,6.05708 -9.0857,10.33266 -4.4537,4.27559 -8.7293,7.12598 -4.2756,2.67224 -8.1949,4.63188 -3.9192,1.95965 -6.5915,2.49409 -2.6722,0.53445 -4.9882,0.53445 -0.8907,0 -2.4941,-0.7126 -1.6033,-0.71259 -3.0285,-2.31594 -1.247,-1.60334 -2.1378,-4.27558 -0.8907,-2.85039 -0.5344,-7.12598 0.3563,-2.49409 1.6033,-8.19487 1.247,-5.87893 4.81,-15.8553 0.5345,-1.42519 0.3563,-1.95964 0,-0.53445 -0.5344,-1.0689 -0.7126,-0.53445 -1.0689,-1.42519 -0.3563,-0.89075 0,-2.67224 0.3563,-2.31595 1.6033,-5.34449 1.2471,-3.20668 3.2067,-6.05708 1.9597,-2.85039 4.4538,-4.63188 2.494,-1.95964 5.1663,-1.95964 2.4941,0 4.4537,3.20669 2.1378,3.02854 2.4941,7.48227 0.1782,3.20669 -0.7126,5.87893 -0.7126,2.49409 -3.0285,6.59153 -2.316,4.09744 -3.7412,8.01672 -1.247,3.91929 -2.1378,8.01672 -1.0688,4.63189 -0.7125,6.94783 0.3562,2.31594 1.7814,2.31594 1.6034,0 5.1664,-2.67224 5.7008,-4.81003 10.6889,-11.40156 4.9882,-6.76968 8.5512,-15.1427 0.3563,-0.89074 0.1782,-1.60334 0,-0.89075 -0.8908,-1.60335 -2.6722,-2.13779 -2.6722,-6.76967 0,-1.95965 1.247,-3.74114 1.2471,-1.95965 3.0286,-3.38484 1.7815,-1.60334 3.9192,-2.49409 2.1378,-0.89075 4.0975,-0.89075 z m -83.5549,0.17815 q 1.9597,0 3.2067,1.4252 1.4252,1.24704 2.316,2.31594 0.5344,1.60334 2.3159,0.3563 2.1378,-1.95965 4.2756,-0.53445 3.7411,2.13779 3.7411,3.74114 0.1782,1.60334 -0.1781,2.85039 -3.563,8.01672 -5.7008,16.21159 -2.1378,8.01672 -2.1378,16.03345 0,4.63188 1.2471,6.76967 1.247,1.95965 3.2066,1.95965 1.6034,0 4.4538,-1.95965 2.8504,-1.95964 6.5915,-5.34448 3.7411,-3.56299 7.8386,-8.37302 4.2756,-4.81003 8.5511,-10.68896 1.4252,-1.4252 2.6723,-1.24705 1.247,0 1.7815,0.89075 0.7126,1.24704 0.1781,3.56299 -0.5344,2.13779 -1.7815,4.63188 -3.0285,5.87893 -7.4822,11.57971 -4.4538,5.70078 -9.442,10.33267 -4.9881,4.63188 -10.1545,7.48227 -4.9882,2.85039 -9.2637,2.85039 -4.9882,0 -8.3731,-3.74114 -3.2066,-3.74113 -3.7411,-9.26376 -0.3563,-1.95965 -0.3563,-3.38484 0,-1.4252 0,-2.85039 -0.1781,-1.95965 -1.6033,-0.53445 -0.8908,0.89075 -2.8504,2.85039 -1.9597,1.95964 -4.4538,4.09744 -2.3159,2.13779 -4.9881,4.27558 -2.4941,2.13779 -4.2756,3.38484 -6.9479,5.16633 -12.2923,5.16633 -0.8908,0 -2.4941,-0.7126 -1.4252,-0.71259 -2.8504,-1.95964 -1.4252,-1.42519 -2.6723,-3.38484 -1.0689,-1.95964 -1.0689,-4.45373 0,-2.67224 1.2471,-7.30413 1.247,-4.63188 5.5226,-12.82675 3.563,-7.12598 8.7293,-13.36121 5.1664,-6.41338 10.8671,-11.57971 3.7412,-3.20669 6.9479,-4.98818 3.2067,-1.95965 5.7008,-2.85039 2.494,-0.89075 4.2755,-1.0689 1.7815,-0.3563 2.4941,-0.3563 z m -6.5915,13.36121 q -1.247,0 -3.563,1.78149 -2.1378,1.78149 -6.0571,6.41338 -2.3159,2.67224 -4.4537,5.87893 -1.9596,3.02854 -3.563,6.05708 -1.6033,2.85039 -2.6722,5.52263 -1.0689,2.67224 -1.4252,4.45373 -0.3563,1.7815 -0.1782,3.38484 0.3563,1.4252 1.4252,1.4252 1.0689,0 2.8504,-1.0689 1.9597,-1.24704 3.9193,-3.02854 2.3159,-1.95964 4.4537,-4.63188 2.316,-2.85039 6.4134,-7.48228 1.9597,-2.13779 3.7412,-5.16633 1.7814,-3.02854 2.3159,-3.91929 0.8907,-1.42519 1.0689,-2.85039 0.3563,-1.60334 0,-3.02854 -0.3563,-1.24704 -1.4252,-2.49409 -1.0689,-1.24704 -2.8504,-1.24704 z m -49.1219,-27.96946 q 2.4941,0 3.3848,-0.3563 0.8908,-0.53445 1.2471,-1.24704 1.247,-3.02854 5.5226,-1.95965 4.9882,1.0689 7.8386,3.02854 3.0285,1.95965 3.0285,4.45374 0,0.89074 -0.7126,1.95964 -0.5344,0.89075 -2.4941,2.31594 -3.563,2.49409 -7.1259,3.38484 -3.563,0.7126 -4.2756,0.3563 -1.0689,-0.3563 -2.8504,-0.7126 -1.7815,-0.53445 -4.0975,-0.53445 -2.3159,0 -6.057,0 -3.563,0 -6.4134,0.3563 -2.4941,0 -3.2067,1.95965 -0.5345,1.24704 -1.6033,4.09743 -1.0689,2.85039 -2.1378,5.87893 -1.0689,2.85039 -1.9597,5.34448 -0.8907,2.31595 -1.0689,2.85039 -0.8907,2.1378 0.8908,2.1378 0.7126,0 3.0285,-0.17815 2.4941,-0.17815 5.7008,-0.3563 3.3848,-0.17815 7.126,-0.3563 3.7411,-0.17815 7.3041,-0.17815 5.7008,0 8.1949,0.17815 2.4941,0.17815 3.7411,0.53445 1.9596,0.3563 2.6722,1.42519 0.7126,0.89075 0.3563,1.7815 -0.8907,1.42519 -4.0974,3.20669 -2.4941,1.24704 -5.8789,2.49409 -3.3849,1.0689 -9.6201,1.95964 -3.563,0.53445 -6.4134,1.0689 -2.8504,0.3563 -5.3445,0.7126 -2.494,0.35629 -4.9881,0.71259 -2.316,0.3563 -4.9882,0.89075 -1.9597,0.3563 -2.8504,1.24705 -0.8908,0.71259 -1.7815,2.13779 -2.3159,4.09744 -4.0974,7.48227 -1.7815,3.38484 -3.563,6.59153 -0.7126,1.24705 -0.5345,1.60335 0.3563,0.3563 1.4252,0.71259 2.1378,0.7126 6.5915,0.53445 4.4538,-0.3563 8.0168,-1.24704 2.3159,-0.53445 2.4941,0.71259 0.1781,1.24705 -1.2471,3.02854 -1.4252,1.7815 -3.9193,3.56299 -2.4941,1.60335 -5.8789,3.02854 -3.2067,1.24705 -7.126,2.13779 -3.7411,0.89075 -7.6604,0.89075 -4.2756,0 -7.8386,-0.89075 -3.3848,-0.89074 -4.9882,-1.95964 -1.7815,-1.24705 -1.9596,-2.67224 0,-1.60334 0.8907,-2.49409 1.2471,-1.95965 6.0571,-4.63189 0.8908,-0.53444 1.4252,-1.24704 0.5345,-0.89075 1.0689,-1.95965 0.1782,-0.53444 0.7126,-2.13779 0.5345,-1.78149 1.0689,-3.74114 0.5345,-1.95964 1.0689,-3.74113 0.5345,-1.7815 0.7126,-2.49409 0.5344,-1.60335 -0.3563,-3.38484 -0.8907,-1.95965 -1.6033,-3.02854 -0.8908,-1.60335 -0.7126,-3.02854 0.3563,-1.4252 2.6722,-3.02854 4.0974,-2.85039 5.5226,-3.91929 1.4252,-1.0689 1.9597,-2.49409 0.3563,-1.0689 1.247,-3.56299 0.8908,-2.67224 1.7815,-5.52263 1.0689,-3.02854 1.7815,-5.70078 0.8908,-2.85039 1.2471,-4.45374 0.3563,-1.42519 0,-1.78149 -0.3563,-0.53445 -1.2471,-0.53445 -1.6033,0 -3.7411,0.7126 -1.9597,0.7126 -4.2756,2.31594 -1.4252,0.89075 -2.4941,0.7126 -0.8908,-0.17815 -1.4252,-0.89075 -0.8907,-1.24704 -1.4252,-2.67224 -0.5344,-1.42519 0.3563,-3.74114 0.7126,-1.95964 2.6722,-4.45373 1.9597,-2.67224 4.4538,-4.09744 4.0974,-2.67224 8.1949,-0.3563 2.3159,1.4252 2.3159,-0.17815 0,-1.42519 0.3563,-3.20668 0.5344,-3.38484 3.9193,-3.38484 1.9596,0 3.9193,0.53445 2.1378,0.53444 3.7411,1.42519 1.7815,0.89075 2.8504,2.13779 1.247,1.24705 1.4252,2.67224 0,0.89075 0.3563,1.0689 0.5344,0.17815 1.4252,0.17815 z" />
        </g>
      </g>
    </g>
  </g>
</svg>
