<?xml version="1.0" encoding="UTF-8" standalone="no"?>
<!-- Created with Inkscape (http://www.inkscape.org/) -->

<svg
   xmlns:dc="http://purl.org/dc/elements/1.1/"
   xmlns:cc="http://creativecommons.org/ns#"
   xmlns:rdf="http://www.w3.org/1999/02/22-rdf-syntax-ns#"
   xmlns:svg="http://www.w3.org/2000/svg"
   xmlns="http://www.w3.org/2000/svg"
   xmlns:xlink="http://www.w3.org/1999/xlink"
   xmlns:sodipodi="http://sodipodi.sourceforge.net/DTD/sodipodi-0.dtd"
   xmlns:inkscape="http://www.inkscape.org/namespaces/inkscape"
   width="328.63812"
   height="211.4395"
   viewBox="0 0 86.952165 55.943369"
   version="1.1"
   id="svg9136"
   inkscape:version="0.92.0 r15299"
   sodipodi:docname="Last_played_udb_v2.svg">
  <defs
     id="defs9130">
    <linearGradient
       inkscape:collect="always"
       xlink:href="#linearGradient5016"
       id="linearGradient7955"
       gradientUnits="userSpaceOnUse"
       gradientTransform="matrix(0.18590851,0,0,0.18590851,261.24805,300.99001)"
       x1="-938.11603"
       y1="-200.34273"
       x2="-938.11603"
       y2="48.2178" />
    <linearGradient
       inkscape:collect="always"
       id="linearGradient5016">
      <stop
         style="stop-color:#78c9f2;stop-opacity:1"
         offset="0"
         id="stop5012" />
      <stop
         id="stop5065"
         offset="0.88341808"
         style="stop-color:#71c2eb;stop-opacity:1" />
      <stop
         id="stop5059"
         offset="0.95896375"
         style="stop-color:#7dcef7;stop-opacity:1" />
      <stop
         style="stop-color:#6cbde6;stop-opacity:1"
         offset="1"
         id="stop5014" />
    </linearGradient>
    <linearGradient
       inkscape:collect="always"
       xlink:href="#linearGradient5024"
       id="linearGradient7957"
       gradientUnits="userSpaceOnUse"
       gradientTransform="matrix(0.18590851,0,0,0.18590851,261.24805,300.99001)"
       x1="-919.54083"
       y1="19.240137"
       x2="-919.54083"
       y2="28.327301" />
    <linearGradient
       inkscape:collect="always"
       id="linearGradient5024">
      <stop
         style="stop-color:#7fd0f9;stop-opacity:1"
         offset="0"
         id="stop5020" />
      <stop
         id="stop5063"
         offset="0.0441185"
         style="stop-color:#7ecff8;stop-opacity:1" />
      <stop
         style="stop-color:#6bbce5;stop-opacity:1"
         offset="1"
         id="stop5022" />
    </linearGradient>
    <linearGradient
       inkscape:collect="always"
       xlink:href="#linearGradient5055"
       id="linearGradient7959"
       gradientUnits="userSpaceOnUse"
       gradientTransform="matrix(0.18590851,0,0,0.18590851,261.24805,300.99001)"
       x1="-920.60986"
       y1="29.129118"
       x2="-920.60986"
       y2="37.149174" />
    <linearGradient
       inkscape:collect="always"
       id="linearGradient5055">
      <stop
         style="stop-color:#7ecff8;stop-opacity:1"
         offset="0"
         id="stop5051" />
      <stop
         style="stop-color:#6bbce5;stop-opacity:1"
         offset="1"
         id="stop5053" />
    </linearGradient>
  </defs>
  <sodipodi:namedview
     id="base"
     pagecolor="#ffffff"
     bordercolor="#666666"
     borderopacity="1.0"
     inkscape:pageopacity="0.0"
     inkscape:pageshadow="2"
     inkscape:zoom="1.979899"
     inkscape:cx="77.218067"
     inkscape:cy="47.326922"
     inkscape:document-units="px"
     inkscape:current-layer="layer1"
     showgrid="false"
     units="px"
     inkscape:window-width="1920"
     inkscape:window-height="1137"
     inkscape:window-x="1912"
     inkscape:window-y="-8"
     inkscape:window-maximized="1"
     fit-margin-top="0"
     fit-margin-left="0"
     fit-margin-right="0"
     fit-margin-bottom="0"
     inkscape:snap-global="false" />
  <metadata
     id="metadata9133">
    <rdf:RDF>
      <cc:Work
         rdf:about="">
        <dc:format>image/svg+xml</dc:format>
        <dc:type
           rdf:resource="http://purl.org/dc/dcmitype/StillImage" />
        <dc:title />
      </cc:Work>
    </rdf:RDF>
  </metadata>
  <g
     inkscape:label="Layer 1"
     inkscape:groupmode="layer"
     id="layer1"
     transform="translate(-13.88838,-254.66153)">
    <g
       id="g6167">
      <path
         style="color:#000000;clip-rule:nonzero;display:inline;overflow:visible;visibility:visible;opacity:1;isolation:auto;mix-blend-mode:normal;color-interpolation:sRGB;color-interpolation-filters:linearRGB;solid-color:#000000;solid-opacity:1;vector-effect:none;fill:#9bdcfc;fill-opacity:1;fill-rule:nonzero;stroke:none;stroke-width:0.05348826;stroke-linecap:butt;stroke-linejoin:miter;stroke-miterlimit:4;stroke-dasharray:none;stroke-dashoffset:0;stroke-opacity:1;color-rendering:auto;image-rendering:auto;shape-rendering:auto;text-rendering:auto;enable-background:accumulate"
         d="m 24.310125,255.31236 c -1.91614,0 -3.458734,1.54258 -3.458734,3.45874 v 4.65214 1.35584 42.19376 c 0,1.65162 1.329654,2.98127 2.981266,2.98127 h 64.097052 c 1.65163,0 2.981285,-1.32965 2.981285,-2.98127 v -43.5496 c 0,-1.65162 -1.329655,-2.98128 -2.981285,-2.98128 h -39.74222 -0.860217 c -1.065739,0 -2.686638,-0.72487 -3.275057,-2.70948 -0.588401,-1.98462 -2.867211,-2.41849 -3.36526,-2.41849 h 6.640317 v -0.002 z"
         id="path7905"
         inkscape:connector-curvature="0" />
      <path
         style="color:#000000;clip-rule:nonzero;display:inline;overflow:visible;visibility:visible;opacity:1;isolation:auto;mix-blend-mode:normal;color-interpolation:sRGB;color-interpolation-filters:linearRGB;solid-color:#000000;solid-opacity:1;vector-effect:none;fill:url(#linearGradient7955);fill-opacity:1;fill-rule:nonzero;stroke:none;stroke-width:0.04516253;stroke-linecap:butt;stroke-linejoin:miter;stroke-miterlimit:4;stroke-dasharray:none;stroke-dashoffset:0;stroke-opacity:1;color-rendering:auto;image-rendering:auto;shape-rendering:auto;text-rendering:auto;enable-background:accumulate"
         d="m 24.446973,263.74459 c -1.991954,0 -3.595638,1.60369 -3.595638,3.59565 v 5.95534 25.80857 8.96188 c 0,1.04603 0.842147,1.88808 1.88818,1.88808 h 66.283336 c 1.046015,0 1.888162,-0.84205 1.888162,-1.88808 v -8.96188 -25.80857 -5.95534 c 0,-1.99196 -1.603666,-3.59565 -3.595638,-3.59565 z"
         id="path7907"
         inkscape:connector-curvature="0" />
      <rect
         ry="0"
         rx="0"
         y="304.56693"
         x="20.851324"
         height="1.6893811"
         width="70.059654"
         id="rect7909"
         style="color:#000000;clip-rule:nonzero;display:inline;overflow:visible;visibility:visible;opacity:1;isolation:auto;mix-blend-mode:normal;color-interpolation:sRGB;color-interpolation-filters:linearRGB;solid-color:#000000;solid-opacity:1;vector-effect:none;fill:url(#linearGradient7957);fill-opacity:1;fill-rule:nonzero;stroke:none;stroke-width:0.10558705;stroke-linecap:butt;stroke-linejoin:miter;stroke-miterlimit:4;stroke-dasharray:none;stroke-dashoffset:0;stroke-opacity:1;color-rendering:auto;image-rendering:auto;shape-rendering:auto;text-rendering:auto;enable-background:accumulate" />
      <rect
         style="color:#000000;clip-rule:nonzero;display:inline;overflow:visible;visibility:visible;opacity:1;isolation:auto;mix-blend-mode:normal;color-interpolation:sRGB;color-interpolation-filters:linearRGB;solid-color:#000000;solid-opacity:1;vector-effect:none;fill:url(#linearGradient7959);fill-opacity:1;fill-rule:nonzero;stroke:none;stroke-width:0.09877985;stroke-linecap:butt;stroke-linejoin:miter;stroke-miterlimit:4;stroke-dasharray:none;stroke-dashoffset:0;stroke-opacity:1;color-rendering:auto;image-rendering:auto;shape-rendering:auto;text-rendering:auto;enable-background:accumulate"
         id="rect7911"
         width="70.059654"
         height="1.478574"
         x="20.851324"
         y="306.41779"
         rx="0"
         ry="0" />
      <rect
         style="color:#000000;clip-rule:nonzero;display:inline;overflow:visible;visibility:visible;opacity:1;isolation:auto;mix-blend-mode:normal;color-interpolation:sRGB;color-interpolation-filters:linearRGB;solid-color:#000000;solid-opacity:1;vector-effect:none;fill:#65b5de;fill-opacity:1;fill-rule:nonzero;stroke:none;stroke-width:0.03264492;stroke-linecap:butt;stroke-linejoin:miter;stroke-miterlimit:4;stroke-dasharray:none;stroke-dashoffset:0;stroke-opacity:1;color-rendering:auto;image-rendering:auto;shape-rendering:auto;text-rendering:auto;enable-background:accumulate"
         id="rect7913"
         width="70.059654"
         height="0.16148703"
         x="20.851324"
         y="306.25629"
         rx="0"
         ry="0" />
      <rect
         ry="0"
         rx="0"
         y="307.89636"
         x="20.851324"
         height="0.16148703"
         width="70.059654"
         id="rect7915"
         style="color:#000000;clip-rule:nonzero;display:inline;overflow:visible;visibility:visible;opacity:1;isolation:auto;mix-blend-mode:normal;color-interpolation:sRGB;color-interpolation-filters:linearRGB;solid-color:#000000;solid-opacity:1;vector-effect:none;fill:#65b5de;fill-opacity:1;fill-rule:nonzero;stroke:none;stroke-width:0.03264492;stroke-linecap:butt;stroke-linejoin:miter;stroke-miterlimit:4;stroke-dasharray:none;stroke-dashoffset:0;stroke-opacity:1;color-rendering:auto;image-rendering:auto;shape-rendering:auto;text-rendering:auto;enable-background:accumulate" />
      <g
         transform="matrix(0.02748708,0,0,-0.02748708,67.377954,253.13283)"
         id="g7951"
         style="fill:none;fill-opacity:1">
        <path
           inkscape:connector-curvature="0"
           style="fill:#5ba8cf;fill-opacity:1;stroke-width:11.01967144"
           d="m -1138.8925,-755.01323 c -14.3586,-0.24237 -60.0793,2.95326 -102.6372,14.66719 -49.7428,13.68642 -111.5302,13.63132 -161.295,0 -42.8886,-11.74695 -82.8789,-14.92065 -102.6372,-14.66719 -75.3085,0.96974 -131.9716,76.59773 -131.9716,153.96688 v 0 c 0,84.67514 69.2807,153.96687 153.9669,153.96687 0,0 116.4403,-8.77723 170.282,-8.61692 53.8416,0.1603 152.3078,8.61692 152.3078,8.61692 84.6752,-0.01 151.5646,-69.29173 151.5646,-153.96687 v 0 c 0,-77.36915 -54.2719,-152.68859 -129.5803,-153.96688 z"
           id="path7917"
           sodipodi:nodetypes="ccccccszcccc" />
        <path
           sodipodi:type="inkscape:offset"
           inkscape:radius="-1.6048466"
           inkscape:original="M -1505.4609 -755.01367 C -1580.7694 -754.04393 -1637.4336 -678.41602 -1637.4336 -601.04688 C -1637.4336 -516.37173 -1568.153 -447.08008 -1483.4668 -447.08008 C -1483.4668 -447.08008 -1367.0272 -455.85758 -1313.1855 -455.69727 C -1259.3439 -455.53697 -1160.877 -447.08008 -1160.877 -447.08008 C -1076.2018 -447.09008 -1009.3125 -516.37174 -1009.3125 -601.04688 C -1009.3125 -678.41602 -1063.5842 -753.73538 -1138.8926 -755.01367 C -1153.2512 -755.25604 -1198.9714 -752.05963 -1241.5293 -740.3457 C -1291.2721 -726.65928 -1353.0594 -726.71438 -1402.8242 -740.3457 C -1445.7128 -752.09265 -1485.7026 -755.26713 -1505.4609 -755.01367 z "
           style="fill:#64b4dd;fill-opacity:1;stroke-width:11.01967144"
           id="path7919"
           d="m -1505.4395,-753.4082 c -74.2446,0.95604 -130.3886,75.77576 -130.3886,152.36132 0,83.79317 68.54,152.34857 152.3418,152.35938 0.1818,-0.0137 116.3239,-8.77596 170.3047,-8.61523 53.9548,0.16063 152.1614,8.5999 152.3398,8.61523 83.783,-0.0293 149.9238,-68.54129 149.9238,-152.35938 0,-38.30932 -13.456,-76.15496 -36.1953,-104.51367 -22.7393,-28.35871 -54.6807,-47.21747 -91.8066,-47.84765 -14.0631,-0.23738 -59.8372,2.95366 -102.1836,14.60937 -50.0716,13.77689 -112.0544,13.72045 -162.1445,0 -42.7146,-11.69927 -82.6328,-14.86027 -102.1915,-14.60937 z" />
        <g
           style="fill:#7acbf4;fill-opacity:1"
           transform="matrix(1.6931476,0,0,1.6931476,-1918.742,-1216.5428)"
           id="g7925">
          <rect
             style="color:#000000;clip-rule:nonzero;display:inline;overflow:visible;visibility:visible;opacity:1;isolation:auto;mix-blend-mode:normal;color-interpolation:sRGB;color-interpolation-filters:linearRGB;solid-color:#000000;solid-opacity:1;vector-effect:none;fill:#7acbf4;fill-opacity:1;fill-rule:nonzero;stroke:none;stroke-width:1.35964835;stroke-linecap:butt;stroke-linejoin:miter;stroke-miterlimit:4;stroke-dasharray:none;stroke-dashoffset:0;stroke-opacity:1;color-rendering:auto;image-rendering:auto;shape-rendering:auto;text-rendering:auto;enable-background:accumulate"
             id="rect7921"
             width="36.744305"
             height="12.121831"
             x="312.80682"
             y="-435.7717"
             transform="scale(1,-1)"
             rx="6.0609155"
             ry="6.0609155" />
          <rect
             ry="6.0609155"
             rx="6.0609155"
             transform="scale(1,-1)"
             y="-435.7717"
             x="353.71808"
             height="12.121831"
             width="36.744305"
             id="rect7923"
             style="color:#000000;clip-rule:nonzero;display:inline;overflow:visible;visibility:visible;opacity:1;isolation:auto;mix-blend-mode:normal;color-interpolation:sRGB;color-interpolation-filters:linearRGB;solid-color:#000000;solid-opacity:1;vector-effect:none;fill:#7acbf4;fill-opacity:1;fill-rule:nonzero;stroke:none;stroke-width:1.35964835;stroke-linecap:butt;stroke-linejoin:miter;stroke-miterlimit:4;stroke-dasharray:none;stroke-dashoffset:0;stroke-opacity:1;color-rendering:auto;image-rendering:auto;shape-rendering:auto;text-rendering:auto;enable-background:accumulate" />
        </g>
        <g
           id="g7943"
           transform="matrix(4.7994737,0,0,-4.7994737,2379.2987,-2153.1563)"
           style="fill:#7acbf4;fill-opacity:1">
          <g
             transform="matrix(0.35277777,0,0,-0.35277777,-729.79649,-334.45074)"
             id="g7929"
             style="fill:#7acbf4;fill-opacity:1">
            <path
               inkscape:connector-curvature="0"
               id="path7927"
               style="fill:#7acbf4;fill-opacity:1;fill-rule:nonzero;stroke:none"
               d="m 0,0 c 0,-8.98 -7.281,-16.261 -16.261,-16.261 -8.98,0 -16.26,7.281 -16.26,16.261 0,8.979 7.28,16.261 16.26,16.261 C -7.281,16.261 0,8.979 0,0" />
          </g>
          <g
             transform="matrix(0.35277777,0,0,-0.35277777,-729.79649,-312.33013)"
             id="g7933"
             style="fill:#7acbf4;fill-opacity:1">
            <path
               inkscape:connector-curvature="0"
               id="path7931"
               style="fill:#7acbf4;fill-opacity:1;fill-rule:nonzero;stroke:none"
               d="m 0,0 c 0,-8.98 -7.281,-16.262 -16.261,-16.262 -8.98,0 -16.26,7.282 -16.26,16.262 0,8.98 7.28,16.262 16.26,16.262 C -7.281,16.262 0,8.98 0,0" />
          </g>
          <g
             transform="matrix(0.35277777,0,0,-0.35277777,-715.21202,-323.80299)"
             id="g7937"
             style="fill:#7acbf4;fill-opacity:1">
            <path
               inkscape:connector-curvature="0"
               id="path7935"
               style="fill:#7acbf4;fill-opacity:1;fill-rule:nonzero;stroke:none"
               d="m 0,0 c 0,-8.98 -7.281,-16.26 -16.261,-16.26 -8.981,0 -16.26,7.28 -16.26,16.26 0,8.981 7.279,16.262 16.26,16.262 C -7.281,16.262 0,8.981 0,0" />
          </g>
          <g
             transform="matrix(0.35277777,0,0,-0.35277777,-743.79736,-323.36682)"
             id="g7941"
             style="fill:#7acbf4;fill-opacity:1">
            <path
               inkscape:connector-curvature="0"
               id="path7939"
               style="fill:#7acbf4;fill-opacity:1;fill-rule:nonzero;stroke:none"
               d="m 0,0 c 0,-8.981 -7.281,-16.262 -16.262,-16.262 -8.98,0 -16.26,7.281 -16.26,16.262 0,8.979 7.28,16.26 16.26,16.26 C -7.281,16.26 0,8.979 0,0" />
          </g>
        </g>
        <g
           transform="matrix(1.6931476,0,0,1.6931476,-1427.7788,-589.0378)"
           id="g7947"
           style="fill:#5e829b;fill-opacity:1">
          <path
             inkscape:connector-curvature="0"
             id="path7945"
             style="fill:#7acbf4;fill-opacity:1;fill-rule:nonzero;stroke:none"
             d="M 0,0 C -0.024,3.652 -3.007,6.594 -6.66,6.568 L -23.379,6.451 v 17.597 c 0,3.653 -2.961,6.614 -6.614,6.614 h -13.23 c -3.653,0 -6.614,-2.961 -6.614,-6.614 V 6.266 L -68.946,6.132 c -3.653,-0.025 -6.595,-3.007 -6.569,-6.661 l 0.094,-13.229 c 0.025,-3.652 3.007,-6.594 6.66,-6.568 l 18.924,0.133 V -38.24 c 0,-3.653 2.961,-6.615 6.614,-6.615 h 13.23 c 3.653,0 6.614,2.962 6.614,6.615 v 18.232 l 16.904,0.118 c 3.653,0.025 6.594,3.007 6.569,6.661 z" />
        </g>
        <path
           inkscape:connector-curvature="0"
           id="path7949"
           style="fill:none;stroke:#7acbf4;stroke-width:5.07944298;stroke-linecap:butt;stroke-linejoin:miter;stroke-miterlimit:4;stroke-dasharray:none;stroke-opacity:1"
           d="m -1411.4788,-601.05327 c 0,-44.26734 -35.8829,-80.15022 -80.1502,-80.15022 -44.264,0 -80.1485,35.88288 -80.1485,80.15022 0,44.26734 35.8845,80.15022 80.1485,80.15022 44.2673,0 80.1502,-35.88288 80.1502,-80.15022 z" />
      </g>
      <g
         id="g5326">
        <g
           style="fill:#427691;fill-opacity:1"
           id="g4927"
           transform="matrix(0.05545646,0,0,0.05545646,38.911478,269.58814)">
          <g
             style="fill:#427691;fill-opacity:1"
             id="g4925">
            <path
               sodipodi:type="inkscape:offset"
               inkscape:radius="5.9292831"
               inkscape:original="M 331.5 25.5 C 194.004 25.5 79.610234 124.44 55.615234 255 L 0 255 L 76.5 357 L 153 255 L 107.6875 255 C 130.8925 152.796 222.284 76.5 331.5 76.5 C 458.261 76.5 561 179.239 561 306 C 561 432.761 458.261 535.5 331.5 535.5 C 251.991 535.5 181.91738 495.05791 140.73438 433.62891 L 81.650391 433.62891 C 128.11139 524.38291 222.539 586.5 331.5 586.5 C 486.412 586.5 612 460.912 612 306 C 612 151.087 486.412 25.5 331.5 25.5 z "
               style="fill:#427691;fill-opacity:1"
               id="path4921"
               d="m 331.5,19.570312 c -138.62271,0 -254.283342,98.591918 -280.710938,229.499998 H 0 a 5.9298761,5.9298761 0 0 0 -4.7441406,9.48633 l 76.4999996,102 a 5.9298761,5.9298761 0 0 0 9.488282,0 l 76.499999,-102 A 5.9298761,5.9298761 0 0 0 153,249.07031 H 115.44336 C 140.6513,153.21929 227.67027,82.429688 331.5,82.429688 c 123.55724,0 223.57031,100.013072 223.57031,223.570312 0,123.55724 -100.01307,223.57031 -223.57031,223.57031 -77.49839,0 -145.71889,-39.39735 -185.83984,-99.24219 a 5.9298761,5.9298761 0 0 0 -4.92578,-2.6289 H 81.650391 a 5.9298761,5.9298761 0 0 0 -5.277344,8.63086 C 123.81896,529.00794 220.28553,592.42969 331.5,592.42969 489.6166,592.42969 617.92969,464.1166 617.92969,306 617.92969,147.88242 489.61658,19.570312 331.5,19.570312 Z" />
            <path
               sodipodi:type="inkscape:offset"
               inkscape:radius="8.5714245"
               inkscape:original="M 318.75 128.31641 L 318.75 314.92578 L 451.63086 393.23438 L 464.58594 371.2793 L 344.25 299.72656 L 344.25 128.31641 L 318.75 128.31641 z "
               style="fill:#427691;fill-opacity:1"
               id="polygon4923"
               d="m 318.75,119.74414 a 8.5722816,8.5722816 0 0 0 -8.57227,8.57227 v 186.60937 a 8.5722816,8.5722816 0 0 0 4.22071,7.38477 l 132.88086,78.30859 a 8.5722816,8.5722816 0 0 0 11.73437,-3.0293 l 12.95508,-21.95507 A 8.5722816,8.5722816 0 0 0 468.9668,363.91211 L 352.82227,294.85156 V 128.31641 A 8.5722816,8.5722816 0 0 0 344.25,119.74414 Z"
               transform="translate(-6.2857148,24)" />
          </g>
        </g>
        <g
           transform="matrix(0.05545646,0,0,0.05545646,38.911478,269.64957)"
           id="g5316"
           style="fill:#5996b6;fill-opacity:1">
          <g
             id="g5314"
             style="fill:#5996b6;fill-opacity:1">
            <path
               d="m 331.5,19.570312 c -138.62271,0 -254.283342,98.591918 -280.710938,229.499998 H 0 a 5.9298761,5.9298761 0 0 0 -4.7441406,9.48633 l 76.4999996,102 a 5.9298761,5.9298761 0 0 0 9.488282,0 l 76.499999,-102 A 5.9298761,5.9298761 0 0 0 153,249.07031 H 115.44336 C 140.6513,153.21929 227.67027,82.429688 331.5,82.429688 c 123.55724,0 223.57031,100.013072 223.57031,223.570312 0,123.55724 -100.01307,223.57031 -223.57031,223.57031 -77.49839,0 -145.71889,-39.39735 -185.83984,-99.24219 a 5.9298761,5.9298761 0 0 0 -4.92578,-2.6289 H 81.650391 a 5.9298761,5.9298761 0 0 0 -5.277344,8.63086 C 123.81896,529.00794 220.28553,592.42969 331.5,592.42969 489.6166,592.42969 617.92969,464.1166 617.92969,306 617.92969,147.88242 489.61658,19.570312 331.5,19.570312 Z"
               id="path5310"
               style="fill:#5996b6;fill-opacity:1"
               inkscape:original="M 331.5 25.5 C 194.004 25.5 79.610234 124.44 55.615234 255 L 0 255 L 76.5 357 L 153 255 L 107.6875 255 C 130.8925 152.796 222.284 76.5 331.5 76.5 C 458.261 76.5 561 179.239 561 306 C 561 432.761 458.261 535.5 331.5 535.5 C 251.991 535.5 181.91738 495.05791 140.73438 433.62891 L 81.650391 433.62891 C 128.11139 524.38291 222.539 586.5 331.5 586.5 C 486.412 586.5 612 460.912 612 306 C 612 151.087 486.412 25.5 331.5 25.5 z "
               inkscape:radius="5.9292831"
               sodipodi:type="inkscape:offset" />
            <path
               transform="translate(-6.2857148,24)"
               d="m 318.75,119.74414 a 8.5722816,8.5722816 0 0 0 -8.57227,8.57227 v 186.60937 a 8.5722816,8.5722816 0 0 0 4.22071,7.38477 l 132.88086,78.30859 a 8.5722816,8.5722816 0 0 0 11.73437,-3.0293 l 12.95508,-21.95507 A 8.5722816,8.5722816 0 0 0 468.9668,363.91211 L 352.82227,294.85156 V 128.31641 A 8.5722816,8.5722816 0 0 0 344.25,119.74414 Z"
               id="path5312"
               style="fill:#5996b6;fill-opacity:1"
               inkscape:original="M 318.75 128.31641 L 318.75 314.92578 L 451.63086 393.23438 L 464.58594 371.2793 L 344.25 299.72656 L 344.25 128.31641 L 318.75 128.31641 z "
               inkscape:radius="8.5714245"
               sodipodi:type="inkscape:offset" />
          </g>
        </g>
      </g>
    </g>
  </g>
</svg>
