<?xml version="1.0" encoding="UTF-8" standalone="no"?>
<!-- Created with Inkscape (http://www.inkscape.org/) -->

<svg
   xmlns:dc="http://purl.org/dc/elements/1.1/"
   xmlns:cc="http://creativecommons.org/ns#"
   xmlns:rdf="http://www.w3.org/1999/02/22-rdf-syntax-ns#"
   xmlns:svg="http://www.w3.org/2000/svg"
   xmlns="http://www.w3.org/2000/svg"
   xmlns:xlink="http://www.w3.org/1999/xlink"
   xmlns:sodipodi="http://sodipodi.sourceforge.net/DTD/sodipodi-0.dtd"
   xmlns:inkscape="http://www.inkscape.org/namespaces/inkscape"
   width="328.63812"
   height="211.4395"
   viewBox="0 0 86.952165 55.943369"
   version="1.1"
   id="svg9136"
   inkscape:version="0.92.0 r15299"
   sodipodi:docname="Last_played_udb_v3.svg">
  <defs
     id="defs9130">
    <linearGradient
       inkscape:collect="always"
       id="linearGradient5418">
      <stop
         style="stop-color:#8f9299;stop-opacity:1"
         offset="0"
         id="stop5408" />
      <stop
         id="stop5410"
         offset="0.38854137"
         style="stop-color:#9f9fa1;stop-opacity:1" />
      <stop
         style="stop-color:#84878e;stop-opacity:1"
         offset="0.49993888"
         id="stop5412" />
      <stop
         id="stop5414"
         offset="0.88341808"
         style="stop-color:#54575c;stop-opacity:1" />
      <stop
         style="stop-color:#575a5f;stop-opacity:1"
         offset="1"
         id="stop5416" />
    </linearGradient>
    <linearGradient
       id="linearGradient5373"
       inkscape:collect="always">
      <stop
         id="stop5363"
         offset="0"
         style="stop-color:#8f9299;stop-opacity:1" />
      <stop
         style="stop-color:#9f9fa1;stop-opacity:1"
         offset="0.05919753"
         id="stop5365" />
      <stop
         id="stop5367"
         offset="0.49656439"
         style="stop-color:#84878e;stop-opacity:1" />
      <stop
         style="stop-color:#5e6166;stop-opacity:1"
         offset="0.88341808"
         id="stop5369" />
      <stop
         id="stop5371"
         offset="1"
         style="stop-color:#575a5f;stop-opacity:1" />
    </linearGradient>
    <linearGradient
       inkscape:collect="always"
       xlink:href="#linearGradient5016"
       id="linearGradient7955"
       gradientUnits="userSpaceOnUse"
       gradientTransform="matrix(0.18590851,0,0,0.18590851,261.24805,300.99001)"
       x1="-1207.7494"
       y1="-202.2164"
       x2="-978.27032"
       y2="106.67029" />
    <linearGradient
       inkscape:collect="always"
       id="linearGradient5016">
      <stop
         style="stop-color:#8f9299;stop-opacity:1"
         offset="0"
         id="stop5012" />
      <stop
         id="stop5351"
         offset="0.01176494"
         style="stop-color:#9f9fa1;stop-opacity:1" />
      <stop
         style="stop-color:#84878e;stop-opacity:1"
         offset="0.49656439"
         id="stop5359" />
      <stop
         id="stop5065"
         offset="0.88341808"
         style="stop-color:#5e6166;stop-opacity:1" />
      <stop
         style="stop-color:#575a5f;stop-opacity:1"
         offset="1"
         id="stop5014" />
    </linearGradient>
    <linearGradient
       inkscape:collect="always"
       xlink:href="#linearGradient5373"
       id="linearGradient5361"
       gradientUnits="userSpaceOnUse"
       gradientTransform="matrix(0.18590851,0,0,0.18590851,261.24805,300.99001)"
       x1="-1236.5022"
       y1="-233.66478"
       x2="-978.27032"
       y2="106.67029" />
    <linearGradient
       inkscape:collect="always"
       xlink:href="#linearGradient5373"
       id="linearGradient5361-1"
       gradientUnits="userSpaceOnUse"
       gradientTransform="matrix(0.70264634,0,0,0.70264634,908.58602,140.77009)"
       x1="-1236.5022"
       y1="-233.66478"
       x2="-978.27032"
       y2="106.67029" />
    <linearGradient
       inkscape:collect="always"
       xlink:href="#linearGradient5418"
       id="linearGradient5406"
       gradientUnits="userSpaceOnUse"
       gradientTransform="matrix(0.18590851,0,0,0.18590851,261.24805,300.99001)"
       x1="-1236.5022"
       y1="-233.66478"
       x2="-978.27032"
       y2="106.67029" />
    <linearGradient
       inkscape:collect="always"
       xlink:href="#linearGradient5418"
       id="linearGradient5422"
       gradientUnits="userSpaceOnUse"
       gradientTransform="matrix(0.18590851,0,0,0.16121177,261.24805,303.31605)"
       x1="-1236.5022"
       y1="-233.66478"
       x2="-978.27032"
       y2="106.67029" />
  </defs>
  <sodipodi:namedview
     id="base"
     pagecolor="#ffffff"
     bordercolor="#666666"
     borderopacity="1.0"
     inkscape:pageopacity="0.0"
     inkscape:pageshadow="2"
     inkscape:zoom="0.9899495"
     inkscape:cx="-197.71832"
     inkscape:cy="342.98229"
     inkscape:document-units="px"
     inkscape:current-layer="layer1"
     showgrid="false"
     units="px"
     inkscape:window-width="1920"
     inkscape:window-height="1137"
     inkscape:window-x="1912"
     inkscape:window-y="-8"
     inkscape:window-maximized="1"
     fit-margin-top="0"
     fit-margin-left="0"
     fit-margin-right="0"
     fit-margin-bottom="0"
     inkscape:snap-global="true" />
  <metadata
     id="metadata9133">
    <rdf:RDF>
      <cc:Work
         rdf:about="">
        <dc:format>image/svg+xml</dc:format>
        <dc:type
           rdf:resource="http://purl.org/dc/dcmitype/StillImage" />
        <dc:title></dc:title>
      </cc:Work>
    </rdf:RDF>
  </metadata>
  <g
     inkscape:label="Layer 1"
     inkscape:groupmode="layer"
     id="layer1"
     transform="translate(-13.88838,-254.66153)">
    <g
       id="g5536">
      <path
         style="color:#000000;clip-rule:nonzero;display:inline;overflow:visible;visibility:visible;opacity:1;isolation:auto;mix-blend-mode:normal;color-interpolation:sRGB;color-interpolation-filters:linearRGB;solid-color:#000000;solid-opacity:1;vector-effect:none;fill:#282a2a;fill-opacity:1;fill-rule:nonzero;stroke:none;stroke-width:0.05348826;stroke-linecap:butt;stroke-linejoin:miter;stroke-miterlimit:4;stroke-dasharray:none;stroke-dashoffset:0;stroke-opacity:1;color-rendering:auto;image-rendering:auto;shape-rendering:auto;text-rendering:auto;enable-background:accumulate"
         d="m 24.310125,255.31236 c -1.91614,0 -3.458734,1.54258 -3.458734,3.45874 v 4.65214 1.35584 42.19376 c 0,1.65162 1.329654,2.98127 2.981266,2.98127 h 64.097052 c 1.65163,0 2.981285,-1.32965 2.981285,-2.98127 v -43.5496 c 0,-1.65162 -1.329655,-2.98128 -2.981285,-2.98128 h -39.74222 -0.860217 c -1.065739,0 -2.686638,-0.72487 -3.275057,-2.70948 -0.588401,-1.98462 -2.867211,-2.41849 -3.36526,-2.41849 h 6.640317 v -0.002 z"
         id="path7905"
         inkscape:connector-curvature="0" />
      <path
         style="color:#000000;clip-rule:nonzero;display:inline;overflow:visible;visibility:visible;opacity:1;isolation:auto;mix-blend-mode:normal;color-interpolation:sRGB;color-interpolation-filters:linearRGB;solid-color:#000000;solid-opacity:1;vector-effect:none;fill:url(#linearGradient5361);fill-opacity:1;fill-rule:nonzero;stroke:none;stroke-width:0.04516253;stroke-linecap:butt;stroke-linejoin:miter;stroke-miterlimit:4;stroke-dasharray:none;stroke-dashoffset:0;stroke-opacity:1;color-rendering:auto;image-rendering:auto;shape-rendering:auto;text-rendering:auto;enable-background:accumulate"
         d="m 24.446973,263.74459 c -1.991954,0 -3.595638,1.60369 -3.595638,3.59565 v 5.95534 25.80857 8.96188 c 0,1.04603 0.842147,1.88808 1.88818,1.88808 h 66.283336 c 1.046015,0 1.888162,-0.84205 1.888162,-1.88808 v -8.96188 -25.80857 -5.95534 c 0,-1.99196 -1.603666,-3.59565 -3.595638,-3.59565 z"
         id="path7907"
         inkscape:connector-curvature="0" />
      <path
         id="rect7909"
         d="m 20.851324,304.56693 h 70.059654 v 1.68938 H 20.851324 Z"
         style="color:#000000;clip-rule:nonzero;display:inline;overflow:visible;visibility:visible;opacity:1;isolation:auto;mix-blend-mode:normal;color-interpolation:sRGB;color-interpolation-filters:linearRGB;solid-color:#000000;solid-opacity:1;vector-effect:none;fill:url(#linearGradient5406);fill-opacity:1;fill-rule:nonzero;stroke:none;stroke-width:0.04516253;stroke-linecap:butt;stroke-linejoin:miter;stroke-miterlimit:4;stroke-dasharray:none;stroke-dashoffset:0;stroke-opacity:1;color-rendering:auto;image-rendering:auto;shape-rendering:auto;text-rendering:auto;enable-background:accumulate" />
      <path
         id="rect7913"
         d="m 20.851324,306.25629 h 70.059654 v 0.16148 H 20.851324 Z"
         style="color:#000000;clip-rule:nonzero;display:inline;overflow:visible;visibility:visible;opacity:1;isolation:auto;mix-blend-mode:normal;color-interpolation:sRGB;color-interpolation-filters:linearRGB;solid-color:#000000;solid-opacity:1;vector-effect:none;fill:#55585d;fill-opacity:1;fill-rule:nonzero;stroke:none;stroke-width:0.03264492;stroke-linecap:butt;stroke-linejoin:miter;stroke-miterlimit:4;stroke-dasharray:none;stroke-dashoffset:0;stroke-opacity:1;color-rendering:auto;image-rendering:auto;shape-rendering:auto;text-rendering:auto;enable-background:accumulate" />
      <path
         id="rect7915"
         d="m 20.851324,307.89636 h 70.059654 v 0.16149 H 20.851324 Z"
         style="color:#000000;clip-rule:nonzero;display:inline;overflow:visible;visibility:visible;opacity:1;isolation:auto;mix-blend-mode:normal;color-interpolation:sRGB;color-interpolation-filters:linearRGB;solid-color:#000000;solid-opacity:1;vector-effect:none;fill:#55585d;fill-opacity:1;fill-rule:nonzero;stroke:none;stroke-width:0.03264492;stroke-linecap:butt;stroke-linejoin:miter;stroke-miterlimit:4;stroke-dasharray:none;stroke-dashoffset:0;stroke-opacity:1;color-rendering:auto;image-rendering:auto;shape-rendering:auto;text-rendering:auto;enable-background:accumulate" />
      <path
         sodipodi:nodetypes="ccccccszcccc"
         id="path7917"
         d="m 36.073125,273.88594 c -0.394676,0.007 -1.651405,-0.0812 -2.821197,-0.40316 -1.367285,-0.3762 -3.06564,-0.37468 -4.433529,0 -1.178882,0.32289 -2.278099,0.41013 -2.821197,0.40316 -2.07001,-0.0267 -3.627514,-2.10545 -3.627514,-4.2321 v 0 c 0,-2.32747 1.904325,-4.2321 4.232101,-4.2321 0,0 3.200604,0.24126 4.680555,0.23685 1.479948,-0.004 4.186497,-0.23685 4.186497,-0.23685 2.327474,2.7e-4 4.166068,1.90463 4.166068,4.2321 v 0 c 0,2.12665 -1.491776,4.19696 -3.561784,4.2321 z"
         style="fill:#4d4d4d;fill-opacity:1;stroke-width:0.30289859"
         inkscape:connector-curvature="0" />
      <path
         id="path7919"
         d="m -1505.4395,-753.4082 c -74.2446,0.95604 -130.3886,75.77576 -130.3886,152.36132 0,83.79317 68.54,152.34857 152.3418,152.35938 0.1818,-0.0137 116.3239,-8.77596 170.3047,-8.61523 53.9548,0.16063 152.1614,8.5999 152.3398,8.61523 83.783,-0.0293 149.9238,-68.54129 149.9238,-152.35938 0,-38.30932 -13.456,-76.15496 -36.1953,-104.51367 -22.7393,-28.35871 -54.6807,-47.21747 -91.8066,-47.84765 -14.0631,-0.23738 -59.8372,2.95366 -102.1836,14.60937 -50.0716,13.77689 -112.0544,13.72045 -162.1445,0 -42.7146,-11.69927 -82.6328,-14.86027 -102.1915,-14.60937 z"
         style="fill:#494c51;fill-opacity:1;stroke-width:11.01967144"
         transform="matrix(0.02748708,0,0,-0.02748708,67.377954,253.13283)" />
      <g
         id="g7925"
         transform="matrix(0.04653968,0,0,-0.04653968,14.637339,286.57204)"
         style="fill:#666666;fill-opacity:1">
        <path
           id="rect7921"
           d="m 318.86774,-435.7717 h 24.62247 c 3.35775,0 6.06092,2.70317 6.06092,6.06092 0,3.35774 -2.70317,6.06091 -6.06092,6.06091 h -24.62247 c -3.35775,0 -6.06092,-2.70317 -6.06092,-6.06091 0,-3.35775 2.70317,-6.06092 6.06092,-6.06092 z"
           style="color:#000000;clip-rule:nonzero;display:inline;overflow:visible;visibility:visible;opacity:1;isolation:auto;mix-blend-mode:normal;color-interpolation:sRGB;color-interpolation-filters:linearRGB;solid-color:#000000;solid-opacity:1;vector-effect:none;fill:#666666;fill-opacity:1;fill-rule:nonzero;stroke:none;stroke-width:1.35964835;stroke-linecap:butt;stroke-linejoin:miter;stroke-miterlimit:4;stroke-dasharray:none;stroke-dashoffset:0;stroke-opacity:1;color-rendering:auto;image-rendering:auto;shape-rendering:auto;text-rendering:auto;enable-background:accumulate"
           transform="scale(1,-1)" />
        <path
           id="rect7923"
           d="m 359.77899,-435.7717 h 24.62248 c 3.35774,0 6.06091,2.70317 6.06091,6.06092 0,3.35774 -2.70317,6.06091 -6.06091,6.06091 h -24.62248 c -3.35774,0 -6.06091,-2.70317 -6.06091,-6.06091 0,-3.35775 2.70317,-6.06092 6.06091,-6.06092 z"
           style="color:#000000;clip-rule:nonzero;display:inline;overflow:visible;visibility:visible;opacity:1;isolation:auto;mix-blend-mode:normal;color-interpolation:sRGB;color-interpolation-filters:linearRGB;solid-color:#000000;solid-opacity:1;vector-effect:none;fill:#666666;fill-opacity:1;fill-rule:nonzero;stroke:none;stroke-width:1.35964835;stroke-linecap:butt;stroke-linejoin:miter;stroke-miterlimit:4;stroke-dasharray:none;stroke-dashoffset:0;stroke-opacity:1;color-rendering:auto;image-rendering:auto;shape-rendering:auto;text-rendering:auto;enable-background:accumulate"
           transform="scale(1,-1)" />
      </g>
      <g
         style="fill:#666666;fill-opacity:1"
         transform="matrix(0.13192352,0,0,0.13192352,132.77793,312.31681)"
         id="g7943">
        <g
           style="fill:#666666;fill-opacity:1"
           id="g7929"
           transform="matrix(0.35277777,0,0,-0.35277777,-729.79649,-334.45074)">
          <path
             d="m 0,0 c 0,-8.98 -7.281,-16.261 -16.261,-16.261 -8.98,0 -16.26,7.281 -16.26,16.261 0,8.979 7.28,16.261 16.26,16.261 C -7.281,16.261 0,8.979 0,0"
             style="fill:#666666;fill-opacity:1;fill-rule:nonzero;stroke:none"
             id="path7927"
             inkscape:connector-curvature="0" />
        </g>
        <g
           style="fill:#666666;fill-opacity:1"
           id="g7933"
           transform="matrix(0.35277777,0,0,-0.35277777,-729.79649,-312.33013)">
          <path
             d="m 0,0 c 0,-8.98 -7.281,-16.262 -16.261,-16.262 -8.98,0 -16.26,7.282 -16.26,16.262 0,8.98 7.28,16.262 16.26,16.262 C -7.281,16.262 0,8.98 0,0"
             style="fill:#666666;fill-opacity:1;fill-rule:nonzero;stroke:none"
             id="path7931"
             inkscape:connector-curvature="0" />
        </g>
        <g
           style="fill:#666666;fill-opacity:1"
           id="g7937"
           transform="matrix(0.35277777,0,0,-0.35277777,-715.21202,-323.80299)">
          <path
             d="m 0,0 c 0,-8.98 -7.281,-16.26 -16.261,-16.26 -8.981,0 -16.26,7.28 -16.26,16.26 0,8.981 7.279,16.262 16.26,16.262 C -7.281,16.262 0,8.981 0,0"
             style="fill:#666666;fill-opacity:1;fill-rule:nonzero;stroke:none"
             id="path7935"
             inkscape:connector-curvature="0" />
        </g>
        <g
           style="fill:#666666;fill-opacity:1"
           id="g7941"
           transform="matrix(0.35277777,0,0,-0.35277777,-743.79736,-323.36682)">
          <path
             d="m 0,0 c 0,-8.981 -7.281,-16.262 -16.262,-16.262 -8.98,0 -16.26,7.281 -16.26,16.262 0,8.979 7.28,16.26 16.26,16.26 C -7.281,16.26 0,8.979 0,0"
             style="fill:#666666;fill-opacity:1;fill-rule:nonzero;stroke:none"
             id="path7939"
             inkscape:connector-curvature="0" />
        </g>
      </g>
      <g
         style="fill:#666666;fill-opacity:1"
         id="g7947"
         transform="matrix(0.04653968,0,0,-0.04653968,28.132484,269.32376)">
        <path
           d="M 0,0 C -0.024,3.652 -3.007,6.594 -6.66,6.568 L -23.379,6.451 v 17.597 c 0,3.653 -2.961,6.614 -6.614,6.614 h -13.23 c -3.653,0 -6.614,-2.961 -6.614,-6.614 V 6.266 L -68.946,6.132 c -3.653,-0.025 -6.595,-3.007 -6.569,-6.661 l 0.094,-13.229 c 0.025,-3.652 3.007,-6.594 6.66,-6.568 l 18.924,0.133 V -38.24 c 0,-3.653 2.961,-6.615 6.614,-6.615 h 13.23 c 3.653,0 6.614,2.962 6.614,6.615 v 18.232 l 16.904,0.118 c 3.653,0.025 6.594,3.007 6.569,6.661 z"
           style="fill:#666666;fill-opacity:1;fill-rule:nonzero;stroke:none"
           id="path7945"
           inkscape:connector-curvature="0" />
      </g>
      <path
         d="m 28.580523,269.65403 c 0,1.21678 -0.986316,2.20309 -2.203095,2.20309 -1.216688,0 -2.203048,-0.98631 -2.203048,-2.20309 0,-1.21678 0.98636,-2.2031 2.203048,-2.2031 1.216779,0 2.203095,0.98632 2.203095,2.2031 z"
         style="fill:none;fill-opacity:1;stroke:#666666;stroke-width:0.13961905;stroke-linecap:butt;stroke-linejoin:miter;stroke-miterlimit:4;stroke-dasharray:none;stroke-opacity:1"
         id="path7949"
         inkscape:connector-curvature="0" />
      <g
         transform="translate(4.5145621e-7,0.20783914)"
         id="g5477">
        <g
           style="fill:#92959a;fill-opacity:1"
           id="g5457"
           transform="translate(0,0.10595809)">
          <g
             style="fill:#92959a;fill-opacity:1"
             id="g5447"
             transform="matrix(0.05545646,0,0,0.05545646,38.911478,269.58814)">
            <g
               style="fill:#92959a;fill-opacity:1"
               id="g5445">
              <path
                 id="path5441"
                 d="m 331.5,19.570312 c -138.62271,0 -254.283342,98.591918 -280.710938,229.499998 H 0 a 5.9298761,5.9298761 0 0 0 -4.7441406,9.48633 l 76.4999996,102 a 5.9298761,5.9298761 0 0 0 9.488282,0 l 76.499999,-102 A 5.9298761,5.9298761 0 0 0 153,249.07031 H 115.44336 C 140.6513,153.21929 227.67027,82.429688 331.5,82.429688 c 123.55724,0 223.57031,100.013072 223.57031,223.570312 0,123.55724 -100.01307,223.57031 -223.57031,223.57031 -77.49839,0 -145.71889,-39.39735 -185.83984,-99.24219 a 5.9298761,5.9298761 0 0 0 -4.92578,-2.6289 H 81.650391 a 5.9298761,5.9298761 0 0 0 -5.277344,8.63086 C 123.81896,529.00794 220.28553,592.42969 331.5,592.42969 489.6166,592.42969 617.92969,464.1166 617.92969,306 617.92969,147.88242 489.61658,19.570312 331.5,19.570312 Z"
                 style="fill:#92959a;fill-opacity:1" />
              <path
                 id="path5443"
                 d="m 318.75,119.74414 a 8.5722816,8.5722816 0 0 0 -8.57227,8.57227 v 186.60937 a 8.5722816,8.5722816 0 0 0 4.22071,7.38477 l 132.88086,78.30859 a 8.5722816,8.5722816 0 0 0 11.73437,-3.0293 l 12.95508,-21.95507 A 8.5722816,8.5722816 0 0 0 468.9668,363.91211 L 352.82227,294.85156 V 128.31641 A 8.5722816,8.5722816 0 0 0 344.25,119.74414 Z"
                 style="fill:#92959a;fill-opacity:1"
                 transform="translate(-6.2857148,24)" />
            </g>
          </g>
          <g
             transform="matrix(0.05545646,0,0,0.05545646,38.911478,269.64957)"
             id="g5455"
             style="fill:#92959a;fill-opacity:1">
            <g
               id="g5453"
               style="fill:#92959a;fill-opacity:1">
              <path
                 id="path5449"
                 d="m 331.5,19.570312 c -138.62271,0 -254.283342,98.591918 -280.710938,229.499998 H 0 a 5.9298761,5.9298761 0 0 0 -4.7441406,9.48633 l 76.4999996,102 a 5.9298761,5.9298761 0 0 0 9.488282,0 l 76.499999,-102 A 5.9298761,5.9298761 0 0 0 153,249.07031 H 115.44336 C 140.6513,153.21929 227.67027,82.429688 331.5,82.429688 c 123.55724,0 223.57031,100.013072 223.57031,223.570312 0,123.55724 -100.01307,223.57031 -223.57031,223.57031 -77.49839,0 -145.71889,-39.39735 -185.83984,-99.24219 a 5.9298761,5.9298761 0 0 0 -4.92578,-2.6289 H 81.650391 a 5.9298761,5.9298761 0 0 0 -5.277344,8.63086 C 123.81896,529.00794 220.28553,592.42969 331.5,592.42969 489.6166,592.42969 617.92969,464.1166 617.92969,306 617.92969,147.88242 489.61658,19.570312 331.5,19.570312 Z"
                 style="fill:#92959a;fill-opacity:1" />
              <path
                 id="path5451"
                 d="m 318.75,119.74414 a 8.5722816,8.5722816 0 0 0 -8.57227,8.57227 v 186.60937 a 8.5722816,8.5722816 0 0 0 4.22071,7.38477 l 132.88086,78.30859 a 8.5722816,8.5722816 0 0 0 11.73437,-3.0293 l 12.95508,-21.95507 A 8.5722816,8.5722816 0 0 0 468.9668,363.91211 L 352.82227,294.85156 V 128.31641 A 8.5722816,8.5722816 0 0 0 344.25,119.74414 Z"
                 style="fill:#92959a;fill-opacity:1"
                 transform="translate(-6.2857148,24)" />
            </g>
          </g>
        </g>
        <g
           id="g5326"
           style="fill:#494c51;fill-opacity:1">
          <g
             transform="matrix(0.05545646,0,0,0.05545646,38.911478,269.58814)"
             id="g4927"
             style="fill:#494c51;fill-opacity:1">
            <g
               id="g4925"
               style="fill:#494c51;fill-opacity:1">
              <path
                 id="path4921"
                 d="m 331.5,19.570312 c -138.62271,0 -254.283342,98.591918 -280.710938,229.499998 H 0 a 5.9298761,5.9298761 0 0 0 -4.7441406,9.48633 l 76.4999996,102 a 5.9298761,5.9298761 0 0 0 9.488282,0 l 76.499999,-102 A 5.9298761,5.9298761 0 0 0 153,249.07031 H 115.44336 C 140.6513,153.21929 227.67027,82.429688 331.5,82.429688 c 123.55724,0 223.57031,100.013072 223.57031,223.570312 0,123.55724 -100.01307,223.57031 -223.57031,223.57031 -77.49839,0 -145.71889,-39.39735 -185.83984,-99.24219 a 5.9298761,5.9298761 0 0 0 -4.92578,-2.6289 H 81.650391 a 5.9298761,5.9298761 0 0 0 -5.277344,8.63086 C 123.81896,529.00794 220.28553,592.42969 331.5,592.42969 489.6166,592.42969 617.92969,464.1166 617.92969,306 617.92969,147.88242 489.61658,19.570312 331.5,19.570312 Z"
                 style="fill:#494c51;fill-opacity:1" />
              <path
                 id="polygon4923"
                 d="m 318.75,119.74414 a 8.5722816,8.5722816 0 0 0 -8.57227,8.57227 v 186.60937 a 8.5722816,8.5722816 0 0 0 4.22071,7.38477 l 132.88086,78.30859 a 8.5722816,8.5722816 0 0 0 11.73437,-3.0293 l 12.95508,-21.95507 A 8.5722816,8.5722816 0 0 0 468.9668,363.91211 L 352.82227,294.85156 V 128.31641 A 8.5722816,8.5722816 0 0 0 344.25,119.74414 Z"
                 style="fill:#494c51;fill-opacity:1"
                 transform="translate(-6.2857148,24)" />
            </g>
          </g>
          <g
             style="fill:#494c51;fill-opacity:1"
             id="g5316"
             transform="matrix(0.05545646,0,0,0.05545646,38.911478,269.64957)">
            <g
               style="fill:#494c51;fill-opacity:1"
               id="g5314">
              <path
                 id="path5310"
                 d="m 331.5,19.570312 c -138.62271,0 -254.283342,98.591918 -280.710938,229.499998 H 0 a 5.9298761,5.9298761 0 0 0 -4.7441406,9.48633 l 76.4999996,102 a 5.9298761,5.9298761 0 0 0 9.488282,0 l 76.499999,-102 A 5.9298761,5.9298761 0 0 0 153,249.07031 H 115.44336 C 140.6513,153.21929 227.67027,82.429688 331.5,82.429688 c 123.55724,0 223.57031,100.013072 223.57031,223.570312 0,123.55724 -100.01307,223.57031 -223.57031,223.57031 -77.49839,0 -145.71889,-39.39735 -185.83984,-99.24219 a 5.9298761,5.9298761 0 0 0 -4.92578,-2.6289 H 81.650391 a 5.9298761,5.9298761 0 0 0 -5.277344,8.63086 C 123.81896,529.00794 220.28553,592.42969 331.5,592.42969 489.6166,592.42969 617.92969,464.1166 617.92969,306 617.92969,147.88242 489.61658,19.570312 331.5,19.570312 Z"
                 style="fill:#494c51;fill-opacity:1" />
              <path
                 id="path5312"
                 d="m 318.75,119.74414 a 8.5722816,8.5722816 0 0 0 -8.57227,8.57227 v 186.60937 a 8.5722816,8.5722816 0 0 0 4.22071,7.38477 l 132.88086,78.30859 a 8.5722816,8.5722816 0 0 0 11.73437,-3.0293 l 12.95508,-21.95507 A 8.5722816,8.5722816 0 0 0 468.9668,363.91211 L 352.82227,294.85156 V 128.31641 A 8.5722816,8.5722816 0 0 0 344.25,119.74414 Z"
                 style="fill:#494c51;fill-opacity:1"
                 transform="translate(-6.2857148,24)" />
            </g>
          </g>
        </g>
      </g>
      <path
         id="rect5420"
         d="m 20.851324,306.41779 h 70.059654 v 1.46495 H 20.851324 Z"
         style="color:#000000;clip-rule:nonzero;display:inline;overflow:visible;visibility:visible;opacity:1;isolation:auto;mix-blend-mode:normal;color-interpolation:sRGB;color-interpolation-filters:linearRGB;solid-color:#000000;solid-opacity:1;vector-effect:none;fill:url(#linearGradient5422);fill-opacity:1;fill-rule:nonzero;stroke:none;stroke-width:0.0420559;stroke-linecap:butt;stroke-linejoin:miter;stroke-miterlimit:4;stroke-dasharray:none;stroke-dashoffset:0;stroke-opacity:1;color-rendering:auto;image-rendering:auto;shape-rendering:auto;text-rendering:auto;enable-background:accumulate" />
    </g>
  </g>
</svg>
